<svg width="927" height="693" viewBox="0 0 927 693" fill="none" xmlns="http://www.w3.org/2000/svg">
<mask id="mask0" mask-type="alpha" maskUnits="userSpaceOnUse" x="0" y="0" width="928" height="693">
<rect x="0.333496" y="0.333252" width="926.667" height="692" rx="61.3333" fill="#C4C4C4"/>
</mask>
<g mask="url(#mask0)">
<g opacity="0.25">
<path opacity="0.0625" d="M3.81114 158.731C-136.946 220.602 -214.467 303.244 -214.467 391.427C-214.467 482.009 -133.361 567.546 13.9125 632.28C166.055 699.155 365.368 732.694 563.341 732.694C752.823 732.694 941.07 701.972 1085.7 640.35C1088.52 639.152 1091.36 638.001 1094.14 636.777C1096.94 635.545 1099.67 634.247 1102.42 633.002C1237.91 571.558 1312.37 490.456 1312.37 404.026C1312.37 313.443 1231.26 227.906 1083.99 163.172C931.856 96.2999 732.559 62.758 534.603 62.758C341.421 62.758 149.519 94.6815 3.81114 158.731ZM2.38036 156.848C75.0401 124.909 160.062 100.33 255.013 83.8038C300.639 75.8611 348.395 69.8604 396.964 65.9669C400.492 65.6836 404.028 65.4097 407.569 65.1452C452.017 61.8492 497.41 60.2837 542.656 60.4798C591.52 60.6976 640.62 62.9759 688.601 67.2585C737.047 71.5816 784.783 77.9837 830.478 86.2844C925.552 103.558 1011.1 128.703 1084.74 161.022C1122.2 177.464 1155.89 195.538 1184.89 214.747C1213.4 233.574 1237.71 253.708 1257.18 274.592C1276.33 295.124 1290.96 316.577 1300.69 338.355C1310.33 359.954 1315.22 382.049 1315.22 404.026C1315.22 425.395 1310.6 446.811 1301.49 467.686C1292.29 488.757 1278.42 509.463 1260.28 529.239C1222.59 570.319 1167.15 607.12 1095.52 638.607C1095.51 638.607 1094.84 637.727 1094.84 637.727C1094.84 637.727 1095.51 638.614 1095.5 638.614C1023.18 670.403 938.618 694.904 844.173 711.443C798.78 719.392 751.27 725.418 702.954 729.358C657.426 733.071 610.807 734.96 564.261 734.982C561.886 734.982 559.511 734.979 557.132 734.969C511.346 734.804 465.344 732.825 420.233 729.087C417.163 728.832 414.101 728.57 411.039 728.3C362.429 724.011 314.539 717.63 268.68 709.342C173.278 692.094 87.4267 666.927 13.5242 634.549C-24.0689 618.075 -57.8887 599.961 -86.9992 580.708C-115.501 561.882 -139.82 541.748 -159.287 520.867C-178.431 500.335 -193.066 478.881 -202.791 457.104C-212.439 435.504 -217.328 413.412 -217.328 391.433C-217.328 370.063 -212.705 348.647 -203.593 327.773C-194.39 306.702 -180.528 285.995 -162.386 266.219C-124.686 225.133 -69.2533 188.336 2.38036 156.848Z" fill="#F09819"/>
<path opacity="0.125" d="M34.9777 172.431C-97.7181 230.76 -170.795 308.663 -170.795 391.788C-170.795 477.175 -94.3332 557.807 44.5027 618.835C187.958 681.891 375.895 713.513 562.56 713.507C741.229 713.5 918.729 684.524 1055.09 626.407C1057.71 625.29 1060.41 624.275 1063 623.136C1065.62 621.987 1068.12 620.715 1070.69 619.55C1198.46 561.623 1268.68 485.152 1268.68 403.664C1268.68 318.277 1192.22 237.645 1053.39 176.618C909.957 113.57 722.052 81.9457 535.416 81.9457C353.288 81.9457 172.358 112.045 34.9777 172.431ZM33.551 170.548C102.286 140.334 182.77 117.112 272.628 101.544C315.805 94.0652 360.998 88.4287 406.955 84.7935C410.271 84.5289 413.594 84.2737 416.922 84.0278C458.709 80.9528 501.375 79.4993 543.898 79.7017C589.831 79.9226 635.98 82.0795 681.079 86.1131C726.615 90.1841 771.48 96.2065 814.437 104.012C903.784 120.246 984.202 143.863 1053.46 174.209C1088.67 189.643 1120.36 206.605 1147.66 224.632C1174.73 242.407 1197.82 261.426 1216.32 281.159C1234.52 300.574 1248.44 320.866 1257.7 341.473C1266.88 361.921 1271.54 382.843 1271.54 403.661C1271.54 423.817 1267.18 444.013 1258.58 463.699C1249.91 483.571 1236.84 503.101 1219.72 521.751C1184.18 560.49 1131.9 595.203 1064.33 624.901C1064.33 624.904 1063.7 624.079 1063.69 624.082C1063.69 624.085 1064.31 624.913 1064.3 624.913C996.237 654.829 916.673 677.898 827.829 693.485C785.122 700.976 740.424 706.666 694.957 710.391C652.124 713.902 608.26 715.701 564.461 715.744C562.225 715.747 559.989 715.744 557.757 715.738C514.682 715.604 471.394 713.768 428.94 710.279C426.054 710.043 423.168 709.797 420.29 709.544C374.431 705.539 329.243 699.563 285.971 691.782C195.975 675.595 114.943 651.938 45.1527 621.477C9.66904 605.984 -22.2703 588.944 -49.7824 570.817C-76.8367 553.042 -99.9338 534.026 -118.428 514.29C-136.632 494.875 -150.551 474.583 -159.806 453.976C-168.988 433.528 -173.648 412.606 -173.648 391.788C-173.648 371.632 -169.29 351.436 -160.693 331.75C-152.019 311.878 -138.945 292.348 -121.833 273.698C-86.2922 234.959 -34.011 200.247 33.551 170.548Z" fill="#F09819"/>
<path opacity="0.1875" d="M66.1486 186.132C-58.4816 240.913 -127.119 314.078 -127.119 392.146C-127.119 472.336 -55.3052 548.069 75.0972 605.386C209.866 664.624 386.425 694.328 561.787 694.316C729.64 694.306 896.392 667.073 1024.49 612.464C1026.92 611.424 1029.48 610.55 1031.88 609.491C1034.31 608.424 1036.59 607.176 1038.97 606.096C1159.03 551.682 1225.03 479.849 1225.03 403.303C1225.03 323.113 1153.21 247.38 1022.81 190.063C888.073 130.838 711.567 101.133 536.246 101.133C365.151 101.133 195.194 129.406 66.1486 186.132ZM64.7219 184.252C129.537 155.762 205.479 133.894 290.243 119.291C330.972 112.272 373.597 107.003 416.95 103.629C420.057 103.384 423.164 103.147 426.283 102.92C465.409 100.066 505.349 98.7274 545.153 98.9329C588.155 99.157 631.352 101.189 673.569 104.974C716.198 108.796 758.19 114.436 798.408 121.743C882.027 136.938 957.316 159.023 1022.2 187.399C1055.17 201.821 1084.8 217.716 1110.44 234.52C1136.03 251.289 1157.95 269.148 1175.47 287.732C1192.74 306.03 1205.94 325.161 1214.72 344.598C1223.44 363.895 1227.87 383.643 1227.87 403.303C1227.87 422.245 1223.77 441.224 1215.7 459.721C1207.55 478.395 1195.26 496.746 1179.19 514.272C1145.8 550.671 1096.67 583.291 1033.17 611.2C1033.16 611.203 1032.58 610.441 1032.57 610.444C1032.56 610.447 1033.14 611.216 1033.13 611.219C969.322 639.261 894.753 660.898 811.514 675.529C771.488 682.566 729.603 687.914 686.994 691.427C646.854 694.736 605.745 696.445 564.694 696.51C562.597 696.513 560.504 696.513 558.411 696.507C518.046 696.404 477.477 694.714 437.672 691.474C434.966 691.253 432.264 691.026 429.562 690.792C386.45 687.07 343.972 681.496 303.284 674.225C218.696 659.102 142.479 636.955 76.806 608.408C43.4317 593.895 13.3769 577.926 -12.545 560.932C-38.1766 544.206 -60.0514 526.304 -77.5725 507.72C-94.8401 489.423 -108.044 470.291 -116.825 450.851C-125.545 431.554 -129.972 411.806 -129.972 392.146C-129.972 373.204 -125.876 354.225 -117.802 335.728C-109.651 317.054 -97.3665 298.703 -81.2884 281.177C-47.8978 244.781 1.23151 212.161 64.7219 184.252Z" fill="#F09819"/>
<path opacity="0.25" d="M97.3156 199.83C-19.2532 251.068 -83.4508 319.497 -83.4508 392.507C-83.4508 467.502 -16.2812 538.33 105.684 591.944C231.765 647.363 396.948 675.15 561.007 675.134C718.047 675.119 874.052 649.632 993.871 598.527C996.119 597.568 998.531 596.83 1000.75 595.853C1003 594.866 1005.04 593.646 1007.24 592.647C1119.59 541.751 1181.35 474.552 1181.35 402.946C1181.35 327.95 1114.18 257.122 992.211 203.508C866.175 148.108 701.061 120.318 537.059 120.318C377.015 120.321 218.034 146.77 97.3156 199.83ZM95.8929 197.953C156.787 171.187 228.192 150.676 307.859 137.035C346.139 130.48 386.197 125.575 426.946 122.459C429.84 122.232 432.738 122.014 435.641 121.803C472.106 119.17 509.318 117.943 546.401 118.152C586.471 118.382 626.717 120.29 666.052 123.826C705.77 127.396 744.896 132.659 782.367 139.468C860.255 153.624 930.421 174.181 990.923 200.58C1021.65 213.991 1049.26 228.79 1073.22 244.402C1097.35 260.135 1118.07 276.864 1134.62 294.299C1150.95 311.479 1163.44 329.45 1171.74 347.72C1180 365.865 1184.19 384.443 1184.19 402.946C1184.19 420.677 1180.36 438.433 1172.81 455.741C1165.18 473.22 1153.69 490.391 1138.65 506.79C1107.4 540.848 1061.43 571.38 1002.01 597.499C1002 597.503 1001.45 596.799 1001.44 596.805C1001.43 596.809 1001.96 597.521 1001.95 597.527C942.399 623.696 872.83 643.902 795.191 657.581C757.851 664.163 718.774 669.168 679.023 672.47C641.573 675.579 603.223 677.195 564.915 677.282C562.961 677.285 561.007 677.288 559.053 677.282C521.394 677.213 483.544 675.663 446.396 672.672C443.87 672.47 441.348 672.258 438.829 672.041C398.465 668.601 358.697 663.432 320.593 656.669C241.409 642.607 170.008 621.969 108.451 595.339C77.1904 581.807 49.012 566.908 24.6844 551.047C0.487694 535.374 -20.1648 518.585 -36.7129 501.15C-53.0403 483.97 -65.5291 465.999 -73.8359 447.729C-82.0936 429.584 -86.2878 411.007 -86.2878 392.504C-86.2878 374.772 -82.4574 357.016 -74.9028 339.709C-67.2746 322.233 -55.7833 305.062 -40.7396 288.66C-9.50334 254.604 36.4742 224.072 95.8929 197.953Z" fill="#F09819"/>
<path opacity="0.3125" d="M128.487 213.53C19.9833 261.224 -39.7748 324.915 -39.7748 392.868C-39.7748 462.669 22.7509 528.595 136.278 578.498C253.673 630.101 407.479 655.968 560.23 655.946C706.453 655.928 851.716 632.184 963.26 584.586C965.325 583.708 967.593 583.108 969.629 582.211C971.686 581.309 973.501 580.111 975.52 579.196C1080.16 531.813 1137.67 469.251 1137.67 402.588C1137.67 332.787 1075.15 266.861 961.621 216.957C844.284 165.379 690.563 139.509 537.881 139.509C388.883 139.506 240.869 164.131 128.487 213.53ZM127.064 211.657C184.038 186.614 250.905 167.461 325.474 154.778C361.305 148.684 398.8 144.143 436.937 141.289C439.619 141.081 442.304 140.881 444.994 140.688C478.798 138.276 513.284 137.165 547.648 137.377C584.787 137.61 622.081 139.394 658.534 142.683C695.342 146.004 731.598 150.885 766.33 157.196C838.491 170.309 903.531 189.341 959.65 213.767C988.127 226.169 1013.73 239.867 1035.99 254.287C1058.68 268.983 1078.18 284.582 1093.76 300.869C1109.15 316.932 1120.92 333.742 1128.76 350.841C1136.55 367.835 1140.51 385.239 1140.51 402.584C1140.51 419.102 1136.95 435.641 1129.91 451.757C1122.81 468.038 1112.11 484.029 1098.1 499.304C1069 531.022 1026.18 559.463 970.835 583.793C970.823 583.799 970.32 583.155 970.308 583.161C970.296 583.167 970.774 583.821 970.762 583.827C915.472 608.125 850.898 626.893 778.864 639.622C744.206 645.747 707.945 650.416 671.047 653.5C636.291 656.407 600.697 657.932 565.136 658.044C563.321 658.05 561.51 658.05 559.695 658.05C524.747 658.013 489.61 656.606 455.116 653.867C452.77 653.681 450.431 653.488 448.093 653.289C410.479 650.136 373.414 645.364 337.897 639.112C264.117 626.114 197.537 606.983 140.092 582.271C110.941 569.718 84.6879 555.856 61.9137 541.162C39.1887 526.5 19.7217 510.867 4.14243 494.58C-11.2447 478.517 -23.0181 461.707 -30.8548 444.608C-38.6506 427.614 -42.6118 410.21 -42.6118 392.865C-42.6118 376.347 -39.043 359.808 -32.0117 343.692C-24.9068 327.412 -14.2044 311.42 -0.194935 296.145C28.8951 264.427 71.7167 235.986 127.064 211.657Z" fill="#F09819"/>
<path opacity="0.375" d="M159.653 227.231C59.2117 271.38 3.89723 330.334 3.89723 393.226C3.89723 457.832 61.7749 518.853 166.869 565.05C275.576 612.834 418.005 636.784 559.454 636.759C694.864 636.734 829.375 614.736 932.649 570.643C934.526 569.843 936.651 569.382 938.503 568.57C940.371 567.748 941.958 566.578 943.793 565.744C1040.72 521.878 1094 463.951 1094 402.227C1094 337.62 1036.12 276.599 931.026 230.402C822.384 182.649 680.061 158.694 538.699 158.694C400.746 158.694 263.709 181.492 159.653 227.231ZM158.235 225.357C211.289 202.036 273.614 184.24 343.093 172.522C376.476 166.888 411.411 162.78 446.936 160.119C449.405 159.935 451.878 159.749 454.36 159.571C485.502 157.38 517.262 156.381 548.903 156.599C583.111 156.836 617.454 158.498 651.02 161.538C684.918 164.607 718.304 169.111 750.297 174.925C816.726 186.997 876.64 204.501 928.385 226.951C954.618 238.342 978.202 250.941 998.772 264.168C1020.01 277.826 1038.31 292.298 1052.91 307.437C1067.36 322.382 1078.42 338.034 1085.78 353.96C1093.12 369.802 1096.85 386.036 1096.85 402.224C1096.85 417.527 1093.54 432.846 1087.03 447.776C1080.45 462.859 1070.54 477.67 1057.56 491.822C1030.62 521.2 990.948 547.552 939.672 570.092C939.656 570.098 939.194 569.516 939.182 569.522C939.165 569.529 939.599 570.126 939.582 570.132C888.548 592.557 828.974 609.893 762.54 621.67C730.568 627.341 697.116 631.667 663.076 634.54C631.014 637.244 598.179 638.679 565.361 638.813C563.689 638.819 562.013 638.822 560.341 638.822C528.099 638.819 495.681 637.556 463.844 635.063C461.681 634.895 459.519 634.717 457.36 634.537C422.494 631.667 388.139 627.3 355.202 621.558C286.826 609.622 225.065 592.003 171.737 569.205C144.695 557.633 120.331 544.835 99.1431 531.281C77.861 517.664 59.6082 503.151 45.0019 488.013C30.5509 473.067 19.497 457.415 12.1304 441.489C4.79659 425.647 1.06836 409.413 1.06836 393.226C1.06836 377.922 4.37145 362.603 10.8877 347.673C17.4653 332.591 27.3786 317.779 40.3579 303.627C67.2895 274.249 106.959 247.897 158.235 225.357Z" fill="#F09819"/>
<path opacity="0.4375" d="M190.824 240.928C98.4477 281.535 47.5728 335.75 47.5728 393.584C47.5728 452.995 100.806 509.115 197.467 551.601C297.487 595.567 428.536 617.599 558.685 617.568C683.278 617.537 807.046 597.288 902.05 556.699C903.739 555.981 905.721 555.657 907.389 554.925C909.069 554.188 910.431 553.039 912.082 552.289C1001.29 511.941 1050.34 458.648 1050.34 401.866C1050.34 342.454 997.104 286.335 900.444 243.848C800.501 199.917 669.575 177.881 539.524 177.881C412.613 177.881 286.544 198.855 190.824 240.928ZM189.405 239.061C238.539 217.464 296.326 201.025 360.708 190.265C391.646 185.096 424.014 181.361 456.927 178.952C459.187 178.787 461.448 178.619 463.713 178.46C492.194 176.49 521.227 175.606 550.145 175.824C581.422 176.067 612.814 177.601 643.498 180.393C674.485 183.213 705.006 187.333 734.251 192.653C794.954 203.686 849.741 219.658 897.104 240.138C921.092 250.521 942.656 262.018 961.535 274.056C981.325 286.677 998.412 300.02 1012.05 314.01C1025.56 327.841 1035.9 342.329 1042.79 357.085C1049.66 371.775 1053.16 386.836 1053.16 401.866C1053.16 415.955 1050.12 430.057 1044.12 443.795C1038.07 457.68 1028.95 471.315 1017 484.34C992.211 511.377 955.693 535.641 908.489 556.388C908.473 556.394 908.052 555.872 908.035 555.881C908.019 555.89 908.403 556.426 908.387 556.435C861.612 576.986 807.034 592.89 746.2 603.715C716.91 608.928 686.271 612.918 655.087 615.576C625.719 618.081 595.64 619.423 565.565 619.579C564.032 619.585 562.499 619.591 560.966 619.591C531.434 619.619 501.735 618.499 472.547 616.258C470.564 616.105 468.586 615.946 466.607 615.785C434.488 613.198 402.843 609.233 372.49 604.001C309.518 593.13 252.573 577.017 203.362 556.136C178.429 545.545 155.949 533.811 136.356 521.396C116.513 508.822 99.4779 495.433 85.8445 481.443C72.3337 467.611 61.9952 453.123 55.0988 438.367C48.2269 423.677 44.7317 408.616 44.7317 393.587C44.7317 379.497 47.7731 365.395 53.7661 351.657C59.8204 337.773 68.9407 324.137 80.8858 311.112C105.683 284.075 142.201 259.811 189.405 239.061Z" fill="#F09819"/>
<path opacity="0.5" d="M221.991 254.629C137.676 291.691 91.2407 341.168 91.2407 393.945C91.2407 448.162 139.826 499.376 228.053 538.156C319.387 578.302 439.058 598.418 557.9 598.38C671.681 598.346 784.697 579.84 871.431 542.756C872.932 542.118 874.771 541.934 876.255 541.281C877.751 540.624 878.88 539.501 880.347 538.838C961.849 502.003 1006.65 453.347 1006.65 401.505C1006.65 347.287 958.068 296.073 869.841 257.293C778.598 217.184 659.065 197.069 540.334 197.069C424.476 197.069 309.379 216.216 221.991 254.629ZM220.576 252.765C265.785 232.892 319.035 217.81 378.323 208.012C406.812 203.303 436.614 199.945 466.922 197.785C468.97 197.638 471.018 197.486 473.07 197.349C498.89 195.6 525.196 194.828 551.396 195.052C579.742 195.298 608.182 196.711 635.984 199.254C664.061 201.822 691.712 205.566 718.218 210.384C773.193 220.377 822.85 234.822 865.835 253.328C887.579 262.699 907.128 273.095 924.314 283.944C942.66 295.525 958.534 307.741 971.199 320.583C983.769 333.297 993.396 346.624 999.814 360.21C1006.22 373.748 1009.49 387.639 1009.49 401.508C1009.49 414.387 1006.71 427.266 1001.24 439.818C995.706 452.507 987.375 464.959 976.464 476.861C953.821 501.558 920.455 523.73 877.322 542.691C877.302 542.7 876.926 542.236 876.905 542.246C876.885 542.255 877.224 542.734 877.204 542.744C834.685 561.421 785.106 575.893 729.877 585.766C703.272 590.525 675.446 594.172 647.116 596.619C620.438 598.922 593.118 600.173 565.79 600.35C564.396 600.36 563.006 600.366 561.612 600.369C534.79 600.431 507.806 599.451 481.271 597.459C479.468 597.322 477.669 597.182 475.87 597.039C446.502 594.736 417.56 591.175 389.794 586.451C332.227 576.64 280.101 562.037 235.003 543.074C212.184 533.459 191.588 522.796 173.581 511.517C155.177 499.989 139.36 487.72 126.696 474.879C114.125 462.164 104.498 448.837 98.0799 435.252C91.6699 421.713 88.4077 407.823 88.4077 393.954C88.4077 381.075 91.1835 368.196 96.6573 355.644C102.188 342.955 110.52 330.502 121.43 318.601C144.078 293.898 177.444 271.722 220.576 252.765Z" fill="#F09819"/>
<path opacity="0.5625" d="M253.162 268.33C176.908 301.847 134.917 346.587 134.917 394.306C134.917 443.328 178.858 489.64 258.648 524.71C341.294 561.038 449.589 579.236 557.127 579.195C660.095 579.155 762.364 562.395 840.825 528.816C842.137 528.255 843.834 528.212 845.134 527.642C846.442 527.067 847.345 525.971 848.629 525.389C922.421 492.071 962.986 448.05 962.986 401.15C962.986 352.127 919.044 305.815 839.255 270.742C756.706 234.458 648.571 216.257 541.16 216.257C436.34 216.257 332.219 233.577 253.162 268.33ZM251.747 266.465C293.036 248.317 341.748 234.588 395.938 225.752C421.979 221.507 449.217 218.522 476.917 216.611C478.753 216.484 480.588 216.35 482.432 216.229C505.59 214.7 529.17 214.044 552.647 214.271C578.062 214.52 603.55 215.808 628.471 218.105C653.636 220.424 678.418 223.785 702.185 228.108C751.429 237.063 795.963 249.979 834.57 266.509C854.066 274.872 871.607 284.162 887.093 293.826C903.992 304.371 918.656 315.46 930.347 327.15C941.982 338.747 950.89 350.913 956.838 363.331C962.786 375.719 965.815 388.436 965.815 401.15C965.815 412.815 963.301 424.474 958.35 435.837C953.342 447.328 945.804 458.604 935.928 469.379C915.435 491.735 885.224 511.819 846.16 528.99C846.139 528.999 845.804 528.598 845.779 528.607C845.759 528.616 846.049 529.04 846.025 529.049C807.765 545.853 763.182 558.89 713.554 567.81C689.631 572.112 664.617 575.423 639.14 577.655C615.156 579.756 590.591 580.92 566.01 581.116C564.76 581.125 563.509 581.135 562.258 581.138C538.143 581.231 513.876 580.397 489.999 578.651C488.376 578.533 486.761 578.408 485.142 578.284C458.521 576.267 432.289 573.105 407.107 568.89C354.944 560.145 307.638 547.051 266.656 530.001C245.946 521.368 227.236 511.772 210.822 501.626C193.857 491.141 179.259 479.992 167.567 468.302C155.933 456.705 147.025 444.539 141.077 432.121C135.129 419.734 132.1 407.016 132.1 394.302C132.1 382.637 134.614 370.978 139.565 359.615C144.573 348.124 152.111 336.848 161.991 326.073C182.472 303.72 212.686 283.636 251.747 266.465Z" fill="#F09819"/>
<path opacity="0.625" d="M284.329 282.03C216.141 312.002 178.589 352.005 178.589 394.667C178.589 438.492 217.887 479.902 289.238 511.268C363.198 543.777 460.116 560.058 556.351 560.011C648.502 559.967 740.024 544.95 810.218 514.879C811.343 514.399 812.9 514.493 814.012 514.004C815.132 513.512 815.807 512.438 816.906 511.94C882.984 482.14 919.314 442.753 919.314 400.792C919.314 356.967 880.017 315.557 808.665 284.19C734.816 251.728 638.074 235.447 541.982 235.447C448.207 235.444 355.055 250.941 284.329 282.03ZM282.918 280.169C320.286 263.742 364.457 251.373 413.554 243.499C437.145 239.714 461.816 237.103 486.908 235.444C488.535 235.338 490.158 235.22 491.785 235.117C512.282 233.81 533.135 233.266 553.89 233.496C576.374 233.751 598.911 234.915 620.945 236.96C643.2 239.027 665.116 242.011 686.14 245.833C729.657 253.748 769.065 265.136 803.289 279.693C820.541 287.044 836.071 295.233 849.859 303.708C865.316 313.21 878.766 323.176 889.484 333.717C900.178 344.196 908.371 355.205 913.849 366.45C919.335 377.686 922.131 389.229 922.131 400.785C922.131 411.237 919.883 421.679 915.451 431.853C910.967 442.146 904.217 452.242 895.375 461.894C877.032 481.909 849.974 499.902 814.981 515.283C814.956 515.292 814.662 514.95 814.637 514.963C814.613 514.972 814.854 515.339 814.83 515.349C780.826 530.282 741.242 541.885 697.218 549.852C675.981 553.699 653.775 556.668 631.157 558.688C609.866 560.587 588.057 561.66 566.219 561.881C565.107 561.894 563.999 561.9 562.887 561.906C541.483 562.034 519.935 561.34 498.706 559.846C497.267 559.743 495.832 559.637 494.393 559.528C470.528 557.754 446.997 555.034 424.395 551.331C377.641 543.646 335.15 532.062 298.281 516.93C279.68 509.276 262.854 500.748 248.031 491.738C232.505 482.301 219.125 472.27 208.407 461.729C197.712 451.249 189.52 440.241 184.042 428.996C178.556 417.76 175.76 406.217 175.76 394.66C175.76 384.209 178.008 373.767 182.44 363.593C186.924 353.3 193.674 343.204 202.516 333.552C220.867 313.543 247.925 295.55 282.918 280.169Z" fill="#F09819"/>
<path opacity="0.6875" d="M315.499 295.728C255.373 322.155 222.264 357.421 222.264 395.024C222.264 433.655 256.914 470.163 319.832 497.82C385.105 526.509 470.646 540.873 555.574 540.82C636.912 540.77 717.687 527.499 779.607 500.932C780.543 500.534 781.958 500.764 782.886 500.356C783.818 499.945 784.263 498.9 785.179 498.483C843.547 472.196 875.638 437.446 875.638 400.428C875.638 361.797 840.988 325.289 778.07 297.632C712.92 268.996 627.571 254.629 542.795 254.629C460.07 254.632 377.894 268.301 315.499 295.728ZM314.089 293.87C347.536 279.167 387.169 268.155 431.168 261.243C452.311 257.922 474.419 255.678 496.903 254.274C498.318 254.187 499.728 254.087 501.146 254.003C518.982 252.917 537.104 252.488 555.145 252.721C574.697 252.979 594.283 254.019 613.435 255.818C632.783 257.635 651.825 260.237 670.107 263.564C707.892 270.44 742.174 280.297 772.02 292.88C787.027 299.223 800.55 306.3 812.634 313.593C826.652 322.052 838.883 330.894 848.633 340.287C858.391 349.649 865.864 359.497 870.871 369.572C875.891 379.656 878.459 390.029 878.459 400.428C878.459 409.668 876.472 418.887 872.56 427.872C868.603 436.97 862.642 445.887 854.83 454.411C838.638 472.087 814.731 487.991 783.81 501.582C783.781 501.595 783.532 501.312 783.503 501.324C783.475 501.337 783.671 501.642 783.646 501.654C753.902 514.714 719.314 524.885 680.891 531.9C662.335 535.292 642.946 537.919 623.181 539.728C604.585 541.427 585.53 542.407 566.44 542.65C565.471 542.663 564.498 542.672 563.529 542.681C544.831 542.84 526.001 542.289 507.43 541.044C506.171 540.96 504.915 540.87 503.656 540.78C482.538 539.289 461.714 536.973 441.699 533.777C400.349 527.157 362.674 517.079 329.921 503.864C313.43 497.191 298.489 489.734 285.26 481.856C271.169 473.465 259.011 464.555 249.261 455.162C239.503 445.8 232.031 435.952 227.023 425.877C222.003 415.793 219.436 405.42 219.436 395.021C219.436 385.781 221.422 376.562 225.335 367.577C229.292 358.482 235.252 349.562 243.064 341.037C259.261 323.365 283.167 307.461 314.089 293.87Z" fill="#F09819"/>
<path opacity="0.75" d="M346.666 309.428C294.605 332.313 265.932 362.84 265.932 395.382C265.932 428.819 295.938 460.421 350.423 484.371C407.009 509.242 481.173 521.688 554.797 521.632C625.319 521.576 695.346 510.051 748.997 486.992C749.745 486.671 751.016 487.042 751.756 486.715C752.504 486.385 752.721 485.364 753.453 485.031C804.107 462.261 831.962 432.143 831.962 400.067C831.962 366.63 801.956 335.027 747.472 311.078C691.021 286.263 617.065 273.817 543.608 273.817C471.934 273.817 400.729 285.662 346.666 309.428ZM345.26 307.573C374.787 294.595 409.882 284.937 448.784 278.986C467.478 276.126 487.019 274.252 506.894 273.107C508.096 273.038 509.294 272.958 510.5 272.889C525.674 272.024 541.07 271.706 556.387 271.946C573.009 272.208 589.647 273.126 605.913 274.676C622.351 276.241 638.523 278.466 654.066 281.292C686.124 287.128 715.279 295.457 740.747 306.067C753.51 311.398 765.03 317.365 775.409 323.481C787.992 330.897 799.001 338.616 807.778 346.861C816.595 355.105 823.353 363.792 827.886 372.696C832.445 381.629 834.775 390.829 834.775 400.07C834.775 408.096 833.05 416.098 829.661 423.895C826.227 431.794 821.055 439.531 814.282 446.932C800.24 462.267 779.485 476.083 752.635 487.882C752.606 487.894 752.398 487.673 752.365 487.686C752.336 487.698 752.484 487.947 752.455 487.96C726.971 499.146 697.378 507.885 664.559 513.948C648.69 516.883 632.109 519.174 615.201 520.767C599.299 522.264 583.004 523.154 566.656 523.419C565.827 523.431 564.997 523.444 564.167 523.453C548.179 523.646 532.064 523.238 516.145 522.242C515.066 522.174 513.995 522.102 512.916 522.031C494.544 520.823 476.431 518.909 458.999 516.226C423.054 510.667 390.199 502.102 361.563 490.801C347.185 485.109 334.12 478.725 322.485 471.978C309.825 464.636 298.894 456.842 290.117 448.598C281.299 440.353 274.542 431.666 270.008 422.762C265.45 413.829 263.12 404.629 263.12 395.389C263.12 387.362 264.845 379.36 268.234 371.563C271.668 363.664 276.839 355.927 283.613 348.526C297.655 333.188 318.41 319.375 345.26 307.573Z" fill="#F09819"/>
<path opacity="0.8125" d="M377.832 323.129C333.833 342.469 309.604 368.258 309.604 395.744C309.604 423.985 334.962 450.686 381.013 470.926C428.912 491.981 491.699 502.507 554.02 502.445C613.729 502.386 673.009 492.607 718.385 473.048C718.95 472.809 720.074 473.316 720.63 473.073C721.19 472.827 721.177 471.828 721.725 471.579C764.669 452.326 788.29 426.842 788.29 399.709C788.29 371.467 762.932 344.766 716.881 324.526C669.125 303.537 606.567 293.008 544.43 293.008C483.801 293.004 423.569 303.026 377.832 323.129ZM376.43 321.274C402.033 310.02 432.591 301.719 466.398 296.73C482.644 294.333 499.617 292.821 516.889 291.937C517.878 291.887 518.863 291.825 519.857 291.775C532.37 291.131 545.039 290.928 557.638 291.168C571.329 291.436 585.015 292.226 598.399 293.53C611.926 294.847 625.233 296.689 638.032 299.021C664.359 303.817 688.388 310.617 709.478 319.254C719.992 323.574 729.521 328.423 738.183 333.366C749.34 339.73 759.118 346.335 766.922 353.428C774.8 360.555 780.846 368.081 784.905 375.815C789.001 383.596 791.098 391.626 791.098 399.706C791.098 406.519 789.639 413.3 786.769 419.908C783.858 426.609 779.48 433.17 773.737 439.444C761.845 452.438 744.242 464.163 721.464 474.175C721.431 474.191 721.263 474.026 721.235 474.041C721.206 474.057 721.304 474.247 721.272 474.259C700.043 483.571 675.449 490.876 648.232 495.99C635.044 498.47 621.276 500.419 607.225 501.801C594.013 503.095 580.477 503.895 566.873 504.181C566.182 504.197 565.495 504.209 564.804 504.222C551.526 504.446 538.13 504.181 524.865 503.434C523.965 503.385 523.074 503.329 522.179 503.276C506.555 502.351 491.151 500.842 476.303 498.666C445.762 494.172 417.727 487.113 393.203 477.729C380.935 473.017 369.746 467.708 359.71 462.09C348.481 455.8 338.776 449.121 330.972 442.028C323.094 434.9 317.048 427.375 312.989 419.64C308.893 411.859 306.795 403.829 306.795 395.75C306.795 388.937 308.255 382.155 311.125 375.547C314.035 368.847 318.413 362.289 324.157 356.011C336.053 343.014 353.652 331.287 376.43 321.274Z" fill="#F09819"/>
<path opacity="0.875" d="M409.003 336.827C373.07 352.622 353.28 373.674 353.28 396.102C353.28 419.149 373.994 440.944 411.608 457.477C450.819 474.714 502.23 483.322 553.244 483.254C602.136 483.189 650.668 475.156 687.779 459.105C688.155 458.946 689.14 459.591 689.508 459.429C689.88 459.264 689.639 458.293 690.007 458.125C725.237 442.385 744.622 421.539 744.622 399.345C744.622 376.298 723.909 354.502 686.295 337.969C647.239 320.801 596.074 312.189 545.256 312.189C495.665 312.192 446.404 320.387 409.003 336.827ZM407.601 334.978C429.284 325.448 455.304 318.504 484.018 314.474C497.815 312.538 512.217 311.383 526.889 310.767C527.665 310.733 528.442 310.692 529.223 310.658C539.075 310.235 549.017 310.144 558.893 310.39C569.653 310.661 580.388 311.33 590.89 312.382C601.506 313.447 611.943 314.909 621.999 316.746C642.599 320.502 661.502 325.775 678.213 332.435C686.483 335.747 694.03 339.466 700.967 343.244C710.705 348.548 719.248 354.047 726.079 359.992C733.021 366.005 738.347 372.37 741.937 378.934C745.571 385.563 747.435 392.42 747.435 399.345C747.435 404.944 746.237 410.509 743.891 415.924C741.503 421.427 737.918 426.808 733.205 431.959C723.463 442.613 709.012 452.249 690.306 460.471C690.273 460.487 690.146 460.384 690.113 460.4C690.081 460.415 690.134 460.549 690.097 460.565C673.128 468.007 653.53 473.876 631.917 478.038C621.415 480.061 610.459 481.673 599.262 482.84C588.744 483.936 577.964 484.642 567.106 484.953C566.558 484.969 566.011 484.984 565.459 484.997C554.887 485.255 544.209 485.134 533.597 484.633C532.882 484.598 532.17 484.561 531.451 484.527C518.578 483.892 505.88 482.778 493.616 481.113C468.479 477.68 445.264 472.13 424.853 464.664C414.694 460.932 405.377 456.702 396.948 452.208C387.141 446.976 378.671 441.405 371.836 435.461C364.894 429.447 359.568 423.083 355.978 416.519C352.344 409.889 350.48 403.033 350.48 396.108C350.48 390.509 351.678 384.944 354.024 379.528C356.412 374.026 359.997 368.644 364.71 363.493C374.448 352.837 388.895 343.201 407.601 334.978Z" fill="#F09819"/>
<path opacity="0.9375" d="M440.17 350.527C412.298 362.777 396.948 379.092 396.948 396.462C396.948 414.315 413.018 431.209 442.193 444.035C472.718 457.452 512.748 464.144 552.463 464.072C590.542 464.004 628.327 457.714 657.164 445.168C657.352 445.087 658.194 445.871 658.378 445.79C658.566 445.709 658.096 444.76 658.276 444.676C685.796 432.454 700.942 416.242 700.942 398.99C700.942 381.137 684.872 364.243 655.696 351.417C625.339 338.071 585.567 331.38 546.069 331.38C507.528 331.38 469.24 337.751 440.17 350.527ZM438.772 348.678C456.534 340.869 478.012 335.283 501.633 332.217C512.981 330.745 524.816 329.93 536.879 329.596C537.447 329.581 538.008 329.559 538.576 329.544C545.767 329.341 552.982 329.366 560.136 329.615C567.964 329.889 575.748 330.434 583.364 331.24C591.07 332.055 598.636 333.138 605.954 334.474C620.826 337.191 634.602 340.932 646.932 345.622C652.957 347.922 658.529 350.499 663.733 353.132C672.073 357.353 679.358 361.769 685.216 366.565C691.217 371.461 695.828 376.665 698.947 382.059C702.119 387.536 703.751 393.223 703.751 398.987C703.751 403.375 702.818 407.717 700.987 411.947C699.123 416.254 696.327 420.453 692.652 424.48C685.06 432.793 673.761 440.337 659.13 446.771C659.094 446.786 659.012 446.746 658.975 446.761C658.938 446.777 658.946 446.852 658.91 446.87C646.196 452.438 631.594 456.877 615.585 460.082C607.765 461.651 599.622 462.921 591.278 463.873C583.454 464.766 575.429 465.383 567.314 465.716C566.905 465.731 566.497 465.747 566.092 465.762C558.231 466.052 550.267 466.074 542.308 465.825C541.773 465.809 541.241 465.787 540.706 465.769C530.576 465.426 520.589 464.707 510.908 463.549C491.176 461.181 472.776 457.141 456.485 451.589C448.44 448.837 440.983 445.697 434.165 442.314C425.776 438.15 418.54 433.677 412.682 428.881C406.681 423.985 402.07 418.781 398.951 413.388C395.779 407.91 394.147 402.224 394.147 396.459C394.147 392.071 395.08 387.729 396.911 383.5C398.775 379.192 401.571 374.993 405.246 370.966C412.842 362.659 424.137 355.112 438.772 348.678Z" fill="#F09819"/>
<path opacity="0.25" d="M546.891 350.568C519.395 350.568 492.079 355.112 471.341 364.228C451.535 372.936 440.624 384.511 440.624 396.824C440.624 409.482 452.046 421.47 472.788 430.59C515.581 449.401 584.562 449.687 626.558 431.228L627.257 432.149L626.558 431.228C646.364 422.519 657.275 410.944 657.275 398.632C657.275 385.974 645.853 373.985 625.11 364.866C603.448 355.342 575.074 350.568 546.891 350.568ZM551.028 447.023C550.672 447.023 550.325 447.023 549.969 447.02C520.421 446.898 492.517 441.719 471.394 432.432C449.748 422.918 437.828 410.272 437.828 396.82C437.828 383.714 449.233 371.483 469.943 362.379C490.436 353.372 517.723 348.426 546.875 348.426C547.23 348.426 547.578 348.426 547.934 348.429C577.481 348.551 605.386 353.73 626.509 363.017C648.154 372.532 660.075 385.177 660.075 398.629C660.075 411.735 648.67 423.966 627.96 433.07C607.467 442.077 580.179 447.023 551.028 447.023Z" fill="#F09819"/>
</g>
</g>
</svg>
