<svg width="773" height="782" viewBox="0 0 773 782" fill="none" xmlns="http://www.w3.org/2000/svg">
<path d="M686.813 757.426L215.327 487.11C200.818 478.789 189.052 460.363 189.052 445.957V49.3119C189.052 34.8998 200.818 29.9657 215.327 38.2871L686.813 308.603C701.321 316.925 713.087 335.351 713.087 349.756V746.402C713.087 760.814 701.327 765.748 686.813 757.426Z" fill="#FFD39A"/>
<path d="M746.589 274.692L275.103 4.37529C260.595 -3.94607 248.829 0.994338 248.829 15.4001V412.045C248.829 426.457 260.595 444.883 275.103 453.198L746.589 723.515C761.097 731.836 772.864 726.895 772.864 712.49V315.845C772.864 301.439 761.104 283.013 746.589 274.692Z" fill="url(#paint0_linear)"/>
<path d="M746.002 275.03L274.515 4.7139C260.007 -3.60746 248.241 1.33295 248.241 15.7387V412.384C248.241 426.796 260.007 445.222 274.515 453.537L746.002 723.853C760.51 732.174 772.276 727.234 772.276 712.828V316.183C772.276 301.777 760.51 283.352 746.002 275.03Z" fill="url(#paint1_linear)"/>
<path d="M745.408 275.362L273.922 5.04608C259.414 -3.27528 247.647 1.66513 247.647 16.0709V412.716C247.647 427.128 259.414 445.554 273.922 453.869L745.408 724.192C759.916 732.513 771.682 727.573 771.682 713.167V316.522C771.682 302.11 759.916 283.684 745.408 275.362Z" fill="url(#paint2_linear)"/>
<path d="M744.814 275.701L273.328 5.38464C258.819 -2.93672 247.053 2.00369 247.053 16.4095V413.055C247.053 427.467 258.819 445.893 273.328 454.208L744.814 724.524C759.322 732.845 771.088 727.905 771.088 713.499V316.854C771.088 302.448 759.328 284.022 744.814 275.701Z" fill="url(#paint3_linear)"/>
<path d="M744.225 276.04L272.739 5.72375C258.231 -2.5976 246.464 2.3428 246.464 16.7486V413.394C246.464 427.806 258.231 446.232 272.739 454.547L744.225 724.863C758.733 733.184 770.499 728.244 770.499 713.838V317.193C770.499 302.781 758.733 284.355 744.225 276.04Z" fill="url(#paint4_linear)"/>
<path d="M743.631 276.372L272.144 6.05614C257.636 -2.26522 245.87 2.67518 245.87 17.081V413.726C245.87 428.138 257.636 446.564 272.144 454.879L743.631 725.195C758.139 733.517 769.905 728.576 769.905 714.17V317.525C769.905 303.12 758.145 284.694 743.631 276.372Z" fill="url(#paint5_linear)"/>
<path d="M743.043 276.711L271.557 6.39503C257.048 -1.92632 245.282 3.01408 245.282 17.4199V414.065C245.282 428.477 257.048 446.903 271.557 455.218L743.043 725.534C757.551 733.856 769.317 728.915 769.317 714.509V317.864C769.317 303.452 757.551 285.026 743.043 276.711Z" fill="url(#paint6_linear)"/>
<path d="M742.448 277.044L270.962 6.72723C256.454 -1.59412 244.688 3.34628 244.688 17.7521V414.397C244.688 428.809 256.454 447.235 270.962 455.55L742.448 725.866C756.956 734.188 768.722 729.247 768.722 714.842V318.197C768.722 303.791 756.956 285.365 742.448 277.044Z" fill="url(#paint7_linear)"/>
<path d="M741.854 277.382L270.367 7.06596C255.859 -1.25539 244.093 3.68501 244.093 18.0908V414.736C244.093 429.148 255.859 447.574 270.367 455.889L741.854 726.205C756.362 734.527 768.128 729.586 768.128 715.18V318.535C768.128 304.123 756.368 285.697 741.854 277.382Z" fill="url(#paint8_linear)"/>
<path d="M741.266 277.715L269.779 7.39833C255.271 -0.923028 243.505 4.01738 243.505 18.4232V415.068C243.505 429.48 255.271 447.906 269.779 456.221L741.266 726.538C755.774 734.859 767.54 729.918 767.54 715.513V318.868C767.54 304.462 755.774 286.036 741.266 277.715Z" fill="url(#paint9_linear)"/>
<path d="M740.671 278.053L269.185 7.73712C254.677 -0.584237 242.911 4.35617 242.911 18.762V415.407C242.911 429.819 254.677 448.245 269.185 456.56L740.671 726.876C755.179 735.198 766.946 730.257 766.946 715.851V319.206C766.946 304.794 755.186 286.368 740.671 278.053Z" fill="url(#paint10_linear)"/>
<path d="M740.083 278.386L268.597 8.06946C254.089 -0.251901 242.323 4.68851 242.323 19.0943V415.739C242.323 430.152 254.089 448.577 268.597 456.892L740.083 727.209C754.591 735.53 766.357 730.59 766.357 716.184V319.539C766.357 305.133 754.591 286.707 740.083 278.386Z" fill="url(#paint11_linear)"/>
<path d="M739.489 278.725L268.003 8.40822C253.495 0.0868597 241.728 5.02727 241.728 19.4331V416.078C241.728 430.49 253.495 448.916 268.003 457.231L739.489 727.547C753.997 735.869 765.763 730.928 765.763 716.523V319.878C765.763 305.465 753.997 287.04 739.489 278.725Z" fill="url(#paint12_linear)"/>
<path d="M738.894 279.057L267.408 8.74055C252.9 0.419196 241.134 5.3596 241.134 19.7654V416.41C241.134 430.823 252.9 449.248 267.408 457.563L738.894 727.88C753.402 736.201 765.169 731.261 765.169 716.855V320.21C765.169 305.804 753.409 287.378 738.894 279.057Z" fill="url(#paint13_linear)"/>
<path d="M738.306 279.395L266.82 9.07915C252.312 0.757789 240.546 5.6982 240.546 20.104V416.749C240.546 431.161 252.312 449.587 266.82 457.902L738.306 728.218C752.814 736.54 764.581 731.599 764.581 717.194V320.549C764.581 306.143 752.814 287.717 738.306 279.395Z" fill="url(#paint14_linear)"/>
<path d="M737.712 279.728L266.225 9.41151C251.717 1.09016 239.951 6.03056 239.951 20.4364V417.081C239.951 431.494 251.717 449.919 266.225 458.234L737.712 728.551C752.22 736.872 763.986 731.932 763.986 717.526V320.881C763.986 306.475 752.226 288.049 737.712 279.728Z" fill="url(#paint15_linear)"/>
<path d="M737.124 280.067L265.638 9.75043C251.13 1.42907 239.363 6.36948 239.363 20.7753V417.42C239.363 431.832 251.13 450.258 265.638 458.573L737.124 728.89C751.632 737.211 763.398 732.271 763.398 717.865V321.22C763.398 306.814 751.632 288.388 737.124 280.067Z" fill="url(#paint16_linear)"/>
<path d="M736.529 280.399L265.043 10.0827C250.535 1.7613 238.769 6.7017 238.769 21.1075V417.753C238.769 432.165 250.535 450.591 265.043 458.906L736.529 729.222C751.037 737.543 762.804 732.603 762.804 718.197V321.552C762.804 307.146 751.037 288.72 736.529 280.399Z" fill="url(#paint17_linear)"/>
<path d="M735.935 280.738L264.449 10.4214C249.941 2.1 238.175 7.0404 238.175 21.4462V418.091C238.175 432.503 249.941 450.929 264.449 459.244L735.935 729.561C750.443 737.882 762.209 732.942 762.209 718.536V321.891C762.209 307.485 750.45 289.059 735.935 280.738Z" fill="url(#paint18_linear)"/>
<path d="M735.347 281.076L263.861 10.7601C249.353 2.43877 237.587 7.37918 237.587 21.785V418.43C237.587 432.842 249.353 451.268 263.861 459.583L735.347 729.899C749.855 738.221 761.621 733.28 761.621 718.875V322.229C761.621 307.817 749.855 289.391 735.347 281.076Z" fill="url(#paint19_linear)"/>
<path d="M734.753 281.409L263.267 11.0925C248.759 2.77109 236.992 7.7115 236.992 22.1173V418.762C236.992 433.174 248.759 451.6 263.267 459.915L734.753 730.232C749.261 738.553 761.027 733.613 761.027 719.207V322.562C761.027 308.156 749.267 289.73 734.753 281.409Z" fill="url(#paint20_linear)"/>
<path d="M734.165 281.748L262.679 11.4313C248.171 3.10992 236.405 8.05032 236.405 22.4561V419.101C236.405 433.513 248.171 451.939 262.679 460.254L734.165 730.57C748.673 738.892 760.439 733.951 760.439 719.546V322.901C760.439 308.488 748.673 290.063 734.165 281.748Z" fill="url(#paint21_linear)"/>
<path d="M733.571 282.08L262.085 11.7636C247.577 3.44221 235.81 8.38261 235.81 22.7884V419.433C235.81 433.846 247.577 452.272 262.085 460.586L733.571 730.903C748.079 739.224 759.845 734.284 759.845 719.878V323.233C759.845 308.827 748.079 290.401 733.571 282.08Z" fill="url(#paint22_linear)"/>
<path d="M732.976 282.419L261.49 12.1023C246.982 3.78098 235.216 8.72139 235.216 23.1272V419.772C235.216 434.184 246.982 452.61 261.49 460.925L732.976 731.242C747.484 739.563 759.25 734.622 759.25 720.217V323.572C759.25 309.16 747.491 290.734 732.976 282.419Z" fill="url(#paint23_linear)"/>
<path d="M732.388 282.751L260.902 12.4345C246.394 4.11317 234.628 9.05357 234.628 23.4594V420.104C234.628 434.517 246.394 452.942 260.902 461.257L732.388 731.574C746.896 739.895 758.663 734.955 758.663 720.549V323.904C758.663 309.498 746.896 291.072 732.388 282.751Z" fill="url(#paint24_linear)"/>
<path d="M731.794 283.09L260.308 12.7734C245.8 4.45208 234.033 9.39249 234.033 23.7983V420.443C234.033 434.855 245.8 453.281 260.308 461.596L731.794 731.913C746.302 740.234 758.068 735.294 758.068 720.888V324.243C758.068 309.831 746.308 291.405 731.794 283.09Z" fill="url(#paint25_linear)"/>
<path d="M731.206 283.422L259.72 13.1058C245.212 4.78448 233.445 9.72488 233.445 24.1307V420.776C233.445 435.188 245.212 453.614 259.72 461.929L731.206 732.245C745.714 740.566 757.48 735.626 757.48 721.22V324.575C757.48 310.169 745.714 291.743 731.206 283.422Z" fill="url(#paint26_linear)"/>
<path d="M730.611 283.761L259.125 13.4444C244.617 5.12307 232.851 10.0635 232.851 24.4693V421.114C232.851 435.527 244.617 453.952 259.125 462.267L730.611 732.584C745.12 740.905 756.886 735.965 756.886 721.559V324.914C756.886 310.502 745.12 292.076 730.611 283.761Z" fill="url(#paint27_linear)"/>
<path d="M730.017 284.093L258.531 13.7768C244.023 5.45542 232.257 10.3958 232.257 24.8016V421.447C232.257 435.859 244.023 454.285 258.531 462.6L730.017 732.916C744.525 741.237 756.292 736.297 756.292 721.891V325.246C756.292 310.84 744.532 292.414 730.017 284.093Z" fill="url(#paint28_linear)"/>
<path d="M729.429 284.432L257.943 14.1155C243.435 5.79418 231.669 10.7346 231.669 25.1404V421.785C231.669 436.198 243.435 454.623 257.943 462.938L729.429 733.255C743.937 741.576 755.704 736.636 755.704 722.23V325.585C755.704 311.179 743.937 292.753 729.429 284.432Z" fill="url(#paint29_linear)"/>
<path d="M728.835 284.764L257.349 14.4479C242.841 6.12652 231.074 11.0669 231.074 25.4727V422.118C231.074 436.53 242.841 454.956 257.349 463.271L728.835 733.587C743.343 741.908 755.109 736.968 755.109 722.562V325.917C755.109 311.511 743.349 293.086 728.835 284.764Z" fill="url(#paint30_linear)"/>
<path d="M728.246 285.103L256.76 14.7866C242.252 6.46523 230.486 11.4056 230.486 25.8114V422.456C230.486 436.869 242.252 455.295 256.76 463.609L728.246 733.926C742.755 742.247 754.521 737.307 754.521 722.901V326.256C754.521 311.85 742.755 293.424 728.246 285.103Z" fill="url(#paint31_linear)"/>
<path d="M727.652 285.435L256.166 15.119C241.658 6.79766 229.892 11.7381 229.892 26.1439V422.789C229.892 437.201 241.658 455.627 256.166 463.942L727.652 734.258C742.16 742.58 753.927 737.639 753.927 723.233V326.588C753.927 312.183 742.16 293.757 727.652 285.435Z" fill="url(#paint32_linear)"/>
<path d="M727.058 285.774L255.572 15.4577C241.064 7.13639 229.298 12.0768 229.298 26.4826V423.128C229.298 437.54 241.064 455.966 255.572 464.281L727.058 734.597C741.566 742.918 753.332 737.978 753.332 723.572V326.927C753.332 312.521 741.572 294.095 727.058 285.774Z" fill="url(#paint33_linear)"/>
<path d="M726.47 286.106L254.984 15.7899C240.476 7.46857 228.71 12.409 228.71 26.8148V423.46C228.71 437.872 240.476 456.298 254.984 464.613L726.47 734.929C740.978 743.251 752.744 738.31 752.744 723.904V327.259C752.744 312.854 740.978 294.428 726.47 286.106Z" fill="url(#paint34_linear)"/>
<path d="M725.876 286.445L254.389 16.1288C239.881 7.80747 228.115 12.7479 228.115 27.1537V423.799C228.115 438.211 239.881 456.637 254.389 464.952L725.876 735.268C740.384 743.589 752.15 738.649 752.15 724.243V327.598C752.15 313.192 740.39 294.767 725.876 286.445Z" fill="url(#paint35_linear)"/>
<path d="M725.287 286.784L253.801 16.4675C239.293 8.14609 227.527 13.0865 227.527 27.4923V424.137C227.527 438.549 239.293 456.975 253.801 465.29L725.287 735.607C739.795 743.928 751.562 738.988 751.562 724.582V327.937C751.562 313.525 739.795 295.099 725.287 286.784Z" fill="url(#paint36_linear)"/>
<path d="M724.693 287.116L253.207 16.7998C238.699 8.4784 226.933 13.4188 226.933 27.8246V424.47C226.933 438.882 238.699 457.308 253.207 465.623L724.693 735.939C739.201 744.26 750.967 739.32 750.967 724.914V328.269C750.967 313.863 739.201 295.437 724.693 287.116Z" fill="url(#paint37_linear)"/>
<path d="M724.099 287.455L252.612 17.1386C238.104 8.81721 226.338 13.7576 226.338 28.1634V424.808C226.338 439.221 238.104 457.646 252.612 465.961L724.099 736.278C738.607 744.599 750.373 739.659 750.373 725.253V328.608C750.373 314.196 738.613 295.77 724.099 287.455Z" fill="url(#paint38_linear)"/>
<path d="M723.51 287.787L252.024 17.4709C237.516 9.14951 225.75 14.0899 225.75 28.4957V425.141C225.75 439.553 237.516 457.979 252.024 466.294L723.51 736.61C738.018 744.931 749.785 739.991 749.785 725.585V328.94C749.785 314.534 738.018 296.109 723.51 287.787Z" fill="url(#paint39_linear)"/>
<path d="M722.916 288.126L251.43 17.8097C236.922 9.4883 225.156 14.4287 225.156 28.8345V425.48C225.156 439.892 236.922 458.318 251.43 466.633L722.916 736.949C737.424 745.27 749.191 740.33 749.191 725.924V329.279C749.191 314.867 737.431 296.441 722.916 288.126Z" fill="url(#paint40_linear)"/>
<path d="M722.328 288.458L250.842 18.1421C236.334 9.8207 224.568 14.7611 224.568 29.1669V425.812C224.568 440.224 236.334 458.65 250.842 466.965L722.328 737.281C736.836 745.603 748.603 740.662 748.603 726.256V329.611C748.603 315.206 736.836 296.78 722.328 288.458Z" fill="url(#paint41_linear)"/>
<path d="M721.734 288.797L250.248 18.4808C235.74 10.1594 223.974 15.0998 223.974 29.5056V426.151C223.974 440.563 235.74 458.989 250.248 467.304L721.734 737.62C736.242 745.941 748.008 741.001 748.008 726.595V329.95C748.008 315.538 736.242 297.112 721.734 288.797Z" fill="url(#paint42_linear)"/>
<path d="M721.14 289.129L249.653 18.8131C235.145 10.4918 223.379 15.4322 223.379 29.838V426.483C223.379 440.895 235.145 459.321 249.653 467.636L721.14 737.952C735.648 746.274 747.414 741.333 747.414 726.928V330.289C747.414 315.877 735.654 297.451 721.14 289.129Z" fill="url(#paint43_linear)"/>
<path d="M720.552 289.468L249.066 19.1519C234.558 10.8305 222.792 15.7709 222.792 30.1767V426.822C222.792 441.234 234.558 459.66 249.066 467.975L720.552 738.291C735.06 746.612 746.826 741.672 746.826 727.266V330.621C746.826 316.209 735.06 297.79 720.552 289.468Z" fill="url(#paint44_linear)"/>
<path d="M719.957 289.801L248.471 19.4843C233.963 11.1629 222.197 16.1033 222.197 30.5091V427.154C222.197 441.566 233.963 459.992 248.471 468.307L719.957 738.623C734.465 746.945 746.231 742.004 746.231 727.599V330.954C746.231 316.548 734.472 298.122 719.957 289.801Z" fill="url(#paint45_linear)"/>
<path d="M719.363 290.139L247.877 19.8228C233.369 11.5015 221.602 16.4419 221.602 30.8477V427.493C221.602 441.905 233.369 460.331 247.877 468.646L719.363 738.962C733.871 747.283 745.637 742.343 745.637 727.937V331.292C745.643 316.886 733.877 298.46 719.363 290.139Z" fill="url(#paint46_linear)"/>
<path d="M718.775 290.472L247.289 20.1552C232.781 11.8338 221.015 16.7742 221.015 31.18V427.825C221.015 442.237 232.781 460.663 247.289 468.978L718.775 739.294C733.283 747.616 745.049 742.675 745.049 728.27V331.631C745.049 317.219 733.283 298.793 718.775 290.472Z" fill="url(#paint47_linear)"/>
<path d="M718.181 290.81L246.694 20.4939C232.186 12.1726 220.42 17.113 220.42 31.5188V428.164C220.42 442.576 232.186 461.002 246.694 469.317L718.181 739.633C732.689 747.955 744.455 743.014 744.455 728.608V331.963C744.455 317.558 732.695 299.132 718.181 290.81Z" fill="url(#paint48_linear)"/>
<path d="M717.593 291.143L246.107 20.8263C231.599 12.505 219.832 17.4454 219.832 31.8512V428.496C219.832 442.908 231.599 461.334 246.107 469.649L717.593 739.966C732.101 748.287 743.867 743.346 743.867 728.941V332.296C743.867 317.89 732.101 299.464 717.593 291.143Z" fill="url(#paint49_linear)"/>
<path d="M716.998 291.481L245.512 21.165C231.004 12.8436 219.238 17.7841 219.238 32.1898V428.835C219.238 443.247 231.004 461.673 245.512 469.988L716.998 740.304C731.506 748.626 743.272 743.685 743.272 729.279V332.634C743.272 318.229 731.513 299.803 716.998 291.481Z" fill="url(#paint50_linear)"/>
<path d="M716.404 291.82L244.918 21.5038C230.41 13.1824 218.644 18.1228 218.644 32.5286V429.174C218.644 443.586 230.41 462.012 244.918 470.327L716.404 740.643C730.912 748.964 742.678 744.024 742.678 729.618V332.973C742.678 318.561 730.918 300.135 716.404 291.82Z" fill="url(#paint51_linear)"/>
<path d="M715.816 292.152L244.33 21.8361C229.822 13.5148 218.055 18.4552 218.055 32.861V429.506C218.055 443.918 229.822 462.344 244.33 470.659L715.816 740.975C730.324 749.297 742.09 744.356 742.09 729.951V333.306C742.09 318.9 730.324 300.474 715.816 292.152Z" fill="url(#paint52_linear)"/>
<path d="M715.221 292.491L243.735 22.1749C229.227 13.8536 217.461 18.794 217.461 33.1998V429.845C217.461 444.257 229.227 462.683 243.735 470.998L715.221 741.314C729.729 749.636 741.496 744.695 741.496 730.289V333.644C741.496 319.232 729.736 300.806 715.221 292.491Z" fill="url(#paint53_linear)"/>
<path d="M714.633 292.824L243.147 22.5072C228.639 14.1859 216.873 19.1263 216.873 33.5321V430.177C216.873 444.589 228.639 463.015 243.147 471.33L714.633 741.646C729.142 749.968 740.908 745.027 740.908 730.622V333.977C740.908 319.571 729.142 301.145 714.633 292.824Z" fill="url(#paint54_linear)"/>
<path d="M714.039 293.162L242.553 22.8458C228.045 14.5245 216.279 19.4649 216.279 33.8707V430.516C216.279 444.928 228.045 463.354 242.553 471.669L714.039 741.985C728.547 750.306 740.313 745.366 740.313 730.96V334.315C740.313 319.903 728.553 301.477 714.039 293.162Z" fill="url(#paint55_linear)"/>
<path d="M713.445 293.495L241.959 23.1782C227.451 14.8569 215.684 19.7973 215.684 34.2031V430.848C215.684 445.26 227.451 463.686 241.959 472.001L713.445 742.317C727.953 750.639 739.719 745.698 739.719 731.293V334.648C739.719 320.242 727.959 301.816 713.445 293.495Z" fill="url(#paint56_linear)"/>
<path d="M712.857 293.833L241.37 23.517C226.862 15.1956 215.096 20.136 215.096 34.5418V431.187C215.096 445.599 226.862 464.025 241.37 472.34L712.857 742.656C727.365 750.978 739.131 746.037 739.131 731.631V334.986C739.131 320.574 727.365 302.148 712.857 293.833Z" fill="url(#paint57_linear)"/>
<path d="M712.262 294.166L240.776 23.8493C226.268 15.528 214.502 20.4684 214.502 34.8742V431.519C214.502 445.931 226.268 464.357 240.776 472.672L712.262 742.989C726.77 751.31 738.537 746.369 738.537 731.964V335.319C738.537 320.913 726.777 302.487 712.262 294.166Z" fill="url(#paint58_linear)"/>
<path d="M711.674 294.504L240.188 24.1881C225.68 15.8667 213.914 20.8071 213.914 35.2129V431.858C213.914 446.27 225.68 464.696 240.188 473.011L711.674 743.327C726.182 751.649 737.948 746.708 737.948 732.302V335.657C737.948 321.245 726.182 302.819 711.674 294.504Z" fill="url(#paint59_linear)"/>
<path d="M711.08 294.837L239.594 24.5204C225.086 16.1991 213.319 21.1395 213.319 35.5453V432.19C213.319 446.602 225.086 465.028 239.594 473.343L711.08 743.66C725.588 751.981 737.354 747.041 737.354 732.635V335.99C737.354 321.584 725.594 303.158 711.08 294.837Z" fill="url(#paint60_linear)"/>
<path d="M710.485 295.176L238.999 24.8592C224.491 16.5378 212.725 21.4782 212.725 35.884V432.529C212.725 446.941 224.491 465.367 238.999 473.682L710.485 743.998C724.993 752.32 736.76 747.379 736.76 732.974V336.329C736.76 321.923 725 303.497 710.485 295.176Z" fill="url(#paint61_linear)"/>
<path d="M709.897 295.508L238.411 25.1915C223.903 16.8702 212.137 21.8106 212.137 36.2164V432.861C212.137 447.274 223.903 465.699 238.411 474.014L709.897 744.331C724.405 752.652 736.172 747.712 736.172 733.306V336.661C736.172 322.255 724.405 303.829 709.897 295.508Z" fill="url(#paint62_linear)"/>
<path d="M709.303 295.847L237.817 25.5303C223.309 17.2089 211.543 22.1493 211.543 36.5551V433.2C211.543 447.612 223.309 466.038 237.817 474.353L709.303 744.67C723.811 752.991 735.577 748.05 735.577 733.645V337C735.577 322.594 723.818 304.168 709.303 295.847Z" fill="url(#paint63_linear)"/>
<path d="M708.715 296.179L237.229 25.8627C222.721 17.5413 210.955 22.4817 210.955 36.8875V433.533C210.955 447.945 222.721 466.371 237.229 474.686L708.715 745.002C723.223 753.323 734.99 748.383 734.99 733.977V337.332C734.99 322.926 723.223 304.5 708.715 296.179Z" fill="url(#paint64_linear)"/>
<path d="M708.121 296.518L236.635 26.2012C222.127 17.8799 210.36 22.8203 210.36 37.2261V433.871C210.36 448.283 222.127 466.709 236.635 475.024L708.121 745.34C722.629 753.662 734.395 748.721 734.395 734.316V337.671C734.395 323.265 722.635 304.839 708.121 296.518Z" fill="url(#paint65_linear)"/>
<path d="M707.526 296.85L236.04 26.5336C221.532 18.2123 209.766 23.1527 209.766 37.5585V434.204C209.766 448.616 221.532 467.042 236.04 475.357L707.526 745.673C722.034 753.994 733.801 749.054 733.801 734.648V338.003C733.801 323.597 722.041 305.171 707.526 296.85Z" fill="url(#paint66_linear)"/>
<path d="M706.938 297.189L235.452 26.8724C220.944 18.551 209.178 23.4914 209.178 37.8972V434.542C209.178 448.954 220.944 467.38 235.452 475.695L706.938 746.012C721.446 754.333 733.213 749.393 733.213 734.987V338.342C733.213 323.936 721.446 305.51 706.938 297.189Z" fill="url(#paint67_linear)"/>
<path d="M706.344 297.527L234.858 27.2111C220.35 18.8898 208.584 23.8302 208.584 38.236V434.881C208.584 449.293 220.35 467.719 234.858 476.034L706.344 746.35C720.852 754.672 732.618 749.731 732.618 735.326V338.68C732.618 324.268 720.858 305.842 706.344 297.527Z" fill="url(#paint68_linear)"/>
<path d="M705.756 297.86L234.27 27.5434C219.762 19.2221 207.996 24.1625 207.996 38.5683V435.213C207.996 449.625 219.762 468.051 234.27 476.366L705.756 746.683C720.264 755.004 732.03 750.064 732.03 735.658V339.013C732.03 324.607 720.264 306.181 705.756 297.86Z" fill="url(#paint69_linear)"/>
<path d="M705.162 298.199L233.676 27.8822C219.168 19.5609 207.401 24.5013 207.401 38.9071V435.552C207.401 449.964 219.168 468.39 233.676 476.705L705.162 747.021C719.67 755.343 731.436 750.402 731.436 735.997V339.352C731.436 324.939 719.67 306.514 705.162 298.199Z" fill="url(#paint70_linear)"/>
<path d="M704.567 298.531L233.081 28.2145C218.573 19.8932 206.807 24.8336 206.807 39.2394V435.884C206.807 450.297 218.573 468.722 233.081 477.037L704.567 747.354C719.075 755.675 730.842 750.735 730.842 736.329V339.684C730.842 325.278 719.082 306.852 704.567 298.531Z" fill="url(#paint71_linear)"/>
<path d="M703.979 298.87L232.493 28.5534C217.985 20.232 206.219 25.1724 206.219 39.5782V436.223C206.219 450.635 217.985 469.061 232.493 477.376L703.979 747.693C718.487 756.014 730.254 751.074 730.254 736.668V340.023C730.254 325.611 718.487 307.185 703.979 298.87Z" fill="url(#paint72_linear)"/>
<path d="M703.385 299.202L231.899 28.8857C217.391 20.5644 205.624 25.5048 205.624 39.9106V436.556C205.624 450.968 217.391 469.394 231.899 477.709L703.385 748.025C717.893 756.346 729.659 751.406 729.659 737V340.355C729.659 325.949 717.899 307.523 703.385 299.202Z" fill="url(#paint73_linear)"/>
<path d="M702.797 299.541L231.311 29.2243C216.803 20.9029 205.036 25.8433 205.036 40.2491V436.894C205.036 451.306 216.803 469.732 231.311 478.047L702.797 748.363C717.305 756.685 729.071 751.744 729.071 737.339V340.694C729.071 326.281 717.305 307.856 702.797 299.541Z" fill="url(#paint74_linear)"/>
<path d="M702.203 299.873L230.717 29.5567C216.209 21.2353 204.442 26.1757 204.442 40.5815V437.227C204.442 451.639 216.209 470.065 230.717 478.38L702.203 748.696C716.711 757.017 728.477 752.077 728.477 737.671V341.026C728.477 326.62 716.711 308.194 702.203 299.873Z" fill="url(#paint75_linear)"/>
<path d="M701.608 300.212L230.122 29.8954C215.614 21.574 203.848 26.5144 203.848 40.9202V437.565C203.848 451.977 215.614 470.403 230.122 478.718L701.608 749.035C716.116 757.356 727.882 752.416 727.882 738.01V341.365C727.882 326.953 716.123 308.533 701.608 300.212Z" fill="url(#paint76_linear)"/>
<path d="M701.02 300.544L229.534 30.2278C215.026 21.9064 203.26 26.8468 203.26 41.2526V437.898C203.26 452.31 215.026 470.736 229.534 479.051L701.02 749.367C715.528 757.688 727.294 752.748 727.294 738.342V341.697C727.294 327.291 715.528 308.865 701.02 300.544Z" fill="url(#paint77_linear)"/>
<path d="M700.426 300.883L228.94 30.5665C214.431 22.2451 202.665 27.1855 202.665 41.5913V438.236C202.665 452.649 214.431 471.074 228.94 479.389L700.426 749.706C714.934 758.027 726.7 753.087 726.7 738.681V342.036C726.7 327.63 714.94 309.204 700.426 300.883Z" fill="url(#paint78_linear)"/>
<path d="M699.838 301.215L228.352 30.8989C213.844 22.5775 202.077 27.5179 202.077 41.9237V438.569C202.077 452.981 213.844 471.407 228.352 479.722L699.838 750.038C714.346 758.359 726.112 753.419 726.112 739.013V342.368C726.112 327.962 714.346 309.537 699.838 301.215Z" fill="url(#paint79_linear)"/>
<path d="M699.243 301.554L227.757 31.2376C213.249 22.9162 201.483 27.8566 201.483 42.2624V438.907C201.483 453.32 213.249 471.746 227.757 480.06L699.243 750.377C713.751 758.698 725.518 753.758 725.518 739.352V342.707C725.518 328.301 713.751 309.875 699.243 301.554Z" fill="url(#paint80_linear)"/>
<path d="M698.649 301.886L227.163 31.57C212.655 23.2486 200.888 28.189 200.888 42.5948V439.24C200.888 453.652 212.655 472.078 227.163 480.393L698.649 750.709C713.157 759.031 724.923 754.09 724.923 739.684V343.039C724.923 328.634 713.163 310.208 698.649 301.886Z" fill="url(#paint81_linear)"/>
<path d="M698.061 302.225L226.575 31.9087C212.067 23.5873 200.301 28.5277 200.301 42.9335V439.579C200.301 453.991 212.067 472.417 226.575 480.732L698.061 751.048C712.569 759.369 724.335 754.429 724.335 740.023V343.378C724.335 328.972 712.569 310.546 698.061 302.225Z" fill="url(#paint82_linear)"/>
<path d="M697.466 302.564L225.98 32.2473C211.472 23.9259 199.706 28.8663 199.706 43.2721V439.917C199.706 454.329 211.472 472.755 225.98 481.07L697.466 751.387C711.975 759.708 723.741 754.767 723.741 740.362V343.717C723.741 329.305 711.981 310.879 697.466 302.564Z" fill="url(#paint83_linear)"/>
<path d="M696.878 302.896L225.392 32.5796C210.884 24.2583 199.118 29.1987 199.118 43.6045V440.25C199.118 454.662 210.884 473.088 225.392 481.403L696.878 751.719C711.387 760.04 723.153 755.1 723.153 740.694V344.049C723.153 329.643 711.387 311.217 696.878 302.896Z" fill="url(#paint84_linear)"/>
<path d="M696.284 303.235L224.798 32.9186C210.29 24.5972 198.524 29.5376 198.524 43.9434V440.588C198.524 455.001 210.29 473.427 224.798 481.741L696.284 752.058C710.792 760.379 722.558 755.439 722.558 741.033V344.388C722.558 329.976 710.792 311.55 696.284 303.235Z" fill="url(#paint85_linear)"/>
<path d="M695.69 303.567L224.204 33.2507C209.696 24.9294 197.929 29.8698 197.929 44.2756V440.921C197.929 455.333 209.696 473.759 224.204 482.074L695.69 752.39C710.198 760.711 721.964 755.771 721.964 741.365V344.72C721.964 330.314 710.204 311.888 695.69 303.567Z" fill="url(#paint86_linear)"/>
<path d="M695.102 303.906L223.616 33.5895C209.108 25.2682 197.341 30.2086 197.341 44.6144V441.259C197.341 455.672 209.108 474.097 223.616 482.412L695.102 752.729C709.61 761.05 721.376 756.11 721.376 741.704V345.059C721.376 330.647 709.61 312.221 695.102 303.906Z" fill="url(#paint87_linear)"/>
<path d="M694.507 304.238L223.021 33.9219C208.513 25.6005 196.747 30.5409 196.747 44.9467V441.592C196.747 456.004 208.513 474.43 223.021 482.745L694.507 753.061C709.016 761.382 720.782 756.442 720.782 742.036V345.391C720.782 330.985 709.022 312.56 694.507 304.238Z" fill="url(#paint88_linear)"/>
<path d="M693.92 304.577L222.433 34.2606C207.925 25.9393 196.159 30.8797 196.159 45.2855V441.93C196.159 456.343 207.925 474.769 222.433 483.084L693.92 753.4C708.428 761.721 720.194 756.781 720.194 742.375V345.73C720.194 331.318 708.428 312.892 693.92 304.577Z" fill="url(#paint89_linear)"/>
<path d="M693.325 304.909L221.839 34.593C207.331 26.2717 195.565 31.2121 195.565 45.6179V442.263C195.565 456.675 207.331 475.101 221.839 483.416L693.325 753.732C707.833 762.054 719.599 757.113 719.599 742.707V346.062C719.599 331.657 707.833 313.231 693.325 304.909Z" fill="url(#paint90_linear)"/>
<path d="M692.731 305.248L221.245 34.9318C206.737 26.6104 194.97 31.5508 194.97 45.9566V442.602C194.97 457.014 206.737 475.44 221.245 483.755L692.731 754.071C707.239 762.392 719.005 757.452 719.005 743.046V346.401C719.005 331.989 707.245 313.563 692.731 305.248Z" fill="url(#paint91_linear)"/>
<path d="M692.143 305.58L220.657 35.2641C206.148 26.9428 194.382 31.8832 194.382 46.289V442.934C194.382 457.346 206.148 475.772 220.657 484.087L692.143 754.403C706.651 762.725 718.417 757.784 718.417 743.379V346.734C718.417 332.328 706.651 313.902 692.143 305.58Z" fill="url(#paint92_linear)"/>
<path d="M691.548 305.919L220.062 35.6027C205.554 27.2813 193.788 32.2217 193.788 46.6275V443.273C193.788 457.685 205.554 476.111 220.062 484.426L691.548 754.742C706.057 763.063 717.823 758.123 717.823 743.717V347.072C717.823 332.666 706.063 314.24 691.548 305.919Z" fill="url(#paint93_linear)"/>
<path d="M690.961 306.251L219.474 35.935C204.966 27.6137 193.2 32.5541 193.2 46.9599V443.605C193.2 458.017 204.966 476.443 219.474 484.758L690.961 755.074C705.469 763.396 717.235 758.455 717.235 744.049V347.404C717.235 332.999 705.469 314.573 690.961 306.251Z" fill="url(#paint94_linear)"/>
<path d="M690.366 306.59L218.88 36.2739C204.372 27.9526 192.606 32.893 192.606 47.2988V443.944C192.606 458.356 204.372 476.782 218.88 485.097L690.366 755.413C704.874 763.734 716.64 758.794 716.64 744.388V347.743C716.64 333.337 704.874 314.912 690.366 306.59Z" fill="url(#paint95_linear)"/>
<path d="M689.772 306.923L218.285 36.6062C203.777 28.2848 192.011 33.2252 192.011 47.631V444.276C192.011 458.688 203.777 477.114 218.285 485.429L689.772 755.752C704.28 764.073 716.046 759.133 716.046 744.727V348.082C716.046 333.67 704.286 315.244 689.772 306.923Z" fill="url(#paint96_linear)"/>
<path d="M689.184 307.261L217.698 36.9449C203.19 28.6235 191.423 33.5639 191.423 47.9697V444.615C191.423 459.027 203.19 477.453 217.698 485.768L689.184 756.084C703.692 764.405 715.458 759.465 715.458 745.059V348.414C715.458 334.008 703.692 315.583 689.184 307.261Z" fill="url(#paint97_linear)"/>
<path d="M688.59 307.6L217.103 37.2836C202.595 28.9623 190.829 33.9027 190.829 48.3085V444.954C190.829 459.366 202.595 477.792 217.103 486.107L688.59 756.423C703.098 764.744 714.864 759.804 714.864 745.398V348.753C714.864 334.341 703.104 315.915 688.59 307.6Z" fill="url(#paint98_linear)"/>
<path d="M688.001 307.932L216.515 37.616C202.007 29.2947 190.241 34.2351 190.241 48.6409V445.286C190.241 459.698 202.007 478.124 216.515 486.439L688.001 756.755C702.509 765.077 714.275 760.136 714.275 745.73V349.085C714.275 334.68 702.509 316.254 688.001 307.932Z" fill="url(#paint99_linear)"/>
<path d="M687.407 308.271L215.921 37.9548C201.413 29.6334 189.646 34.5738 189.646 48.9796V445.625C189.646 460.037 201.413 478.463 215.921 486.778L687.407 757.094C701.915 765.415 713.681 760.475 713.681 746.069V349.424C713.681 335.012 701.915 316.586 687.407 308.271Z" fill="url(#paint100_linear)"/>
<path d="M686.813 308.604L215.327 38.2872C200.818 29.9658 189.052 34.9062 189.052 49.312V445.957C189.052 460.369 200.818 478.795 215.327 487.11L686.813 757.426C701.321 765.748 713.087 760.807 713.087 746.402V349.757C713.087 335.351 701.327 316.925 686.813 308.604Z" fill="url(#paint101_linear)"/>
<path d="M686.813 308.604L215.327 38.2872C200.818 29.9658 189.052 34.9062 189.052 49.312V445.957C189.052 460.369 200.818 478.795 215.327 487.11L686.813 757.426C701.321 765.748 713.087 760.807 713.087 746.402V349.757C713.087 335.351 701.327 316.925 686.813 308.604Z" fill="url(#paint102_linear)"/>
<path d="M686.813 308.603L215.327 38.2871C205.305 32.5414 196.6 33.123 192.171 38.7792C196.779 37.4626 202.774 38.4852 209.344 42.2496L680.83 312.566C695.338 320.887 707.105 339.313 707.105 353.719V750.364C707.105 754.825 705.973 758.372 703.986 760.903C709.553 759.312 713.087 754.288 713.087 746.402V349.756C713.087 335.351 701.327 316.925 686.813 308.603Z" fill="url(#paint103_linear)"/>
<g opacity="0.55">
<rect width="6.94551" height="441.206" transform="matrix(-0.866025 -0.5 -2.20305e-08 1 621.916 278.8)" fill="#FFD39A"/>
<rect width="6.94551" height="440.974" transform="matrix(-0.866025 -0.5 -2.20305e-08 1 495.601 206.574)" fill="#FFD39A"/>
<rect width="6.94551" height="441.426" transform="matrix(-0.866025 -0.5 -2.20305e-08 1 396.354 149.288)" fill="#FFD39A"/>
<rect width="6.94551" height="442.778" transform="matrix(-0.866025 -0.5 -2.20305e-08 1 270.039 75.5801)" fill="#FFD39A"/>
<rect width="6.94551" height="295.615" transform="matrix(-0.866025 -0.5 -2.20305e-08 1 558.759 242.55)" fill="#FFD39A"/>
<rect width="6.94551" height="295.877" transform="matrix(-0.866025 -0.5 -2.20305e-08 1 333.196 112.059)" fill="#FFD39A"/>
<rect width="598.313" height="6.94551" transform="matrix(-0.866025 -0.5 -2.20305e-08 1 707.333 420.788)" fill="#FFD39A"/>
<rect width="244.487" height="6.94551" transform="matrix(-0.866025 -0.5 -2.20305e-08 1 707.333 448.57)" fill="#FFD39A"/>
<rect width="232.279" height="6.94551" transform="matrix(-0.866025 -0.5 -2.20305e-08 1 390.339 265.553)" fill="#FFD39A"/>
<rect width="244.487" height="6.94551" transform="matrix(-0.866025 -0.5 -2.20305e-08 1 707.333 500.661)" fill="#FFD39A"/>
<rect width="232.279" height="6.94551" transform="matrix(-0.866025 -0.5 -2.20305e-08 1 390.339 317.644)" fill="#FFD39A"/>
<rect width="244.487" height="6.94551" transform="matrix(-0.866025 -0.5 -2.20305e-08 1 707.333 538.861)" fill="#FFD39A"/>
<rect width="232.279" height="6.94551" transform="matrix(-0.866025 -0.5 -2.20305e-08 1 390.339 355.845)" fill="#FFD39A"/>
<rect width="244.487" height="6.94551" transform="matrix(-0.866025 -0.5 -2.20305e-08 1 707.333 573.589)" fill="#FFD39A"/>
<rect width="232.279" height="6.94551" transform="matrix(-0.866025 -0.5 -2.20305e-08 1 390.339 390.572)" fill="#FFD39A"/>
<rect width="244.487" height="6.94551" transform="matrix(-0.866025 -0.5 -2.20305e-08 1 707.333 622.208)" fill="#FFD39A"/>
<rect width="232.279" height="6.94551" transform="matrix(-0.866025 -0.5 -2.20305e-08 1 390.339 439.191)" fill="#FFD39A"/>
<rect width="362.561" height="6.94551" transform="matrix(-0.866025 -0.5 -2.20305e-08 1 707.333 670.826)" fill="#FFD39A"/>
<rect width="93.3689" height="6.94551" transform="matrix(-0.866025 -0.5 -2.20305e-08 1 270.039 418.354)" fill="#FFD39A"/>
<rect width="105.577" height="6.94551" transform="matrix(-0.866025 -0.5 -2.20305e-08 1 707.333 719.445)" fill="#FFD39A"/>
<rect width="85.0825" height="83.3461" rx="6.94551" transform="matrix(-0.866025 -0.5 -2.20305e-08 1 480.564 317.644)" fill="white"/>
<rect width="85.0825" height="34.7276" rx="6.94551" transform="matrix(-0.866025 -0.5 -2.20305e-08 1 480.564 407.936)" fill="#1D0000" fill-opacity="0.53"/>
<rect width="85.0825" height="34.7276" rx="6.94551" transform="matrix(-0.866025 -0.5 -2.20305e-08 1 480.564 407.936)" fill="#1D0000" fill-opacity="0.53"/>
<rect width="34.7276" height="13.891" rx="6.94551" transform="matrix(-0.866025 -0.5 -2.20305e-08 1 480.564 449.609)" fill="#1D0000" fill-opacity="0.53"/>
<rect width="34.7276" height="13.891" rx="6.94551" transform="matrix(-0.866025 -0.5 -2.20305e-08 1 436.955 424.432)" fill="#1D0000" fill-opacity="0.53"/>
<circle r="6.07732" transform="matrix(-0.866025 -0.5 -2.20305e-08 1 443.722 434.416)" fill="#1D0000" fill-opacity="0.53"/>
</g>
<path d="M231.865 663.332C231.865 663.332 231.854 663.35 231.83 663.382C203.428 674.34 172.701 680.333 140.625 680.333C138.203 680.333 135.792 680.298 133.388 680.23C133.273 680.082 49.7912 574.014 47.3928 567.758C44.9915 561.496 26.4781 454.474 26.4781 454.474H153.245L231.865 663.332Z" fill="url(#paint104_linear)"/>
<path d="M119.462 481.456V545.337C119.462 593.213 153.192 635.337 190.828 659.289C221.079 678.54 260.646 656.181 260.362 620.324L260.22 602.269C259.89 571.057 243.919 541.843 217.313 525.527C206.414 518.843 193.991 514.386 180.667 512.77V481.453C180.667 468.005 170.474 456.743 157.091 455.41C141.685 453.878 119.462 465.976 119.462 481.456Z" fill="url(#paint105_linear)"/>
<path opacity="0.25" d="M157.088 482.08C170.471 483.412 180.664 494.672 180.664 508.122V539.44C193.988 541.056 206.411 545.513 217.31 552.197C243.92 568.513 259.887 597.727 260.218 628.938L260.36 646.994C260.504 665.419 250.128 680.278 235.901 687.76C248.273 679.791 256.948 665.918 256.815 649.061L256.673 631.006C256.343 599.795 240.372 570.58 213.766 554.264C202.867 547.58 190.444 543.123 177.12 541.507V510.19C177.12 496.742 166.927 485.48 153.544 484.148C146.916 483.489 139.03 485.353 132.192 488.921C139.721 484.03 149.282 481.3 157.088 482.08Z" fill="white"/>
<path d="M94.4828 529.544C147.885 530.917 185.053 537.451 207.052 548.808L203.336 570.927L81.413 563.93L94.4828 529.544Z" fill="url(#paint106_linear)"/>
<path d="M94.4828 529.544C147.885 530.917 185.053 537.451 207.052 548.808L203.336 570.927L81.413 563.93L94.4828 529.544Z" fill="url(#paint107_linear)"/>
<path d="M82.8925 518.041C82.8925 518.041 71.7012 544.245 80.249 556.798C88.7939 569.348 167.308 559.953 167.308 559.953L152.046 518.044H82.8925V518.041Z" fill="#2334A1"/>
<path d="M87.3938 569.966L167.305 559.953L235.135 669.028L260.126 656.897C260.126 656.897 199.886 518.566 187.067 515.093C174.249 511.622 82.8924 507.848 82.8924 507.848L87.3938 569.966Z" fill="#131313"/>
<path d="M260.126 656.894C260.126 656.894 292.959 665.185 293.612 675.003C294.267 684.821 253.052 680.453 235.135 669.025L260.126 656.894Z" fill="#350CAA"/>
<path d="M101.205 381.305C101.205 381.305 59.94 395.335 53.1702 399.159C46.4005 402.984 51.6993 414.214 51.6993 414.214L82.8928 518.041H152.043C152.043 518.041 154.56 446.619 155.384 441.193C156.196 435.844 171.467 406.514 171.467 406.514C171.467 406.514 158.29 392.118 120.72 383.142C99.5661 378.091 101.205 381.305 101.205 381.305Z" fill="url(#paint108_linear)"/>
<path opacity="0.2" d="M82.8928 518.041L61.532 446.941C61.532 446.941 69.6072 439.175 68.4435 426.735C68.4435 426.735 79.0117 489.742 126.152 497.277L153.077 504.132C152.454 512.237 152.046 518.041 152.046 518.041H82.8928Z" fill="url(#paint109_linear)"/>
<path opacity="0.2" d="M137.113 518.041H82.8928L72.6997 484.115L132.588 501.432L137.113 518.041Z" fill="url(#paint110_linear)"/>
<path d="M109.024 485.645L106.711 504.478C106.711 504.478 117.825 509.044 121.518 508.908C125.213 508.772 128.323 488.041 128.323 488.041L109.024 485.645Z" fill="#FF9D73"/>
<path d="M192.733 503.261L103.76 513.401C103.108 511.374 104.475 509.257 106.59 509.02L191.587 499.545L192.733 503.261Z" fill="url(#paint111_linear)"/>
<path d="M99.12 513.891L106.714 539.626L210.257 543.726C225.542 544.384 236.479 529.143 230.965 514.874C227.485 505.866 218.362 500.342 208.765 501.438L99.12 513.891Z" fill="#341D01"/>
<path d="M106.711 539.623C106.711 539.623 94.6542 543.486 89.7039 550.088C84.7536 556.689 73.9226 560.815 69.8997 554.421C65.8769 548.026 68.352 524.299 75.6771 519.656C83.0021 515.013 99.1201 513.888 99.1201 513.888C99.1201 513.888 105.872 526.066 106.711 539.623Z" fill="#350CAA"/>
<path d="M171.467 406.517C175.649 409.94 218.622 464.931 222.08 472.433C226.664 482.378 218.255 491.266 208.544 492.149C198.832 493.032 182.354 489.074 182.354 489.074C182.354 489.074 189.121 480.671 184.12 473.021L195.303 472.138C195.303 472.138 161.309 436.686 151.893 435.51C142.477 434.334 171.467 406.517 171.467 406.517Z" fill="url(#paint112_linear)"/>
<path opacity="0.25" d="M121.63 385.939C119.279 385.153 116.993 383.845 115.451 381.952C117.028 382.285 118.777 382.678 120.717 383.142C158.288 392.115 171.464 406.514 171.464 406.514C175.646 409.937 218.619 464.928 222.077 472.431C222.668 473.712 223.043 474.98 223.226 476.211C221.809 474.681 220.639 472.735 219.75 471.488C213.928 463.324 207.345 455.934 200.495 448.624C189.912 437.332 183.453 424.118 172.87 412.826C162.154 401.392 146.346 391.312 131.04 387.95C127.906 387.265 124.675 386.961 121.63 385.939Z" fill="white"/>
<path d="M109.564 361.205C109.564 361.205 107.416 376.747 98.972 383.417C104.126 391.634 111.634 393.158 120.531 390.751L124.633 382.085L109.564 361.205Z" fill="#FF9D73"/>
<path d="M109.564 363.096C109.721 362.723 109.969 362.434 110.294 362.215L125.7 379.899L120.531 390.748C120.531 390.751 106.747 369.859 109.564 363.096Z" fill="#ED7E4C"/>
<path d="M148.948 343.274C148.948 343.274 148.428 361.953 147.956 365.213C147.486 368.471 144.299 377.418 135.97 380.688C127.64 383.957 116.712 378.602 109.39 363.447C109.39 363.447 105.922 364.998 101.347 359.333C96.7719 353.668 95.8946 347.822 98.3786 347.045C100.863 346.269 103.778 349.482 103.778 349.482C103.778 349.482 96.1663 329.767 114.009 325.457C131.852 321.148 151.804 318.959 148.948 343.274Z" fill="#FF9D73"/>
<path d="M151.594 345.642C151.594 345.642 128.745 350.102 115.33 336.152C115.33 336.152 118.328 343.096 112.367 347.976C106.404 352.852 107.898 357.265 107.898 357.265L103.781 349.482C103.781 349.482 101.518 346.165 98.3816 347.045C98.3816 347.045 94.152 331.462 97.788 327.413C101.424 323.363 100.375 322.607 104.274 319.645C108.173 316.685 112.538 319.523 116.709 316.641C120.88 313.758 125.071 310.973 129.055 313.061C133.04 315.149 136.788 313.956 139.612 313.705C142.435 313.457 148.641 315.273 149.562 319.089C150.484 322.905 152.336 321.015 153.674 323.576C155.012 326.137 156.075 329.341 154.454 332.183C152.832 335.024 154.811 338.441 155.715 340.385C156.619 342.331 154.321 345.264 151.594 345.642Z" fill="#131313"/>
<path d="M136.493 366.921C136.543 366.921 136.593 366.912 136.643 366.897L142.223 365.11C142.362 365.066 142.474 364.962 142.53 364.826C142.586 364.691 142.58 364.537 142.512 364.41C142.489 364.366 141.922 363.282 139.621 359.69C137.394 356.211 136.64 351.364 136.635 351.316C136.593 351.045 136.342 350.859 136.07 350.9C135.799 350.941 135.613 351.192 135.654 351.464C135.686 351.671 136.443 356.565 138.788 360.225C140.223 362.464 140.979 363.728 141.343 364.354L136.345 365.955C136.085 366.037 135.94 366.318 136.023 366.578C136.088 366.788 136.283 366.921 136.493 366.921Z" fill="#ED7E4C"/>
<path d="M128.621 353.845C128.831 354.716 128.341 355.578 127.528 355.776C126.713 355.974 125.883 355.428 125.673 354.557C125.464 353.685 125.954 352.823 126.766 352.625C127.579 352.427 128.409 352.973 128.621 353.845Z" fill="#131313"/>
<path d="M144.021 352.392C144.231 353.263 143.741 354.125 142.929 354.323C142.113 354.521 141.283 353.975 141.074 353.103C140.864 352.232 141.354 351.37 142.166 351.172C142.982 350.977 143.812 351.52 144.021 352.392Z" fill="#131313"/>
<path opacity="0.25" d="M32.817 464.686C33.5761 462.477 35.998 461.402 38.1247 460.433C47.4582 456.18 55.4359 449.174 61.1572 440.685C63.9956 436.476 66.2847 431.895 67.9181 427.089C68.0864 426.596 68.2636 426.088 68.4438 425.565C68.4969 430.973 67.8058 436.036 66.3231 439.474C61.1188 451.539 39.4301 466.839 39.4301 466.839C39.4301 466.839 75.2874 478.432 109.027 485.645L108.602 489.095C86.1391 483.71 63.6766 478.326 41.2171 472.942C39.0521 472.422 36.8192 471.872 35.0499 470.52C33.2807 469.173 32.0933 466.792 32.817 464.686Z" fill="white"/>
<path d="M0.66597 481.456V545.337C0.66597 618.995 59.7418 679.037 133.391 680.23L132.564 602.271C132.233 571.06 116.263 541.846 89.6563 525.53C78.7573 518.846 66.3343 514.389 53.0104 512.773V481.456C53.0104 468.008 42.8174 456.745 29.4345 455.413C14.0283 453.877 0.66597 465.976 0.66597 481.456Z" fill="url(#paint113_linear)"/>
<g opacity="0.25">
<g opacity="0.25">
<path opacity="0.25" d="M29.432 482.08C42.815 483.412 53.008 494.671 53.008 508.122V539.44C66.3319 541.056 78.7549 545.513 89.6538 552.197C116.263 568.513 132.231 597.727 132.561 628.938L133.388 706.897C132.195 706.876 131.008 706.84 129.823 706.793L129.017 630.71C128.686 599.499 112.716 570.285 86.1095 553.969C75.2105 547.285 62.7875 542.828 49.4637 541.212V509.895C49.4637 496.447 39.2706 485.184 25.8877 483.852C21.4749 483.412 17.2306 484.094 13.4204 485.651C18.0546 482.875 23.5956 481.498 29.432 482.08Z" fill="white"/>
</g>
</g>
<path d="M120.032 511.371L190.568 503.996C192.869 503.757 194.729 502.017 195.122 499.737L203.419 451.823C204.004 448.444 201.198 445.443 197.789 445.801L127.253 453.176C124.953 453.415 123.092 455.155 122.699 457.435L114.402 505.349C113.817 508.728 116.62 511.729 120.032 511.371Z" fill="url(#paint114_linear)"/>
<path opacity="0.25" d="M193.477 502.49L202.238 451.885C202.675 449.366 200.581 447.127 198.037 447.393L124.784 455.051C124.332 455.099 123.904 455.226 123.514 455.415C124.35 454.183 125.7 453.338 127.251 453.176L197.786 445.801C201.195 445.443 204.001 448.444 203.416 451.823L195.119 499.737C194.91 500.939 194.292 501.991 193.415 502.753C193.442 502.664 193.462 502.578 193.477 502.49Z" fill="white"/>
<path d="M114.402 505.349L122.699 457.435C123.095 455.155 124.952 453.418 127.253 453.176L128.642 453.031C126.828 453.604 125.44 455.143 125.106 457.075L116.809 504.989C116.224 508.367 119.03 511.368 122.439 511.011L191.587 503.78C191.259 503.884 190.919 503.961 190.568 503.996L120.032 511.371C116.62 511.729 113.817 508.728 114.402 505.349Z" fill="url(#paint115_linear)"/>
<path d="M136.924 373.105C140.066 373.105 141.266 371.838 141.331 371.765C141.549 371.522 141.531 371.15 141.289 370.929C141.05 370.71 140.681 370.728 140.462 370.964C140.418 371.008 138.516 372.84 132.93 371.327C132.614 371.242 132.289 371.428 132.207 371.744C132.121 372.06 132.307 372.382 132.623 372.467C134.348 372.934 135.769 373.105 136.924 373.105Z" fill="#B24444"/>
<path d="M109.024 485.645L106.711 504.478C106.711 504.478 30.2178 499.504 10.7976 486.262C-8.62261 473.021 42.1623 401.555 54.5824 398.445C67.0024 395.335 71.5274 427.411 66.3201 439.474C61.1158 451.539 39.4272 466.839 39.4272 466.839C39.4272 466.839 75.2874 478.435 109.024 485.645Z" fill="url(#paint116_linear)"/>
<defs>
<linearGradient id="paint0_linear" x1="772.864" y1="262.723" x2="237.726" y2="262.723" gradientUnits="userSpaceOnUse">
<stop offset="0.03125" stop-color="#323334"/>
<stop offset="0.244792" stop-color="#0050EF"/>
<stop offset="0.489583" stop-color="#2B941E"/>
<stop offset="0.713542" stop-color="#F4C401"/>
<stop offset="1" stop-color="#F38400"/>
</linearGradient>
<linearGradient id="paint1_linear" x1="772.276" y1="263.062" x2="237.139" y2="263.062" gradientUnits="userSpaceOnUse">
<stop offset="0.03125" stop-color="#323334"/>
<stop offset="0.244792" stop-color="#0050EF"/>
<stop offset="0.489583" stop-color="#2B941E"/>
<stop offset="0.713542" stop-color="#F4C401"/>
<stop offset="1" stop-color="#F38400"/>
</linearGradient>
<linearGradient id="paint2_linear" x1="771.682" y1="263.396" x2="236.545" y2="263.396" gradientUnits="userSpaceOnUse">
<stop offset="0.03125" stop-color="#323334"/>
<stop offset="0.244792" stop-color="#0050EF"/>
<stop offset="0.489583" stop-color="#2B941E"/>
<stop offset="0.713542" stop-color="#F4C401"/>
<stop offset="1" stop-color="#F38400"/>
</linearGradient>
<linearGradient id="paint3_linear" x1="771.088" y1="263.733" x2="235.951" y2="263.733" gradientUnits="userSpaceOnUse">
<stop offset="0.03125" stop-color="#323334"/>
<stop offset="0.244792" stop-color="#0050EF"/>
<stop offset="0.489583" stop-color="#2B941E"/>
<stop offset="0.713542" stop-color="#F4C401"/>
<stop offset="1" stop-color="#F38400"/>
</linearGradient>
<linearGradient id="paint4_linear" x1="770.499" y1="264.072" x2="235.362" y2="264.072" gradientUnits="userSpaceOnUse">
<stop offset="0.03125" stop-color="#323334"/>
<stop offset="0.244792" stop-color="#0050EF"/>
<stop offset="0.489583" stop-color="#2B941E"/>
<stop offset="0.713542" stop-color="#F4C401"/>
<stop offset="1" stop-color="#F38400"/>
</linearGradient>
<linearGradient id="paint5_linear" x1="769.905" y1="264.404" x2="234.768" y2="264.404" gradientUnits="userSpaceOnUse">
<stop offset="0.03125" stop-color="#323334"/>
<stop offset="0.244792" stop-color="#0050EF"/>
<stop offset="0.489583" stop-color="#2B941E"/>
<stop offset="0.713542" stop-color="#F4C401"/>
<stop offset="1" stop-color="#F38400"/>
</linearGradient>
<linearGradient id="paint6_linear" x1="769.317" y1="264.743" x2="234.18" y2="264.743" gradientUnits="userSpaceOnUse">
<stop offset="0.03125" stop-color="#323334"/>
<stop offset="0.244792" stop-color="#0050EF"/>
<stop offset="0.489583" stop-color="#2B941E"/>
<stop offset="0.713542" stop-color="#F4C401"/>
<stop offset="1" stop-color="#F38400"/>
</linearGradient>
<linearGradient id="paint7_linear" x1="768.722" y1="265.075" x2="233.585" y2="265.075" gradientUnits="userSpaceOnUse">
<stop offset="0.03125" stop-color="#323334"/>
<stop offset="0.244792" stop-color="#0050EF"/>
<stop offset="0.489583" stop-color="#2B941E"/>
<stop offset="0.713542" stop-color="#F4C401"/>
<stop offset="1" stop-color="#F38400"/>
</linearGradient>
<linearGradient id="paint8_linear" x1="768.128" y1="265.414" x2="232.991" y2="265.414" gradientUnits="userSpaceOnUse">
<stop offset="0.03125" stop-color="#323334"/>
<stop offset="0.244792" stop-color="#0050EF"/>
<stop offset="0.489583" stop-color="#2B941E"/>
<stop offset="0.713542" stop-color="#F4C401"/>
<stop offset="1" stop-color="#F38400"/>
</linearGradient>
<linearGradient id="paint9_linear" x1="767.54" y1="265.746" x2="232.403" y2="265.746" gradientUnits="userSpaceOnUse">
<stop offset="0.03125" stop-color="#323334"/>
<stop offset="0.244792" stop-color="#0050EF"/>
<stop offset="0.489583" stop-color="#2B941E"/>
<stop offset="0.713542" stop-color="#F4C401"/>
<stop offset="1" stop-color="#F38400"/>
</linearGradient>
<linearGradient id="paint10_linear" x1="766.946" y1="266.085" x2="231.809" y2="266.085" gradientUnits="userSpaceOnUse">
<stop offset="0.03125" stop-color="#323334"/>
<stop offset="0.244792" stop-color="#0050EF"/>
<stop offset="0.489583" stop-color="#2B941E"/>
<stop offset="0.713542" stop-color="#F4C401"/>
<stop offset="1" stop-color="#F38400"/>
</linearGradient>
<linearGradient id="paint11_linear" x1="766.357" y1="266.417" x2="231.22" y2="266.417" gradientUnits="userSpaceOnUse">
<stop offset="0.03125" stop-color="#323334"/>
<stop offset="0.244792" stop-color="#0050EF"/>
<stop offset="0.489583" stop-color="#2B941E"/>
<stop offset="0.713542" stop-color="#F4C401"/>
<stop offset="1" stop-color="#F38400"/>
</linearGradient>
<linearGradient id="paint12_linear" x1="765.763" y1="266.756" x2="230.626" y2="266.756" gradientUnits="userSpaceOnUse">
<stop offset="0.03125" stop-color="#323334"/>
<stop offset="0.244792" stop-color="#0050EF"/>
<stop offset="0.489583" stop-color="#2B941E"/>
<stop offset="0.713542" stop-color="#F4C401"/>
<stop offset="1" stop-color="#F38400"/>
</linearGradient>
<linearGradient id="paint13_linear" x1="765.169" y1="267.089" x2="230.032" y2="267.089" gradientUnits="userSpaceOnUse">
<stop offset="0.03125" stop-color="#323334"/>
<stop offset="0.244792" stop-color="#0050EF"/>
<stop offset="0.489583" stop-color="#2B941E"/>
<stop offset="0.713542" stop-color="#F4C401"/>
<stop offset="1" stop-color="#F38400"/>
</linearGradient>
<linearGradient id="paint14_linear" x1="764.581" y1="267.427" x2="229.444" y2="267.427" gradientUnits="userSpaceOnUse">
<stop offset="0.03125" stop-color="#323334"/>
<stop offset="0.244792" stop-color="#0050EF"/>
<stop offset="0.489583" stop-color="#2B941E"/>
<stop offset="0.713542" stop-color="#F4C401"/>
<stop offset="1" stop-color="#F38400"/>
</linearGradient>
<linearGradient id="paint15_linear" x1="763.986" y1="267.759" x2="228.849" y2="267.759" gradientUnits="userSpaceOnUse">
<stop offset="0.03125" stop-color="#323334"/>
<stop offset="0.244792" stop-color="#0050EF"/>
<stop offset="0.489583" stop-color="#2B941E"/>
<stop offset="0.713542" stop-color="#F4C401"/>
<stop offset="1" stop-color="#F38400"/>
</linearGradient>
<linearGradient id="paint16_linear" x1="763.398" y1="268.098" x2="228.261" y2="268.098" gradientUnits="userSpaceOnUse">
<stop offset="0.03125" stop-color="#323334"/>
<stop offset="0.244792" stop-color="#0050EF"/>
<stop offset="0.489583" stop-color="#2B941E"/>
<stop offset="0.713542" stop-color="#F4C401"/>
<stop offset="1" stop-color="#F38400"/>
</linearGradient>
<linearGradient id="paint17_linear" x1="762.804" y1="268.431" x2="227.667" y2="268.431" gradientUnits="userSpaceOnUse">
<stop offset="0.03125" stop-color="#323334"/>
<stop offset="0.244792" stop-color="#0050EF"/>
<stop offset="0.489583" stop-color="#2B941E"/>
<stop offset="0.713542" stop-color="#F4C401"/>
<stop offset="1" stop-color="#F38400"/>
</linearGradient>
<linearGradient id="paint18_linear" x1="762.209" y1="268.769" x2="227.072" y2="268.769" gradientUnits="userSpaceOnUse">
<stop offset="0.03125" stop-color="#323334"/>
<stop offset="0.244792" stop-color="#0050EF"/>
<stop offset="0.489583" stop-color="#2B941E"/>
<stop offset="0.713542" stop-color="#F4C401"/>
<stop offset="1" stop-color="#F38400"/>
</linearGradient>
<linearGradient id="paint19_linear" x1="761.621" y1="269.108" x2="226.484" y2="269.108" gradientUnits="userSpaceOnUse">
<stop offset="0.03125" stop-color="#323334"/>
<stop offset="0.244792" stop-color="#0050EF"/>
<stop offset="0.489583" stop-color="#2B941E"/>
<stop offset="0.713542" stop-color="#F4C401"/>
<stop offset="1" stop-color="#F38400"/>
</linearGradient>
<linearGradient id="paint20_linear" x1="761.027" y1="269.44" x2="225.89" y2="269.44" gradientUnits="userSpaceOnUse">
<stop offset="0.03125" stop-color="#323334"/>
<stop offset="0.244792" stop-color="#0050EF"/>
<stop offset="0.489583" stop-color="#2B941E"/>
<stop offset="0.713542" stop-color="#F4C401"/>
<stop offset="1" stop-color="#F38400"/>
</linearGradient>
<linearGradient id="paint21_linear" x1="760.439" y1="269.779" x2="225.302" y2="269.779" gradientUnits="userSpaceOnUse">
<stop offset="0.03125" stop-color="#323334"/>
<stop offset="0.244792" stop-color="#0050EF"/>
<stop offset="0.489583" stop-color="#2B941E"/>
<stop offset="0.713542" stop-color="#F4C401"/>
<stop offset="1" stop-color="#F38400"/>
</linearGradient>
<linearGradient id="paint22_linear" x1="759.845" y1="270.112" x2="224.708" y2="270.112" gradientUnits="userSpaceOnUse">
<stop offset="0.03125" stop-color="#323334"/>
<stop offset="0.244792" stop-color="#0050EF"/>
<stop offset="0.489583" stop-color="#2B941E"/>
<stop offset="0.713542" stop-color="#F4C401"/>
<stop offset="1" stop-color="#F38400"/>
</linearGradient>
<linearGradient id="paint23_linear" x1="759.25" y1="270.45" x2="224.113" y2="270.45" gradientUnits="userSpaceOnUse">
<stop offset="0.03125" stop-color="#323334"/>
<stop offset="0.244792" stop-color="#0050EF"/>
<stop offset="0.489583" stop-color="#2B941E"/>
<stop offset="0.713542" stop-color="#F4C401"/>
<stop offset="1" stop-color="#F38400"/>
</linearGradient>
<linearGradient id="paint24_linear" x1="758.663" y1="270.783" x2="223.526" y2="270.783" gradientUnits="userSpaceOnUse">
<stop offset="0.03125" stop-color="#323334"/>
<stop offset="0.244792" stop-color="#0050EF"/>
<stop offset="0.489583" stop-color="#2B941E"/>
<stop offset="0.713542" stop-color="#F4C401"/>
<stop offset="1" stop-color="#F38400"/>
</linearGradient>
<linearGradient id="paint25_linear" x1="758.068" y1="271.121" x2="222.931" y2="271.121" gradientUnits="userSpaceOnUse">
<stop offset="0.03125" stop-color="#323334"/>
<stop offset="0.244792" stop-color="#0050EF"/>
<stop offset="0.489583" stop-color="#2B941E"/>
<stop offset="0.713542" stop-color="#F4C401"/>
<stop offset="1" stop-color="#F38400"/>
</linearGradient>
<linearGradient id="paint26_linear" x1="757.48" y1="271.454" x2="222.343" y2="271.454" gradientUnits="userSpaceOnUse">
<stop offset="0.03125" stop-color="#323334"/>
<stop offset="0.244792" stop-color="#0050EF"/>
<stop offset="0.489583" stop-color="#2B941E"/>
<stop offset="0.713542" stop-color="#F4C401"/>
<stop offset="1" stop-color="#F38400"/>
</linearGradient>
<linearGradient id="paint27_linear" x1="756.886" y1="271.792" x2="221.749" y2="271.792" gradientUnits="userSpaceOnUse">
<stop offset="0.03125" stop-color="#323334"/>
<stop offset="0.244792" stop-color="#0050EF"/>
<stop offset="0.489583" stop-color="#2B941E"/>
<stop offset="0.713542" stop-color="#F4C401"/>
<stop offset="1" stop-color="#F38400"/>
</linearGradient>
<linearGradient id="paint28_linear" x1="756.292" y1="272.125" x2="221.154" y2="272.125" gradientUnits="userSpaceOnUse">
<stop offset="0.03125" stop-color="#323334"/>
<stop offset="0.244792" stop-color="#0050EF"/>
<stop offset="0.489583" stop-color="#2B941E"/>
<stop offset="0.713542" stop-color="#F4C401"/>
<stop offset="1" stop-color="#F38400"/>
</linearGradient>
<linearGradient id="paint29_linear" x1="755.704" y1="272.464" x2="220.566" y2="272.464" gradientUnits="userSpaceOnUse">
<stop offset="0.03125" stop-color="#323334"/>
<stop offset="0.244792" stop-color="#0050EF"/>
<stop offset="0.489583" stop-color="#2B941E"/>
<stop offset="0.713542" stop-color="#F4C401"/>
<stop offset="1" stop-color="#F38400"/>
</linearGradient>
<linearGradient id="paint30_linear" x1="755.109" y1="272.796" x2="219.972" y2="272.796" gradientUnits="userSpaceOnUse">
<stop offset="0.03125" stop-color="#323334"/>
<stop offset="0.244792" stop-color="#0050EF"/>
<stop offset="0.489583" stop-color="#2B941E"/>
<stop offset="0.713542" stop-color="#F4C401"/>
<stop offset="1" stop-color="#F38400"/>
</linearGradient>
<linearGradient id="paint31_linear" x1="754.521" y1="273.135" x2="219.384" y2="273.135" gradientUnits="userSpaceOnUse">
<stop offset="0.03125" stop-color="#323334"/>
<stop offset="0.244792" stop-color="#0050EF"/>
<stop offset="0.489583" stop-color="#2B941E"/>
<stop offset="0.713542" stop-color="#F4C401"/>
<stop offset="1" stop-color="#F38400"/>
</linearGradient>
<linearGradient id="paint32_linear" x1="753.927" y1="273.467" x2="218.789" y2="273.467" gradientUnits="userSpaceOnUse">
<stop offset="0.03125" stop-color="#323334"/>
<stop offset="0.244792" stop-color="#0050EF"/>
<stop offset="0.489583" stop-color="#2B941E"/>
<stop offset="0.713542" stop-color="#F4C401"/>
<stop offset="1" stop-color="#F38400"/>
</linearGradient>
<linearGradient id="paint33_linear" x1="753.332" y1="273.806" x2="218.195" y2="273.806" gradientUnits="userSpaceOnUse">
<stop offset="0.03125" stop-color="#323334"/>
<stop offset="0.244792" stop-color="#0050EF"/>
<stop offset="0.489583" stop-color="#2B941E"/>
<stop offset="0.713542" stop-color="#F4C401"/>
<stop offset="1" stop-color="#F38400"/>
</linearGradient>
<linearGradient id="paint34_linear" x1="752.744" y1="274.138" x2="217.607" y2="274.138" gradientUnits="userSpaceOnUse">
<stop offset="0.03125" stop-color="#323334"/>
<stop offset="0.244792" stop-color="#0050EF"/>
<stop offset="0.489583" stop-color="#2B941E"/>
<stop offset="0.713542" stop-color="#F4C401"/>
<stop offset="1" stop-color="#F38400"/>
</linearGradient>
<linearGradient id="paint35_linear" x1="752.15" y1="274.477" x2="217.013" y2="274.477" gradientUnits="userSpaceOnUse">
<stop offset="0.03125" stop-color="#323334"/>
<stop offset="0.244792" stop-color="#0050EF"/>
<stop offset="0.489583" stop-color="#2B941E"/>
<stop offset="0.713542" stop-color="#F4C401"/>
<stop offset="1" stop-color="#F38400"/>
</linearGradient>
<linearGradient id="paint36_linear" x1="751.562" y1="274.815" x2="216.424" y2="274.815" gradientUnits="userSpaceOnUse">
<stop offset="0.03125" stop-color="#323334"/>
<stop offset="0.244792" stop-color="#0050EF"/>
<stop offset="0.489583" stop-color="#2B941E"/>
<stop offset="0.713542" stop-color="#F4C401"/>
<stop offset="1" stop-color="#F38400"/>
</linearGradient>
<linearGradient id="paint37_linear" x1="750.967" y1="275.148" x2="215.83" y2="275.148" gradientUnits="userSpaceOnUse">
<stop offset="0.03125" stop-color="#323334"/>
<stop offset="0.244792" stop-color="#0050EF"/>
<stop offset="0.489583" stop-color="#2B941E"/>
<stop offset="0.713542" stop-color="#F4C401"/>
<stop offset="1" stop-color="#F38400"/>
</linearGradient>
<linearGradient id="paint38_linear" x1="750.373" y1="275.487" x2="215.236" y2="275.487" gradientUnits="userSpaceOnUse">
<stop offset="0.03125" stop-color="#323334"/>
<stop offset="0.244792" stop-color="#0050EF"/>
<stop offset="0.489583" stop-color="#2B941E"/>
<stop offset="0.713542" stop-color="#F4C401"/>
<stop offset="1" stop-color="#F38400"/>
</linearGradient>
<linearGradient id="paint39_linear" x1="749.785" y1="275.819" x2="214.648" y2="275.819" gradientUnits="userSpaceOnUse">
<stop offset="0.03125" stop-color="#323334"/>
<stop offset="0.244792" stop-color="#0050EF"/>
<stop offset="0.489583" stop-color="#2B941E"/>
<stop offset="0.713542" stop-color="#F4C401"/>
<stop offset="1" stop-color="#F38400"/>
</linearGradient>
<linearGradient id="paint40_linear" x1="749.191" y1="276.158" x2="214.054" y2="276.158" gradientUnits="userSpaceOnUse">
<stop offset="0.03125" stop-color="#323334"/>
<stop offset="0.244792" stop-color="#0050EF"/>
<stop offset="0.489583" stop-color="#2B941E"/>
<stop offset="0.713542" stop-color="#F4C401"/>
<stop offset="1" stop-color="#F38400"/>
</linearGradient>
<linearGradient id="paint41_linear" x1="748.603" y1="276.49" x2="213.466" y2="276.49" gradientUnits="userSpaceOnUse">
<stop offset="0.03125" stop-color="#323334"/>
<stop offset="0.244792" stop-color="#0050EF"/>
<stop offset="0.489583" stop-color="#2B941E"/>
<stop offset="0.713542" stop-color="#F4C401"/>
<stop offset="1" stop-color="#F38400"/>
</linearGradient>
<linearGradient id="paint42_linear" x1="748.008" y1="276.829" x2="212.871" y2="276.829" gradientUnits="userSpaceOnUse">
<stop offset="0.03125" stop-color="#323334"/>
<stop offset="0.244792" stop-color="#0050EF"/>
<stop offset="0.489583" stop-color="#2B941E"/>
<stop offset="0.713542" stop-color="#F4C401"/>
<stop offset="1" stop-color="#F38400"/>
</linearGradient>
<linearGradient id="paint43_linear" x1="747.414" y1="277.161" x2="212.277" y2="277.161" gradientUnits="userSpaceOnUse">
<stop offset="0.03125" stop-color="#323334"/>
<stop offset="0.244792" stop-color="#0050EF"/>
<stop offset="0.489583" stop-color="#2B941E"/>
<stop offset="0.713542" stop-color="#F4C401"/>
<stop offset="1" stop-color="#F38400"/>
</linearGradient>
<linearGradient id="paint44_linear" x1="746.826" y1="277.5" x2="211.689" y2="277.5" gradientUnits="userSpaceOnUse">
<stop offset="0.03125" stop-color="#323334"/>
<stop offset="0.244792" stop-color="#0050EF"/>
<stop offset="0.489583" stop-color="#2B941E"/>
<stop offset="0.713542" stop-color="#F4C401"/>
<stop offset="1" stop-color="#F38400"/>
</linearGradient>
<linearGradient id="paint45_linear" x1="746.231" y1="277.832" x2="211.094" y2="277.832" gradientUnits="userSpaceOnUse">
<stop offset="0.03125" stop-color="#323334"/>
<stop offset="0.244792" stop-color="#0050EF"/>
<stop offset="0.489583" stop-color="#2B941E"/>
<stop offset="0.713542" stop-color="#F4C401"/>
<stop offset="1" stop-color="#F38400"/>
</linearGradient>
<linearGradient id="paint46_linear" x1="745.637" y1="278.171" x2="210.5" y2="278.171" gradientUnits="userSpaceOnUse">
<stop offset="0.03125" stop-color="#323334"/>
<stop offset="0.244792" stop-color="#0050EF"/>
<stop offset="0.489583" stop-color="#2B941E"/>
<stop offset="0.713542" stop-color="#F4C401"/>
<stop offset="1" stop-color="#F38400"/>
</linearGradient>
<linearGradient id="paint47_linear" x1="745.049" y1="278.503" x2="209.912" y2="278.503" gradientUnits="userSpaceOnUse">
<stop offset="0.03125" stop-color="#323334"/>
<stop offset="0.244792" stop-color="#0050EF"/>
<stop offset="0.489583" stop-color="#2B941E"/>
<stop offset="0.713542" stop-color="#F4C401"/>
<stop offset="1" stop-color="#F38400"/>
</linearGradient>
<linearGradient id="paint48_linear" x1="744.455" y1="278.842" x2="209.318" y2="278.842" gradientUnits="userSpaceOnUse">
<stop offset="0.03125" stop-color="#323334"/>
<stop offset="0.244792" stop-color="#0050EF"/>
<stop offset="0.489583" stop-color="#2B941E"/>
<stop offset="0.713542" stop-color="#F4C401"/>
<stop offset="1" stop-color="#F38400"/>
</linearGradient>
<linearGradient id="paint49_linear" x1="743.867" y1="279.174" x2="208.73" y2="279.174" gradientUnits="userSpaceOnUse">
<stop offset="0.03125" stop-color="#323334"/>
<stop offset="0.244792" stop-color="#0050EF"/>
<stop offset="0.489583" stop-color="#2B941E"/>
<stop offset="0.713542" stop-color="#F4C401"/>
<stop offset="1" stop-color="#F38400"/>
</linearGradient>
<linearGradient id="paint50_linear" x1="743.272" y1="279.513" x2="208.135" y2="279.513" gradientUnits="userSpaceOnUse">
<stop offset="0.03125" stop-color="#323334"/>
<stop offset="0.244792" stop-color="#0050EF"/>
<stop offset="0.489583" stop-color="#2B941E"/>
<stop offset="0.713542" stop-color="#F4C401"/>
<stop offset="1" stop-color="#F38400"/>
</linearGradient>
<linearGradient id="paint51_linear" x1="742.678" y1="279.852" x2="207.541" y2="279.852" gradientUnits="userSpaceOnUse">
<stop offset="0.03125" stop-color="#323334"/>
<stop offset="0.244792" stop-color="#0050EF"/>
<stop offset="0.489583" stop-color="#2B941E"/>
<stop offset="0.713542" stop-color="#F4C401"/>
<stop offset="1" stop-color="#F38400"/>
</linearGradient>
<linearGradient id="paint52_linear" x1="742.09" y1="280.184" x2="206.953" y2="280.184" gradientUnits="userSpaceOnUse">
<stop offset="0.03125" stop-color="#323334"/>
<stop offset="0.244792" stop-color="#0050EF"/>
<stop offset="0.489583" stop-color="#2B941E"/>
<stop offset="0.713542" stop-color="#F4C401"/>
<stop offset="1" stop-color="#F38400"/>
</linearGradient>
<linearGradient id="paint53_linear" x1="741.496" y1="280.523" x2="206.358" y2="280.523" gradientUnits="userSpaceOnUse">
<stop offset="0.03125" stop-color="#323334"/>
<stop offset="0.244792" stop-color="#0050EF"/>
<stop offset="0.489583" stop-color="#2B941E"/>
<stop offset="0.713542" stop-color="#F4C401"/>
<stop offset="1" stop-color="#F38400"/>
</linearGradient>
<linearGradient id="paint54_linear" x1="740.908" y1="280.855" x2="205.771" y2="280.855" gradientUnits="userSpaceOnUse">
<stop offset="0.03125" stop-color="#323334"/>
<stop offset="0.244792" stop-color="#0050EF"/>
<stop offset="0.489583" stop-color="#2B941E"/>
<stop offset="0.713542" stop-color="#F4C401"/>
<stop offset="1" stop-color="#F38400"/>
</linearGradient>
<linearGradient id="paint55_linear" x1="740.313" y1="281.194" x2="205.176" y2="281.194" gradientUnits="userSpaceOnUse">
<stop offset="0.03125" stop-color="#323334"/>
<stop offset="0.244792" stop-color="#0050EF"/>
<stop offset="0.489583" stop-color="#2B941E"/>
<stop offset="0.713542" stop-color="#F4C401"/>
<stop offset="1" stop-color="#F38400"/>
</linearGradient>
<linearGradient id="paint56_linear" x1="739.719" y1="281.526" x2="204.582" y2="281.526" gradientUnits="userSpaceOnUse">
<stop offset="0.03125" stop-color="#323334"/>
<stop offset="0.244792" stop-color="#0050EF"/>
<stop offset="0.489583" stop-color="#2B941E"/>
<stop offset="0.713542" stop-color="#F4C401"/>
<stop offset="1" stop-color="#F38400"/>
</linearGradient>
<linearGradient id="paint57_linear" x1="739.131" y1="281.865" x2="203.994" y2="281.865" gradientUnits="userSpaceOnUse">
<stop offset="0.03125" stop-color="#323334"/>
<stop offset="0.244792" stop-color="#0050EF"/>
<stop offset="0.489583" stop-color="#2B941E"/>
<stop offset="0.713542" stop-color="#F4C401"/>
<stop offset="1" stop-color="#F38400"/>
</linearGradient>
<linearGradient id="paint58_linear" x1="738.537" y1="282.197" x2="203.4" y2="282.197" gradientUnits="userSpaceOnUse">
<stop offset="0.03125" stop-color="#323334"/>
<stop offset="0.244792" stop-color="#0050EF"/>
<stop offset="0.489583" stop-color="#2B941E"/>
<stop offset="0.713542" stop-color="#F4C401"/>
<stop offset="1" stop-color="#F38400"/>
</linearGradient>
<linearGradient id="paint59_linear" x1="737.948" y1="282.536" x2="202.811" y2="282.536" gradientUnits="userSpaceOnUse">
<stop offset="0.03125" stop-color="#323334"/>
<stop offset="0.244792" stop-color="#0050EF"/>
<stop offset="0.489583" stop-color="#2B941E"/>
<stop offset="0.713542" stop-color="#F4C401"/>
<stop offset="1" stop-color="#F38400"/>
</linearGradient>
<linearGradient id="paint60_linear" x1="737.354" y1="282.868" x2="202.217" y2="282.868" gradientUnits="userSpaceOnUse">
<stop offset="0.03125" stop-color="#323334"/>
<stop offset="0.244792" stop-color="#0050EF"/>
<stop offset="0.489583" stop-color="#2B941E"/>
<stop offset="0.713542" stop-color="#F4C401"/>
<stop offset="1" stop-color="#F38400"/>
</linearGradient>
<linearGradient id="paint61_linear" x1="736.76" y1="283.207" x2="201.622" y2="283.207" gradientUnits="userSpaceOnUse">
<stop offset="0.03125" stop-color="#323334"/>
<stop offset="0.244792" stop-color="#0050EF"/>
<stop offset="0.489583" stop-color="#2B941E"/>
<stop offset="0.713542" stop-color="#F4C401"/>
<stop offset="1" stop-color="#F38400"/>
</linearGradient>
<linearGradient id="paint62_linear" x1="736.172" y1="283.54" x2="201.035" y2="283.54" gradientUnits="userSpaceOnUse">
<stop offset="0.03125" stop-color="#323334"/>
<stop offset="0.244792" stop-color="#0050EF"/>
<stop offset="0.489583" stop-color="#2B941E"/>
<stop offset="0.713542" stop-color="#F4C401"/>
<stop offset="1" stop-color="#F38400"/>
</linearGradient>
<linearGradient id="paint63_linear" x1="735.577" y1="283.878" x2="200.44" y2="283.878" gradientUnits="userSpaceOnUse">
<stop offset="0.03125" stop-color="#323334"/>
<stop offset="0.244792" stop-color="#0050EF"/>
<stop offset="0.489583" stop-color="#2B941E"/>
<stop offset="0.713542" stop-color="#F4C401"/>
<stop offset="1" stop-color="#F38400"/>
</linearGradient>
<linearGradient id="paint64_linear" x1="734.99" y1="284.211" x2="199.852" y2="284.211" gradientUnits="userSpaceOnUse">
<stop offset="0.03125" stop-color="#323334"/>
<stop offset="0.244792" stop-color="#0050EF"/>
<stop offset="0.489583" stop-color="#2B941E"/>
<stop offset="0.713542" stop-color="#F4C401"/>
<stop offset="1" stop-color="#F38400"/>
</linearGradient>
<linearGradient id="paint65_linear" x1="734.395" y1="284.549" x2="199.258" y2="284.549" gradientUnits="userSpaceOnUse">
<stop offset="0.03125" stop-color="#323334"/>
<stop offset="0.244792" stop-color="#0050EF"/>
<stop offset="0.489583" stop-color="#2B941E"/>
<stop offset="0.713542" stop-color="#F4C401"/>
<stop offset="1" stop-color="#F38400"/>
</linearGradient>
<linearGradient id="paint66_linear" x1="733.801" y1="284.882" x2="198.663" y2="284.882" gradientUnits="userSpaceOnUse">
<stop offset="0.03125" stop-color="#323334"/>
<stop offset="0.244792" stop-color="#0050EF"/>
<stop offset="0.489583" stop-color="#2B941E"/>
<stop offset="0.713542" stop-color="#F4C401"/>
<stop offset="1" stop-color="#F38400"/>
</linearGradient>
<linearGradient id="paint67_linear" x1="733.213" y1="285.22" x2="198.075" y2="285.22" gradientUnits="userSpaceOnUse">
<stop offset="0.03125" stop-color="#323334"/>
<stop offset="0.244792" stop-color="#0050EF"/>
<stop offset="0.489583" stop-color="#2B941E"/>
<stop offset="0.713542" stop-color="#F4C401"/>
<stop offset="1" stop-color="#F38400"/>
</linearGradient>
<linearGradient id="paint68_linear" x1="732.618" y1="285.559" x2="197.481" y2="285.559" gradientUnits="userSpaceOnUse">
<stop offset="0.03125" stop-color="#323334"/>
<stop offset="0.244792" stop-color="#0050EF"/>
<stop offset="0.489583" stop-color="#2B941E"/>
<stop offset="0.713542" stop-color="#F4C401"/>
<stop offset="1" stop-color="#F38400"/>
</linearGradient>
<linearGradient id="paint69_linear" x1="732.03" y1="285.891" x2="196.893" y2="285.891" gradientUnits="userSpaceOnUse">
<stop offset="0.03125" stop-color="#323334"/>
<stop offset="0.244792" stop-color="#0050EF"/>
<stop offset="0.489583" stop-color="#2B941E"/>
<stop offset="0.713542" stop-color="#F4C401"/>
<stop offset="1" stop-color="#F38400"/>
</linearGradient>
<linearGradient id="paint70_linear" x1="731.436" y1="286.23" x2="196.299" y2="286.23" gradientUnits="userSpaceOnUse">
<stop offset="0.03125" stop-color="#323334"/>
<stop offset="0.244792" stop-color="#0050EF"/>
<stop offset="0.489583" stop-color="#2B941E"/>
<stop offset="0.713542" stop-color="#F4C401"/>
<stop offset="1" stop-color="#F38400"/>
</linearGradient>
<linearGradient id="paint71_linear" x1="730.842" y1="286.562" x2="195.705" y2="286.562" gradientUnits="userSpaceOnUse">
<stop offset="0.03125" stop-color="#323334"/>
<stop offset="0.244792" stop-color="#0050EF"/>
<stop offset="0.489583" stop-color="#2B941E"/>
<stop offset="0.713542" stop-color="#F4C401"/>
<stop offset="1" stop-color="#F38400"/>
</linearGradient>
<linearGradient id="paint72_linear" x1="730.254" y1="286.901" x2="195.117" y2="286.901" gradientUnits="userSpaceOnUse">
<stop offset="0.03125" stop-color="#323334"/>
<stop offset="0.244792" stop-color="#0050EF"/>
<stop offset="0.489583" stop-color="#2B941E"/>
<stop offset="0.713542" stop-color="#F4C401"/>
<stop offset="1" stop-color="#F38400"/>
</linearGradient>
<linearGradient id="paint73_linear" x1="729.659" y1="287.234" x2="194.522" y2="287.234" gradientUnits="userSpaceOnUse">
<stop offset="0.03125" stop-color="#323334"/>
<stop offset="0.244792" stop-color="#0050EF"/>
<stop offset="0.489583" stop-color="#2B941E"/>
<stop offset="0.713542" stop-color="#F4C401"/>
<stop offset="1" stop-color="#F38400"/>
</linearGradient>
<linearGradient id="paint74_linear" x1="729.071" y1="287.572" x2="193.934" y2="287.572" gradientUnits="userSpaceOnUse">
<stop offset="0.03125" stop-color="#323334"/>
<stop offset="0.244792" stop-color="#0050EF"/>
<stop offset="0.489583" stop-color="#2B941E"/>
<stop offset="0.713542" stop-color="#F4C401"/>
<stop offset="1" stop-color="#F38400"/>
</linearGradient>
<linearGradient id="paint75_linear" x1="728.477" y1="287.905" x2="193.34" y2="287.905" gradientUnits="userSpaceOnUse">
<stop offset="0.03125" stop-color="#323334"/>
<stop offset="0.244792" stop-color="#0050EF"/>
<stop offset="0.489583" stop-color="#2B941E"/>
<stop offset="0.713542" stop-color="#F4C401"/>
<stop offset="1" stop-color="#F38400"/>
</linearGradient>
<linearGradient id="paint76_linear" x1="727.882" y1="288.243" x2="192.745" y2="288.243" gradientUnits="userSpaceOnUse">
<stop offset="0.03125" stop-color="#323334"/>
<stop offset="0.244792" stop-color="#0050EF"/>
<stop offset="0.489583" stop-color="#2B941E"/>
<stop offset="0.713542" stop-color="#F4C401"/>
<stop offset="1" stop-color="#F38400"/>
</linearGradient>
<linearGradient id="paint77_linear" x1="727.294" y1="288.576" x2="192.157" y2="288.576" gradientUnits="userSpaceOnUse">
<stop offset="0.03125" stop-color="#323334"/>
<stop offset="0.244792" stop-color="#0050EF"/>
<stop offset="0.489583" stop-color="#2B941E"/>
<stop offset="0.713542" stop-color="#F4C401"/>
<stop offset="1" stop-color="#F38400"/>
</linearGradient>
<linearGradient id="paint78_linear" x1="726.7" y1="288.914" x2="191.563" y2="288.914" gradientUnits="userSpaceOnUse">
<stop offset="0.03125" stop-color="#323334"/>
<stop offset="0.244792" stop-color="#0050EF"/>
<stop offset="0.489583" stop-color="#2B941E"/>
<stop offset="0.713542" stop-color="#F4C401"/>
<stop offset="1" stop-color="#F38400"/>
</linearGradient>
<linearGradient id="paint79_linear" x1="726.112" y1="289.247" x2="190.975" y2="289.247" gradientUnits="userSpaceOnUse">
<stop offset="0.03125" stop-color="#323334"/>
<stop offset="0.244792" stop-color="#0050EF"/>
<stop offset="0.489583" stop-color="#2B941E"/>
<stop offset="0.713542" stop-color="#F4C401"/>
<stop offset="1" stop-color="#F38400"/>
</linearGradient>
<linearGradient id="paint80_linear" x1="725.518" y1="289.586" x2="190.38" y2="289.586" gradientUnits="userSpaceOnUse">
<stop offset="0.03125" stop-color="#323334"/>
<stop offset="0.244792" stop-color="#0050EF"/>
<stop offset="0.489583" stop-color="#2B941E"/>
<stop offset="0.713542" stop-color="#F4C401"/>
<stop offset="1" stop-color="#F38400"/>
</linearGradient>
<linearGradient id="paint81_linear" x1="724.923" y1="289.918" x2="189.786" y2="289.918" gradientUnits="userSpaceOnUse">
<stop offset="0.03125" stop-color="#323334"/>
<stop offset="0.244792" stop-color="#0050EF"/>
<stop offset="0.489583" stop-color="#2B941E"/>
<stop offset="0.713542" stop-color="#F4C401"/>
<stop offset="1" stop-color="#F38400"/>
</linearGradient>
<linearGradient id="paint82_linear" x1="724.335" y1="290.257" x2="189.198" y2="290.257" gradientUnits="userSpaceOnUse">
<stop offset="0.03125" stop-color="#323334"/>
<stop offset="0.244792" stop-color="#0050EF"/>
<stop offset="0.489583" stop-color="#2B941E"/>
<stop offset="0.713542" stop-color="#F4C401"/>
<stop offset="1" stop-color="#F38400"/>
</linearGradient>
<linearGradient id="paint83_linear" x1="723.741" y1="290.595" x2="188.604" y2="290.595" gradientUnits="userSpaceOnUse">
<stop offset="0.03125" stop-color="#323334"/>
<stop offset="0.244792" stop-color="#0050EF"/>
<stop offset="0.489583" stop-color="#2B941E"/>
<stop offset="0.713542" stop-color="#F4C401"/>
<stop offset="1" stop-color="#F38400"/>
</linearGradient>
<linearGradient id="paint84_linear" x1="723.153" y1="290.928" x2="188.016" y2="290.928" gradientUnits="userSpaceOnUse">
<stop offset="0.03125" stop-color="#323334"/>
<stop offset="0.244792" stop-color="#0050EF"/>
<stop offset="0.489583" stop-color="#2B941E"/>
<stop offset="0.713542" stop-color="#F4C401"/>
<stop offset="1" stop-color="#F38400"/>
</linearGradient>
<linearGradient id="paint85_linear" x1="722.558" y1="291.267" x2="187.421" y2="291.267" gradientUnits="userSpaceOnUse">
<stop offset="0.03125" stop-color="#323334"/>
<stop offset="0.244792" stop-color="#0050EF"/>
<stop offset="0.489583" stop-color="#2B941E"/>
<stop offset="0.713542" stop-color="#F4C401"/>
<stop offset="1" stop-color="#F38400"/>
</linearGradient>
<linearGradient id="paint86_linear" x1="721.964" y1="291.599" x2="186.827" y2="291.599" gradientUnits="userSpaceOnUse">
<stop offset="0.03125" stop-color="#323334"/>
<stop offset="0.244792" stop-color="#0050EF"/>
<stop offset="0.489583" stop-color="#2B941E"/>
<stop offset="0.713542" stop-color="#F4C401"/>
<stop offset="1" stop-color="#F38400"/>
</linearGradient>
<linearGradient id="paint87_linear" x1="721.376" y1="291.937" x2="186.239" y2="291.937" gradientUnits="userSpaceOnUse">
<stop offset="0.03125" stop-color="#323334"/>
<stop offset="0.244792" stop-color="#0050EF"/>
<stop offset="0.489583" stop-color="#2B941E"/>
<stop offset="0.713542" stop-color="#F4C401"/>
<stop offset="1" stop-color="#F38400"/>
</linearGradient>
<linearGradient id="paint88_linear" x1="720.782" y1="292.27" x2="185.645" y2="292.27" gradientUnits="userSpaceOnUse">
<stop offset="0.03125" stop-color="#323334"/>
<stop offset="0.244792" stop-color="#0050EF"/>
<stop offset="0.489583" stop-color="#2B941E"/>
<stop offset="0.713542" stop-color="#F4C401"/>
<stop offset="1" stop-color="#F38400"/>
</linearGradient>
<linearGradient id="paint89_linear" x1="720.194" y1="292.609" x2="185.057" y2="292.609" gradientUnits="userSpaceOnUse">
<stop offset="0.03125" stop-color="#323334"/>
<stop offset="0.244792" stop-color="#0050EF"/>
<stop offset="0.489583" stop-color="#2B941E"/>
<stop offset="0.713542" stop-color="#F4C401"/>
<stop offset="1" stop-color="#F38400"/>
</linearGradient>
<linearGradient id="paint90_linear" x1="719.599" y1="292.941" x2="184.462" y2="292.941" gradientUnits="userSpaceOnUse">
<stop offset="0.03125" stop-color="#323334"/>
<stop offset="0.244792" stop-color="#0050EF"/>
<stop offset="0.489583" stop-color="#2B941E"/>
<stop offset="0.713542" stop-color="#F4C401"/>
<stop offset="1" stop-color="#F38400"/>
</linearGradient>
<linearGradient id="paint91_linear" x1="719.005" y1="293.28" x2="183.868" y2="293.28" gradientUnits="userSpaceOnUse">
<stop offset="0.03125" stop-color="#323334"/>
<stop offset="0.244792" stop-color="#0050EF"/>
<stop offset="0.489583" stop-color="#2B941E"/>
<stop offset="0.713542" stop-color="#F4C401"/>
<stop offset="1" stop-color="#F38400"/>
</linearGradient>
<linearGradient id="paint92_linear" x1="718.417" y1="293.612" x2="183.28" y2="293.612" gradientUnits="userSpaceOnUse">
<stop offset="0.03125" stop-color="#323334"/>
<stop offset="0.244792" stop-color="#0050EF"/>
<stop offset="0.489583" stop-color="#2B941E"/>
<stop offset="0.713542" stop-color="#F4C401"/>
<stop offset="1" stop-color="#F38400"/>
</linearGradient>
<linearGradient id="paint93_linear" x1="717.823" y1="293.951" x2="182.686" y2="293.951" gradientUnits="userSpaceOnUse">
<stop offset="0.03125" stop-color="#323334"/>
<stop offset="0.244792" stop-color="#0050EF"/>
<stop offset="0.489583" stop-color="#2B941E"/>
<stop offset="0.713542" stop-color="#F4C401"/>
<stop offset="1" stop-color="#F38400"/>
</linearGradient>
<linearGradient id="paint94_linear" x1="717.235" y1="294.283" x2="182.098" y2="294.283" gradientUnits="userSpaceOnUse">
<stop offset="0.03125" stop-color="#323334"/>
<stop offset="0.244792" stop-color="#0050EF"/>
<stop offset="0.489583" stop-color="#2B941E"/>
<stop offset="0.713542" stop-color="#F4C401"/>
<stop offset="1" stop-color="#F38400"/>
</linearGradient>
<linearGradient id="paint95_linear" x1="716.64" y1="294.622" x2="181.503" y2="294.622" gradientUnits="userSpaceOnUse">
<stop offset="0.03125" stop-color="#323334"/>
<stop offset="0.244792" stop-color="#0050EF"/>
<stop offset="0.489583" stop-color="#2B941E"/>
<stop offset="0.713542" stop-color="#F4C401"/>
<stop offset="1" stop-color="#F38400"/>
</linearGradient>
<linearGradient id="paint96_linear" x1="716.046" y1="294.956" x2="180.909" y2="294.956" gradientUnits="userSpaceOnUse">
<stop offset="0.03125" stop-color="#323334"/>
<stop offset="0.244792" stop-color="#0050EF"/>
<stop offset="0.489583" stop-color="#2B941E"/>
<stop offset="0.713542" stop-color="#F4C401"/>
<stop offset="1" stop-color="#F38400"/>
</linearGradient>
<linearGradient id="paint97_linear" x1="715.458" y1="295.293" x2="180.321" y2="295.293" gradientUnits="userSpaceOnUse">
<stop offset="0.03125" stop-color="#323334"/>
<stop offset="0.244792" stop-color="#0050EF"/>
<stop offset="0.489583" stop-color="#2B941E"/>
<stop offset="0.713542" stop-color="#F4C401"/>
<stop offset="1" stop-color="#F38400"/>
</linearGradient>
<linearGradient id="paint98_linear" x1="714.864" y1="295.632" x2="179.727" y2="295.632" gradientUnits="userSpaceOnUse">
<stop offset="0.03125" stop-color="#323334"/>
<stop offset="0.244792" stop-color="#0050EF"/>
<stop offset="0.489583" stop-color="#2B941E"/>
<stop offset="0.713542" stop-color="#F4C401"/>
<stop offset="1" stop-color="#F38400"/>
</linearGradient>
<linearGradient id="paint99_linear" x1="714.275" y1="295.964" x2="179.138" y2="295.964" gradientUnits="userSpaceOnUse">
<stop offset="0.03125" stop-color="#323334"/>
<stop offset="0.244792" stop-color="#0050EF"/>
<stop offset="0.489583" stop-color="#2B941E"/>
<stop offset="0.713542" stop-color="#F4C401"/>
<stop offset="1" stop-color="#F38400"/>
</linearGradient>
<linearGradient id="paint100_linear" x1="713.681" y1="296.303" x2="178.544" y2="296.303" gradientUnits="userSpaceOnUse">
<stop offset="0.03125" stop-color="#323334"/>
<stop offset="0.244792" stop-color="#0050EF"/>
<stop offset="0.489583" stop-color="#2B941E"/>
<stop offset="0.713542" stop-color="#F4C401"/>
<stop offset="1" stop-color="#F38400"/>
</linearGradient>
<linearGradient id="paint101_linear" x1="713.087" y1="296.635" x2="177.95" y2="296.635" gradientUnits="userSpaceOnUse">
<stop offset="0.03125" stop-color="#323334"/>
<stop offset="0.244792" stop-color="#0050EF"/>
<stop offset="0.489583" stop-color="#2B941E"/>
<stop offset="0.713542" stop-color="#F4C401"/>
<stop offset="1" stop-color="#F38400"/>
</linearGradient>
<linearGradient id="paint102_linear" x1="713.087" y1="296.635" x2="177.95" y2="296.635" gradientUnits="userSpaceOnUse">
<stop offset="0.03125" stop-color="#323334"/>
<stop offset="0.244792" stop-color="#0050EF"/>
<stop offset="0.489583" stop-color="#2B941E"/>
<stop offset="0.713542" stop-color="#F4C401"/>
<stop offset="1" stop-color="#F38400"/>
</linearGradient>
<linearGradient id="paint103_linear" x1="452.629" y1="34.2479" x2="452.629" y2="760.903" gradientUnits="userSpaceOnUse">
<stop stop-color="#FBD99D"/>
<stop offset="0.28125" stop-color="#FACC56"/>
<stop offset="0.645833" stop-color="#999192"/>
<stop offset="1" stop-color="#A28C70"/>
</linearGradient>
<linearGradient id="paint104_linear" x1="129.171" y1="771.444" x2="129.171" y2="492.378" gradientUnits="userSpaceOnUse">
<stop stop-color="#F6DD01"/>
<stop offset="0.0853" stop-color="#F7DD01"/>
<stop offset="0.2296" stop-color="#F0C119"/>
<stop offset="0.3771" stop-color="#F0B419"/>
<stop offset="0.5265" stop-color="#FFA11A"/>
<stop offset="0.6783" stop-color="#FF9700"/>
<stop offset="0.8341" stop-color="#E78800"/>
<stop offset="1" stop-color="#CD7103"/>
</linearGradient>
<linearGradient id="paint105_linear" x1="285.015" y1="445.794" x2="67.1618" y2="698.742" gradientUnits="userSpaceOnUse">
<stop stop-color="#FCE840"/>
<stop offset="0.0853" stop-color="#F6DD01"/>
<stop offset="0.2296" stop-color="#F7CF01"/>
<stop offset="0.3771" stop-color="#F8C203"/>
<stop offset="0.5265" stop-color="#FAA428"/>
<stop offset="0.6783" stop-color="#FF9700"/>
<stop offset="0.8341" stop-color="#E38600"/>
<stop offset="1" stop-color="#D57E00"/>
</linearGradient>
<linearGradient id="paint106_linear" x1="153.613" y1="503.733" x2="141.447" y2="572.674" gradientUnits="userSpaceOnUse">
<stop stop-color="#FF5E89"/>
<stop offset="0.1223" stop-color="#D45299"/>
<stop offset="0.2606" stop-color="#AA47A9"/>
<stop offset="0.4022" stop-color="#883EB5"/>
<stop offset="0.5455" stop-color="#6D36BF"/>
<stop offset="0.6912" stop-color="#5A31C6"/>
<stop offset="0.8408" stop-color="#4F2ECB"/>
<stop offset="1" stop-color="#4B2DCC"/>
</linearGradient>
<linearGradient id="paint107_linear" x1="144.232" y1="512.85" x2="144.232" y2="563.982" gradientUnits="userSpaceOnUse">
<stop stop-color="#F6DD01"/>
<stop offset="0.0853" stop-color="#F7DD01"/>
<stop offset="0.2296" stop-color="#F0C119"/>
<stop offset="0.3771" stop-color="#F0B419"/>
<stop offset="0.5265" stop-color="#FFA11A"/>
<stop offset="0.6783" stop-color="#FF9700"/>
<stop offset="0.8341" stop-color="#E17A00"/>
<stop offset="1" stop-color="#E17A00"/>
</linearGradient>
<linearGradient id="paint108_linear" x1="148.943" y1="226.335" x2="72.6753" y2="599.383" gradientUnits="userSpaceOnUse">
<stop stop-color="#FF5E89"/>
<stop offset="0.109" stop-color="#DC55A2"/>
<stop offset="0.2591" stop-color="#B149C1"/>
<stop offset="0.3356" stop-color="#A045CD"/>
<stop offset="0.3799" stop-color="#9743D4"/>
<stop offset="0.5279" stop-color="#7C3CE7"/>
<stop offset="0.6792" stop-color="#6937F4"/>
<stop offset="0.8345" stop-color="#5E34FC"/>
<stop offset="1" stop-color="#5A33FF"/>
</linearGradient>
<linearGradient id="paint109_linear" x1="153.075" y1="472.389" x2="61.5322" y2="472.389" gradientUnits="userSpaceOnUse">
<stop stop-color="#FF5E89"/>
<stop offset="0.109" stop-color="#DC55A2"/>
<stop offset="0.2591" stop-color="#B149C1"/>
<stop offset="0.3356" stop-color="#A045CD"/>
<stop offset="0.3799" stop-color="#9743D4"/>
<stop offset="0.5279" stop-color="#7C3CE7"/>
<stop offset="0.6792" stop-color="#6937F4"/>
<stop offset="0.8345" stop-color="#5E34FC"/>
<stop offset="1" stop-color="#5A33FF"/>
</linearGradient>
<linearGradient id="paint110_linear" x1="137.113" y1="501.078" x2="72.6992" y2="501.078" gradientUnits="userSpaceOnUse">
<stop stop-color="#FF5E89"/>
<stop offset="0.109" stop-color="#DC55A2"/>
<stop offset="0.2591" stop-color="#B149C1"/>
<stop offset="0.3356" stop-color="#A045CD"/>
<stop offset="0.3799" stop-color="#9743D4"/>
<stop offset="0.5279" stop-color="#7C3CE7"/>
<stop offset="0.6792" stop-color="#6937F4"/>
<stop offset="0.8345" stop-color="#5E34FC"/>
<stop offset="1" stop-color="#5A33FF"/>
</linearGradient>
<linearGradient id="paint111_linear" x1="148.92" y1="511.346" x2="146.618" y2="501.149" gradientUnits="userSpaceOnUse">
<stop stop-color="#FF5E89"/>
<stop offset="0.0327" stop-color="#F15A8A"/>
<stop offset="0.1629" stop-color="#C04A8F"/>
<stop offset="0.2964" stop-color="#963D93"/>
<stop offset="0.4312" stop-color="#743296"/>
<stop offset="0.5676" stop-color="#592A99"/>
<stop offset="0.7063" stop-color="#46249B"/>
<stop offset="0.8486" stop-color="#3B209C"/>
<stop offset="1" stop-color="#371F9C"/>
</linearGradient>
<linearGradient id="paint112_linear" x1="230.29" y1="242.966" x2="154.022" y2="616.013" gradientUnits="userSpaceOnUse">
<stop stop-color="#FF5E89"/>
<stop offset="0.0853" stop-color="#E3579D"/>
<stop offset="0.2296" stop-color="#B94CBB"/>
<stop offset="0.3771" stop-color="#9743D4"/>
<stop offset="0.5265" stop-color="#7C3CE7"/>
<stop offset="0.6783" stop-color="#6937F4"/>
<stop offset="0.8341" stop-color="#5E34FC"/>
<stop offset="1" stop-color="#5A33FF"/>
</linearGradient>
<linearGradient id="paint113_linear" x1="215.537" y1="445.178" x2="-55.7917" y2="682.178" gradientUnits="userSpaceOnUse">
<stop stop-color="#F6DD01"/>
<stop offset="0.0853" stop-color="#FDEB4F"/>
<stop offset="0.2296" stop-color="#F6DD01"/>
<stop offset="0.3771" stop-color="#F7DD01"/>
<stop offset="0.5265" stop-color="#F09819"/>
<stop offset="0.6783" stop-color="#F2B050"/>
<stop offset="0.8341" stop-color="#E99926"/>
<stop offset="1" stop-color="#F7941E"/>
</linearGradient>
<linearGradient id="paint114_linear" x1="249.569" y1="473.088" x2="31.7869" y2="486.297" gradientUnits="userSpaceOnUse">
<stop stop-color="#FF5E89"/>
<stop offset="0.0853" stop-color="#E3579D"/>
<stop offset="0.2296" stop-color="#B94CBB"/>
<stop offset="0.3771" stop-color="#9743D4"/>
<stop offset="0.5265" stop-color="#7C3CE7"/>
<stop offset="0.6783" stop-color="#6937F4"/>
<stop offset="0.8341" stop-color="#5E34FC"/>
<stop offset="1" stop-color="#5A33FF"/>
</linearGradient>
<linearGradient id="paint115_linear" x1="173.616" y1="558.922" x2="130.332" y2="446.98" gradientUnits="userSpaceOnUse">
<stop stop-color="#FF5E89"/>
<stop offset="0.0327" stop-color="#F15A8A"/>
<stop offset="0.1629" stop-color="#C04A8F"/>
<stop offset="0.2964" stop-color="#963D93"/>
<stop offset="0.4312" stop-color="#743296"/>
<stop offset="0.5676" stop-color="#592A99"/>
<stop offset="0.7063" stop-color="#46249B"/>
<stop offset="0.8486" stop-color="#3B209C"/>
<stop offset="1" stop-color="#371F9C"/>
</linearGradient>
<linearGradient id="paint116_linear" x1="111.798" y1="218.741" x2="35.5302" y2="591.789" gradientUnits="userSpaceOnUse">
<stop stop-color="#FF5E89"/>
<stop offset="0.0853" stop-color="#E3579D"/>
<stop offset="0.2296" stop-color="#B94CBB"/>
<stop offset="0.3771" stop-color="#9743D4"/>
<stop offset="0.5265" stop-color="#7C3CE7"/>
<stop offset="0.6783" stop-color="#6937F4"/>
<stop offset="0.8341" stop-color="#5E34FC"/>
<stop offset="1" stop-color="#5A33FF"/>
</linearGradient>
</defs>
</svg>
