<svg width="549" height="341" viewBox="0 0 549 341" fill="none" xmlns="http://www.w3.org/2000/svg">
<path d="M532.988 319.292C531.027 323.695 527.864 327.315 523.99 329.829C520.105 332.343 515.51 333.762 510.699 333.762H493.511L432.335 294.61L345.502 281.102L340.862 300.134C338.306 310.62 330.512 319.238 320.14 322.224C315.723 323.496 311.411 323.647 308.133 322.564L283.667 319.352L298.907 291.29L319.836 205.925C322.795 193.716 331.552 183.733 343.268 179.198L391.321 160.578L462.926 170.045C476.734 171.873 488.414 181.147 493.333 194.174L533.532 300.757C535.79 306.759 535.598 313.423 532.988 319.292Z" fill="#599BFF"/>
<path d="M532.988 319.292C531.027 323.695 527.864 327.315 523.99 329.829C520.105 332.343 515.51 333.762 510.699 333.762H493.511L432.335 294.61L345.502 281.102L340.862 300.134C338.306 310.62 330.512 319.238 320.14 322.224C315.723 323.496 311.411 323.647 308.133 322.564L283.667 319.352L298.907 291.29L319.836 205.925C322.795 193.716 331.552 183.733 343.268 179.198L391.321 160.578L462.926 170.045C476.734 171.873 488.414 181.147 493.333 194.174L533.532 300.757C535.79 306.759 535.598 313.423 532.988 319.292Z" fill="url(#paint0_linear)"/>
<path d="M288.9 287.089C293.323 285.432 314.547 286.025 320.3 302.943C323.37 311.967 318.174 321.692 309.444 323.911C277.196 332.108 253.377 315.47 288.9 287.089Z" fill="#131313"/>
<path d="M343.211 226.734L343.009 333.786H495.769L456.878 215.509L343.211 226.734Z" fill="#599BFF"/>
<path d="M343.211 226.734L343.009 333.786H495.769L456.878 215.509L343.211 226.734Z" fill="url(#paint1_linear)"/>
<g opacity="0.6">
<path opacity="0.6" d="M458.683 169.482C457.973 172.853 458.087 176.462 459.239 179.869C462.059 188.219 470.052 194.79 480.096 197.015C482.923 197.641 485.858 197.956 488.961 197.956C490.786 197.956 492.678 197.836 494.632 197.616L494.187 196.438C489.168 196.97 484.619 196.784 480.355 195.839C470.72 193.704 463.064 187.437 460.379 179.481C459.287 176.248 459.182 172.826 459.864 169.636L458.683 169.482Z" fill="#F4F4F4"/>
<path opacity="0.6" d="M338.919 205.757C344.657 198.404 346.302 188.006 343.307 179.18L343.268 179.195C342.904 179.337 342.552 179.499 342.194 179.649C345.027 188.081 343.448 197.999 337.969 205.017C333.137 211.206 325.372 215.013 317.527 215.337L317.232 216.54C325.544 216.291 333.801 212.309 338.919 205.757Z" fill="#F4F4F4"/>
<path opacity="0.6" d="M343.21 277.103L342.423 276.655C342.462 276.583 342.519 276.517 342.561 276.444L342.344 276.264C339.349 279.872 336.553 281.562 333.843 281.385C328.945 281.09 324.861 274.751 321.259 269.158C319.448 266.35 317.74 263.697 316.032 261.941C313.675 259.515 310.454 258.068 307.138 257.698L306.852 258.865C309.949 259.175 312.968 260.513 315.169 262.777C316.793 264.449 318.471 267.05 320.245 269.808C324.004 275.642 328.262 282.254 333.768 282.585C333.916 282.594 334.063 282.6 334.21 282.6C337.181 282.6 340.128 280.796 343.21 277.103Z" fill="#F4F4F4"/>
<path opacity="0.6" d="M507.722 232.327C503.639 233.993 500.087 237.109 498.56 241.61C497.351 245.174 497.567 248.978 497.778 252.655C497.838 253.708 497.898 254.754 497.925 255.798C498.16 264.81 494.344 269.378 485.918 270.169C481.545 270.581 477.113 269.919 472.828 269.278L472.651 270.466C476.061 270.974 479.561 271.498 483.088 271.498C484.065 271.498 485.049 271.459 486.029 271.365C495.092 270.514 499.374 265.414 499.125 255.768C499.098 254.712 499.038 253.651 498.975 252.589C498.77 249.026 498.56 245.342 499.693 242.001C501.098 237.863 504.363 234.986 508.134 233.44L507.722 232.327Z" fill="#F4F4F4"/>
<path opacity="0.6" d="M343.211 277.103L343.469 277.25C347.607 269.952 359.404 269.152 366.037 271.793C367.95 272.553 369.877 273.483 371.745 274.382C376.439 276.643 381.283 278.979 386.494 278.979C386.861 278.979 387.228 278.967 387.598 278.943C394.379 278.507 399.822 274.09 405.087 269.82C409.875 265.935 414.824 261.92 420.724 260.976C426.678 260.017 432.641 262.317 438.195 264.936C438.866 265.252 439.539 265.577 440.213 265.899C445.148 268.268 450.248 270.716 455.781 271.179L455.883 269.982C450.569 269.537 445.572 267.138 440.736 264.816C440.06 264.491 439.386 264.167 438.713 263.851C432.984 261.147 426.81 258.787 420.538 259.788C414.322 260.781 409.243 264.9 404.333 268.885C398.98 273.227 393.922 277.332 387.526 277.744C382.206 278.098 377.157 275.654 372.271 273.296C370.386 272.388 368.437 271.45 366.485 270.671C356.667 266.768 346.097 270.563 342.564 276.442C342.522 276.514 342.468 276.58 342.426 276.652L343.211 277.103Z" fill="#F4F4F4"/>
</g>
<path d="M463.059 236.551L461.921 236.939L480.765 292.27L481.904 291.882L463.059 236.551Z" fill="#131313"/>
<path d="M343.197 261.592L342.176 313.914L343.379 313.937L344.399 261.615L343.197 261.592Z" fill="#131313"/>
<path d="M404.435 201.523C396.213 201.523 388.437 197.569 383.03 190.616L383.98 189.879C389.267 196.675 396.878 200.488 404.937 200.317C412.635 200.161 419.699 196.363 424.315 189.897L425.295 190.598C420.453 197.373 413.044 201.354 404.964 201.52C404.784 201.523 404.609 201.523 404.435 201.523Z" fill="#131313"/>
<path d="M310.313 291.02C316.393 294.769 317.169 303.313 311.895 308.13C311.895 308.13 308.286 311.438 302.429 321.662C300.299 325.367 294.177 325.463 295.211 321.06C297.016 313.35 296.559 307.324 292.95 307.925C289.342 308.527 279.274 322.564 275.064 323.466C270.854 324.368 272.057 318.354 272.057 318.354C272.057 318.354 269.351 323.767 265.742 324.368C262.134 324.97 258.621 320.495 271.155 301.815C284.837 281.418 299.96 284.636 310.313 291.02Z" fill="#FF8F78"/>
<path d="M272.58 318.652L271.54 318.047C276.05 310.277 280.564 302.997 286.163 299.304L286.825 300.309C281.442 303.86 277.016 311.011 272.58 318.652Z" fill="#131313"/>
<g filter="url(#filter0_d)">
<path d="M517.495 290.782L543.66 252.899L486.426 260.528L476.253 275.248L517.495 290.782Z" fill="white"/>
</g>
<path d="M524.243 264.027L507.713 289.291L508.719 289.95L525.249 264.686L524.243 264.027Z" fill="#D2D2D2"/>
<path d="M510.963 266.717L498.021 286.854L499.033 287.505L511.974 267.367L510.963 266.717Z" fill="#D2D2D2"/>
<g filter="url(#filter1_d)">
<path d="M463.533 261.346L517.495 290.782L457.263 333.844L406.573 307.95L463.533 261.346Z" fill="white"/>
</g>
<path d="M463.844 260.823L463.268 261.879L517.231 291.316L517.807 290.26L463.844 260.823Z" fill="#131313"/>
<path d="M481.371 330.815C494.795 338.733 512.317 329.781 513.526 314.243C513.703 311.97 513.439 309.826 512.422 308.154C508.354 301.469 496.876 297.837 493.387 298.42C489.899 299 488.302 302.489 496.004 308.737C496.004 308.737 483.073 298.131 478.713 299.003C475.748 299.596 477.985 304.669 477.985 304.669C477.985 304.669 473.625 300.164 471.448 302.053C468.546 304.567 471.592 309.462 473.048 312.078C473.048 312.078 468.528 310.154 469.123 313.678C470.413 321.292 475.291 327.231 481.371 330.815Z" fill="#FF8F78"/>
<path d="M495.856 320.429C488.76 316.679 482.072 311.065 477.51 305.03L478.469 304.305C482.929 310.205 489.472 315.696 496.419 319.364L495.856 320.429Z" fill="#131313"/>
<path d="M486.501 327.219C481.84 323.514 477.282 318.679 472.566 312.442L473.526 311.718C478.178 317.873 482.667 322.636 487.25 326.278L486.501 327.219Z" fill="#131313"/>
<path d="M421.01 134.441V165.778C420.983 174.444 413.955 181.451 405.289 181.451H403.253C394.569 181.451 387.532 174.417 387.532 165.73V134.441H421.01Z" fill="#FF8F78"/>
<path d="M421.01 136.486V165.775C409.138 165.342 398.688 154.826 394.136 143.086L421.01 136.486Z" fill="#131313"/>
<path d="M429.7 130.147C429.688 133.25 429.508 136.341 429.075 139.409C429.051 139.541 429.039 139.673 429.015 139.806C428.45 143.606 427.451 147.744 424.588 150.475C421.305 153.614 416.012 153.999 411.718 153.53C404.236 152.724 395.6 148.598 391.547 141.983L390.596 115.111L396.731 99.3181L428.089 110.156C428.63 113.451 428.979 116.783 429.243 120.103C429.52 123.423 429.712 126.791 429.7 130.147Z" fill="#FF8F78"/>
<path d="M390.677 125.795C391.649 116.783 394.286 109.145 401.993 105.678C401.993 105.678 423.355 123.549 434.37 116.209C451.814 104.577 433.742 87.1332 420.069 92.9489C409.836 82.5113 396.809 84.6192 395.236 94.0495C370.996 97.0956 372.761 109.295 383.448 125.326L390.677 125.795Z" fill="#131313"/>
<path d="M392.487 137.462C396.038 135.751 397.169 130.738 395.013 126.264C392.857 121.79 388.232 119.551 384.681 121.261C381.131 122.972 380 127.986 382.156 132.459C384.311 136.933 388.937 139.173 392.487 137.462Z" fill="#FF8F78"/>
<path d="M390.32 131.41H389.117C389.117 129.326 388.461 127.597 387.316 126.665C386.651 126.126 385.899 125.925 385.129 126.084L384.886 124.908C386.008 124.671 387.135 124.969 388.076 125.732C389.502 126.89 390.32 128.959 390.32 131.41Z" fill="#131313"/>
<path d="M419.332 128.724C419.882 129.443 420.37 130.189 420.839 130.944C421.082 131.316 421.305 131.701 421.53 132.083C421.738 132.45 422.017 132.892 422.138 133.451C422.279 133.996 422.156 134.73 421.75 135.196C421.35 135.659 420.872 135.893 420.418 136.068C419.506 136.416 418.61 136.489 417.747 136.633L417.591 136.191C418.409 135.755 419.272 135.472 419.994 135.102C420.348 134.913 420.67 134.702 420.833 134.468C421.004 134.245 421.025 134.02 420.971 133.698C420.824 133.091 420.267 132.213 419.943 131.416C419.57 130.604 419.209 129.783 418.914 128.935L419.332 128.724Z" fill="#131313"/>
<path d="M412.271 129.206C413.047 129.206 413.676 128.308 413.676 127.2C413.676 126.092 413.047 125.194 412.271 125.194C411.496 125.194 410.867 126.092 410.867 127.2C410.867 128.308 411.496 129.206 412.271 129.206Z" fill="#131313"/>
<path d="M424.149 129.518C424.814 129.518 425.352 128.75 425.352 127.801C425.352 126.853 424.814 126.084 424.149 126.084C423.485 126.084 422.947 126.853 422.947 127.801C422.947 128.75 423.485 129.518 424.149 129.518Z" fill="#131313"/>
<path d="M409 140.896C408.982 140.01 410.051 140.184 411 140.5C412.5 141 413.838 140.896 414.96 140.896C415.965 140.896 418.951 139.434 419.5 140.896C420.132 142.583 417.5 143.879 416.527 143.894C414.914 143.919 413.5 144 412 143.5C411.376 143.292 410.455 142.896 410.033 142.5C409.5 142 409.009 141.272 409 140.896Z" fill="#F4F4F4"/>
<path d="M414.87 120.954C414.926 122.304 413.205 122.092 411.17 122.067C409.134 122.041 407.489 121.501 407.499 120.859C407.506 120.216 409.164 119.721 411.2 119.746C413.235 119.772 414.827 119.918 414.87 120.954Z" fill="#131313"/>
<path d="M422.493 121.745C422.532 123.042 424.04 122.952 425.837 123.059C427.634 123.166 429.054 122.751 429.004 122.133C428.956 121.513 427.457 120.925 425.66 120.818C423.86 120.712 422.463 120.75 422.493 121.745Z" fill="#131313"/>
<path opacity="0.4" d="M403.626 138.852C406.325 138.852 408.513 136.665 408.513 133.966C408.513 131.267 406.325 129.079 403.626 129.079C400.927 129.079 398.74 131.267 398.74 133.966C398.74 136.665 400.927 138.852 403.626 138.852Z" fill="#FF5970"/>
<path opacity="0.4" d="M429.7 130.147C429.688 133.25 429.508 136.341 429.075 139.409C429.051 139.541 429.039 139.673 429.015 139.805C426.802 139.336 425.13 137.376 425.13 135.018C425.13 132.432 427.15 130.303 429.7 130.147Z" fill="#FF5970"/>
<path d="M406.519 73.7969C400.76 69.4005 397.639 61.9159 398.568 54.729C398.808 52.8616 399.32 51.0453 400.062 49.3312C397.47 48.4923 395.128 47.0699 393.411 44.7635C391.276 41.8917 390.774 38.4275 391.264 35.1468C389.126 35.1829 386.87 34.9935 384.762 34.2718C381.283 33.084 378.676 30.4768 377.957 27.4667C376.938 23.2027 379.344 18.7221 385.108 14.1513C392.47 8.31459 400.613 3.55437 409.309 0L409.766 1.11263C401.172 4.6249 393.128 9.32798 385.857 15.0926C380.492 19.3476 378.228 23.4162 379.127 27.1871C379.753 29.8002 382.059 32.0796 385.15 33.1351C387.195 33.8327 389.357 33.9951 391.492 33.944C391.997 31.7067 392.939 29.6047 394.102 27.9027C397.494 22.9501 402.946 19.7325 407.83 17.2426C410.683 15.7872 414.009 14.2506 417.504 14.4671C420.908 14.6776 424.705 17.2035 424.907 20.9113C425.163 25.6534 419.924 28.45 416.779 29.695C409.595 32.5367 402.05 34.3138 394.352 34.9814C393.748 35.0325 393.122 35.0807 392.482 35.1137C391.979 38.1689 392.403 41.4016 394.376 44.0538C395.949 46.1708 398.135 47.4729 400.574 48.2397C402.784 43.8433 406.534 40.2258 411.107 38.3223C413.922 37.1495 416.457 36.8879 418.64 37.5465C421.416 38.3794 423.406 40.9324 423.271 43.4794C422.991 48.7659 415.576 49.9146 413.312 50.1401C409.694 50.501 405.238 50.6964 401.223 49.677C400.492 51.3309 399.993 53.0871 399.759 54.8943C398.884 61.6633 401.822 68.7119 407.246 72.8527L406.519 73.7969ZM401.758 48.5554C405.541 49.4696 409.766 49.2741 413.194 48.9313C415.218 48.7298 421.846 47.7345 422.074 43.4043C422.195 41.1129 420.219 39.2635 418.3 38.6862C416.385 38.1088 414.124 38.3584 411.577 39.4199C407.337 41.185 403.851 44.5079 401.758 48.5554ZM416.845 15.6398C413.865 15.6398 410.927 17.0051 408.38 18.3071C403.391 20.8511 398.327 23.8582 395.098 28.5763C394.066 30.0859 393.218 31.9262 392.734 33.8868C393.245 33.8568 393.751 33.8177 394.253 33.7756C401.834 33.12 409.267 31.3669 416.34 28.5703C419.184 27.4457 423.924 24.9618 423.707 20.9714C423.542 17.9222 420.321 15.8413 417.428 15.6639C417.236 15.6459 417.04 15.6398 416.845 15.6398Z" fill="#131313"/>
<path d="M75.0238 253.645V222.371H15.688V263.195H74.9997L75.0238 263.27H84.6495L75.0238 253.645Z" fill="#F4F4F4"/>
<path d="M86.102 263.871H74.5849L74.5608 263.796H15.0867V221.769H75.6253V253.392L86.102 263.871ZM75.4629 262.669H83.1971L74.4225 253.891V222.972H16.2895V262.593H75.4389L75.4629 262.669Z" fill="#131313"/>
<path d="M45.2538 249.666L15.2852 222.819L16.088 221.923L45.2538 248.057L74.624 221.923L75.4238 222.819L45.2538 249.666Z" fill="#131313"/>
<path d="M14.3618 233.046C22.2937 233.046 28.7237 226.616 28.7237 218.684C28.7237 210.752 22.2937 204.322 14.3618 204.322C6.43001 204.322 0 210.752 0 218.684C0 226.616 6.43001 233.046 14.3618 233.046Z" fill="#FF5970"/>
<path d="M272.845 182.605C272.845 172.541 264.687 164.382 254.622 164.382H216.203C206.139 164.382 197.98 172.541 197.98 182.605C197.98 192.67 206.139 200.828 216.203 200.828H252.433L257.476 212.267L263.556 198.477C269.098 195.352 272.845 189.422 272.845 182.605Z" fill="#F4F4F4"/>
<path d="M257.476 213.759L252.039 201.429H216.2C205.82 201.429 197.376 192.986 197.376 182.605C197.376 172.225 205.82 163.781 216.2 163.781H254.619C264.999 163.781 273.443 172.225 273.443 182.605C273.443 189.311 269.841 195.539 264.025 198.901L257.476 213.759ZM216.2 164.987C206.484 164.987 198.579 172.892 198.579 182.608C198.579 192.324 206.484 200.23 216.2 200.23H252.824L257.476 210.782L263.087 198.056L263.261 197.956C268.8 194.832 272.243 188.95 272.243 182.608C272.243 172.892 264.338 164.987 254.622 164.987H216.2Z" fill="#131313"/>
<path d="M218.874 186.44C221.282 186.44 223.234 184.488 223.234 182.08C223.234 179.671 221.282 177.719 218.874 177.719C216.466 177.719 214.513 179.671 214.513 182.08C214.513 184.488 216.466 186.44 218.874 186.44Z" fill="#D2D2D2"/>
<path d="M235.413 186.439C237.821 186.439 239.773 184.487 239.773 182.079C239.773 179.671 237.821 177.719 235.413 177.719C233.005 177.719 231.052 179.671 231.052 182.079C231.052 184.487 233.005 186.439 235.413 186.439Z" fill="#D2D2D2"/>
<path d="M251.952 186.439C254.36 186.439 256.312 184.487 256.312 182.079C256.312 179.671 254.36 177.719 251.952 177.719C249.543 177.719 247.591 179.671 247.591 182.079C247.591 184.487 249.543 186.439 251.952 186.439Z" fill="#D2D2D2"/>
<path d="M313.14 324.164H239.166V333.786H313.14V324.164Z" fill="#D2D2D2"/>
<path d="M254 333.786H155.77L119.685 238.363H217.915L254 333.786Z" fill="#D2D2D2"/>
<path d="M253.437 334L217.5 238.964H170.604V237.761H218.332L254.562 333.576L253.437 334Z" fill="#131313"/>
<path d="M313.14 323.562H249.991V324.765H313.14V323.562Z" fill="#131313"/>
<defs>
<filter id="filter0_d" x="471.253" y="249.899" width="77.4068" height="47.8832" filterUnits="userSpaceOnUse" color-interpolation-filters="sRGB">
<feFlood flood-opacity="0" result="BackgroundImageFix"/>
<feColorMatrix in="SourceAlpha" type="matrix" values="0 0 0 0 0 0 0 0 0 0 0 0 0 0 0 0 0 0 127 0" result="hardAlpha"/>
<feOffset dy="2"/>
<feGaussianBlur stdDeviation="2.5"/>
<feColorMatrix type="matrix" values="0 0 0 0 0 0 0 0 0 0 0 0 0 0 0 0 0 0 0.1 0"/>
<feBlend mode="normal" in2="BackgroundImageFix" result="effect1_dropShadow"/>
<feBlend mode="normal" in="SourceGraphic" in2="effect1_dropShadow" result="shape"/>
</filter>
<filter id="filter1_d" x="401.573" y="258.346" width="120.922" height="82.4978" filterUnits="userSpaceOnUse" color-interpolation-filters="sRGB">
<feFlood flood-opacity="0" result="BackgroundImageFix"/>
<feColorMatrix in="SourceAlpha" type="matrix" values="0 0 0 0 0 0 0 0 0 0 0 0 0 0 0 0 0 0 127 0" result="hardAlpha"/>
<feOffset dy="2"/>
<feGaussianBlur stdDeviation="2.5"/>
<feColorMatrix type="matrix" values="0 0 0 0 0 0 0 0 0 0 0 0 0 0 0 0 0 0 0.1 0"/>
<feBlend mode="normal" in2="BackgroundImageFix" result="effect1_dropShadow"/>
<feBlend mode="normal" in="SourceGraphic" in2="effect1_dropShadow" result="shape"/>
</filter>
<linearGradient id="paint0_linear" x1="330.185" y1="-32.9971" x2="390.073" y2="448.184" gradientUnits="userSpaceOnUse">
<stop stop-color="#FF5E89"/>
<stop offset="0.109" stop-color="#DC55A2"/>
<stop offset="0.2591" stop-color="#B149C1"/>
<stop offset="0.3356" stop-color="#A045CD"/>
<stop offset="0.3799" stop-color="#9743D4"/>
<stop offset="0.5279" stop-color="#7C3CE7"/>
<stop offset="0.6792" stop-color="#6937F4"/>
<stop offset="0.8345" stop-color="#5E34FC"/>
<stop offset="1" stop-color="#5A33FF"/>
</linearGradient>
<linearGradient id="paint1_linear" x1="371.272" y1="83.3046" x2="417.064" y2="410.616" gradientUnits="userSpaceOnUse">
<stop offset="0.5279" stop-color="#7C3CE7"/>
<stop offset="0.6792" stop-color="#6937F4"/>
<stop offset="0.8345" stop-color="#5E34FC"/>
<stop offset="1" stop-color="#5A33FF"/>
</linearGradient>
</defs>
</svg>
