<svg width="200" height="50" viewBox="0 0 200 50" fill="none" xmlns="http://www.w3.org/2000/svg">
<path d="M48.0079 19.0308C48.0079 18.2948 48.3839 17.9268 49.1359 17.9268H62.7439C63.8319 17.9268 64.8079 18.0228 65.6719 18.2148C66.5519 18.3908 67.2959 18.6468 67.9039 18.9828C68.5119 19.3188 68.9759 19.7268 69.2959 20.2068C69.6319 20.6868 69.7999 21.2228 69.7999 21.8148V25.2948C69.7999 25.8868 69.6319 26.4228 69.2959 26.9028C68.9759 27.3828 68.5119 27.7908 67.9039 28.1268C67.2959 28.4628 66.5519 28.7268 65.6719 28.9188C64.8079 29.0948 63.8319 29.1828 62.7439 29.1828H51.1999V34.2948C51.1999 34.7588 51.0639 35.0628 50.7919 35.2068C50.5199 35.3508 50.1199 35.4228 49.5919 35.4228C49.0799 35.4228 48.6879 35.3508 48.4159 35.2068C48.1439 35.0628 48.0079 34.7588 48.0079 34.2948V19.0308ZM51.1999 20.5188V26.5908H62.4559C63.2719 26.5908 63.9439 26.5508 64.4719 26.4708C65.0159 26.3908 65.4479 26.2868 65.7679 26.1588C66.0879 26.0148 66.3119 25.8548 66.4399 25.6788C66.5679 25.4868 66.6319 25.2788 66.6319 25.0548V22.0548C66.6319 21.8468 66.5679 21.6468 66.4399 21.4548C66.3119 21.2628 66.0879 21.1028 65.7679 20.9748C65.4479 20.8308 65.0159 20.7188 64.4719 20.6388C63.9439 20.5588 63.2719 20.5188 62.4559 20.5188H51.1999ZM71.4169 25.9428C71.4169 23.1588 73.6809 21.7668 78.2089 21.7668H83.4409C87.9689 21.7668 90.2329 23.1588 90.2329 25.9428V31.1508C90.2329 33.9348 87.9689 35.3268 83.4409 35.3268H78.2089C73.6809 35.3268 71.4169 33.9348 71.4169 31.1508V25.9428ZM87.1849 25.9428C87.1849 25.4468 86.8809 25.0308 86.2729 24.6948C85.6649 24.3588 84.6889 24.1908 83.3449 24.1908H78.3049C76.9609 24.1908 75.9849 24.3588 75.3769 24.6948C74.7689 25.0308 74.4649 25.4468 74.4649 25.9428V31.1508C74.4649 31.6308 74.7689 32.0468 75.3769 32.3988C75.9849 32.7348 76.9609 32.9028 78.3049 32.9028H83.3449C84.6889 32.9028 85.6649 32.7348 86.2729 32.3988C86.8809 32.0468 87.1849 31.6308 87.1849 31.1508V25.9428ZM91.9693 25.3668C91.9693 24.2468 92.4493 23.3668 93.4093 22.7268C94.3693 22.0868 95.7933 21.7668 97.6813 21.7668H100.969C101.337 21.7668 101.577 21.8708 101.689 22.0788C101.801 22.2708 101.857 22.5748 101.857 22.9908C101.857 23.3908 101.801 23.6948 101.689 23.9028C101.577 24.0948 101.337 24.1908 100.969 24.1908H97.6573C96.7453 24.1908 96.0733 24.3028 95.6413 24.5268C95.2093 24.7348 94.9933 25.0228 94.9933 25.3908V26.0148C94.9933 26.3828 95.2173 26.6788 95.6653 26.9028C96.1133 27.1268 96.8173 27.2388 97.7773 27.2388H103.081C105.321 27.2388 106.937 27.5588 107.929 28.1988C108.921 28.8388 109.417 29.7348 109.417 30.8868V31.6548C109.417 32.2308 109.289 32.7508 109.033 33.2148C108.777 33.6628 108.377 34.0468 107.833 34.3668C107.289 34.6708 106.585 34.9108 105.721 35.0868C104.857 35.2468 103.825 35.3268 102.625 35.3268H92.9053C92.5373 35.3268 92.2973 35.2308 92.1853 35.0388C92.0733 34.8308 92.0173 34.5188 92.0173 34.1028C92.0173 33.7028 92.0733 33.4068 92.1853 33.2148C92.2973 33.0068 92.5373 32.9028 92.9053 32.9028H103.081C103.721 32.9028 104.249 32.8788 104.665 32.8308C105.097 32.7668 105.433 32.6868 105.673 32.5908C105.929 32.4788 106.105 32.3508 106.201 32.2068C106.297 32.0628 106.345 31.8948 106.345 31.7028V30.8388C106.345 30.6468 106.297 30.4788 106.201 30.3348C106.105 30.1908 105.937 30.0628 105.697 29.9508C105.457 29.8388 105.129 29.7588 104.713 29.7108C104.313 29.6468 103.801 29.6148 103.177 29.6148H97.8013C95.8653 29.6148 94.4093 29.3028 93.4333 28.6788C92.4573 28.0388 91.9693 27.1668 91.9693 26.0628V25.3668ZM111.416 21.7668V18.9588C111.416 18.4948 111.536 18.1908 111.776 18.0468C112.032 17.9028 112.416 17.8308 112.928 17.8308C113.44 17.8308 113.824 17.9028 114.08 18.0468C114.336 18.1908 114.464 18.4948 114.464 18.9588V21.7668H119.528C119.896 21.7668 120.128 21.8708 120.224 22.0788C120.336 22.2868 120.392 22.5908 120.392 22.9908C120.392 23.3908 120.336 23.6948 120.224 23.9028C120.128 24.0948 119.896 24.1908 119.528 24.1908H114.464V34.2948C114.464 34.7588 114.336 35.0628 114.08 35.2068C113.824 35.3508 113.44 35.4228 112.928 35.4228C112.416 35.4228 112.032 35.3508 111.776 35.2068C111.536 35.0628 111.416 34.7588 111.416 34.2948V24.1908H110.048C109.68 24.1908 109.44 24.0948 109.328 23.9028C109.232 23.6948 109.184 23.3908 109.184 22.9908C109.184 22.5908 109.232 22.2868 109.328 22.0788C109.44 21.8708 109.68 21.7668 110.048 21.7668H111.416ZM123.674 35.3268C119.146 35.3268 116.882 33.9348 116.882 31.1508V29.8788C116.882 27.0948 119.146 25.7028 123.674 25.7028H133.946V25.6788C133.946 25.2148 133.642 24.8548 133.034 24.5988C132.442 24.3268 131.466 24.1908 130.106 24.1908H127.85C127.482 24.1908 127.242 24.0948 127.13 23.9028C127.018 23.6948 126.962 23.3908 126.962 22.9908C126.962 22.5748 127.018 22.2708 127.13 22.0788C127.242 21.8708 127.482 21.7668 127.85 21.7668H130.202C134.73 21.7668 136.994 23.1588 136.994 25.9428V31.1508C136.994 33.9348 134.73 35.3268 130.202 35.3268H123.674ZM130.106 32.9028C131.45 32.9028 132.426 32.7348 133.034 32.3988C133.642 32.0468 133.946 31.6308 133.946 31.1508V28.0308H123.77C122.426 28.0308 121.45 28.1988 120.842 28.5348C120.234 28.8708 119.93 29.2868 119.93 29.7828V31.1508C119.93 31.6308 120.234 32.0468 120.842 32.3988C121.45 32.7348 122.426 32.9028 123.77 32.9028H130.106ZM163.519 35.4228C163.007 35.4228 162.623 35.3508 162.367 35.2068C162.111 35.0628 161.983 34.7588 161.983 34.2948V25.9428C161.983 25.4468 161.711 25.0308 161.167 24.6948C160.623 24.3588 159.679 24.1908 158.335 24.1908H156.991C156.319 24.1908 155.759 24.2388 155.311 24.3348C154.879 24.4148 154.527 24.5348 154.255 24.6948C153.983 24.8548 153.791 25.0468 153.679 25.2708C153.567 25.4788 153.511 25.7028 153.511 25.9428V34.2948C153.511 34.7588 153.383 35.0628 153.127 35.2068C152.871 35.3508 152.487 35.4228 151.975 35.4228C151.431 35.4228 151.039 35.3428 150.799 35.1828C150.575 35.0228 150.463 34.7268 150.463 34.2948V25.9428C150.463 25.7028 150.407 25.4788 150.295 25.2708C150.183 25.0468 149.991 24.8548 149.719 24.6948C149.447 24.5348 149.087 24.4148 148.639 24.3348C148.207 24.2388 147.655 24.1908 146.983 24.1908H145.639C144.295 24.1908 143.351 24.3588 142.807 24.6948C142.263 25.0308 141.991 25.4468 141.991 25.9428V34.2948C141.991 34.7588 141.863 35.0628 141.607 35.2068C141.351 35.3508 140.967 35.4228 140.455 35.4228C139.943 35.4228 139.559 35.3508 139.303 35.2068C139.063 35.0628 138.943 34.7588 138.943 34.2948V25.9428C138.943 24.5348 139.479 23.4868 140.551 22.7988C141.639 22.1108 143.159 21.7668 145.111 21.7668H147.487C149.503 21.7668 150.999 22.1668 151.975 22.9668C152.967 22.1668 154.471 21.7668 156.487 21.7668H158.863C160.815 21.7668 162.327 22.1108 163.399 22.7988C164.487 23.4868 165.031 24.5348 165.031 25.9428V34.2948C165.031 34.7588 164.903 35.0628 164.647 35.2068C164.407 35.3508 164.031 35.4228 163.519 35.4228ZM173.62 35.3268C169.092 35.3268 166.828 33.9348 166.828 31.1508V29.8788C166.828 27.0948 169.092 25.7028 173.62 25.7028H183.892V25.6788C183.892 25.2148 183.588 24.8548 182.98 24.5988C182.388 24.3268 181.412 24.1908 180.052 24.1908H177.796C177.428 24.1908 177.188 24.0948 177.076 23.9028C176.964 23.6948 176.908 23.3908 176.908 22.9908C176.908 22.5748 176.964 22.2708 177.076 22.0788C177.188 21.8708 177.428 21.7668 177.796 21.7668H180.148C184.676 21.7668 186.94 23.1588 186.94 25.9428V31.1508C186.94 33.9348 184.676 35.3268 180.148 35.3268H173.62ZM180.052 32.9028C181.396 32.9028 182.372 32.7348 182.98 32.3988C183.588 32.0468 183.892 31.6308 183.892 31.1508V28.0308H173.716C172.372 28.0308 171.396 28.1988 170.788 28.5348C170.18 28.8708 169.876 29.2868 169.876 29.7828V31.1508C169.876 31.6308 170.18 32.0468 170.788 32.3988C171.396 32.7348 172.372 32.9028 173.716 32.9028H180.052ZM189.978 21.7668V18.9588C189.978 18.4948 190.098 18.1908 190.338 18.0468C190.594 17.9028 190.978 17.8308 191.49 17.8308C192.002 17.8308 192.386 17.9028 192.642 18.0468C192.898 18.1908 193.026 18.4948 193.026 18.9588V21.7668H198.09C198.458 21.7668 198.69 21.8708 198.786 22.0788C198.898 22.2868 198.954 22.5908 198.954 22.9908C198.954 23.3908 198.898 23.6948 198.786 23.9028C198.69 24.0948 198.458 24.1908 198.09 24.1908H193.026V34.2948C193.026 34.7588 192.898 35.0628 192.642 35.2068C192.386 35.3508 192.002 35.4228 191.49 35.4228C190.978 35.4228 190.594 35.3508 190.338 35.2068C190.098 35.0628 189.978 34.7588 189.978 34.2948V24.1908H188.61C188.242 24.1908 188.002 24.0948 187.89 23.9028C187.794 23.6948 187.746 23.3908 187.746 22.9908C187.746 22.5908 187.794 22.2868 187.89 22.0788C188.002 21.8708 188.242 21.7668 188.61 21.7668H189.978Z" fill="#131313"/>
<path d="M47.4439 46.6308C47.4439 46.3748 47.5159 46.1868 47.6599 46.0668C47.8119 45.9468 48.0559 45.8868 48.3919 45.8868C48.7279 45.8868 48.9679 45.9468 49.1119 46.0668C49.2639 46.1868 49.3399 46.3748 49.3399 46.6308C49.3399 46.8868 49.2639 47.0748 49.1119 47.1948C48.9679 47.3148 48.7279 47.3748 48.3919 47.3748C48.0559 47.3748 47.8119 47.3148 47.6599 47.1948C47.5159 47.0748 47.4439 46.8868 47.4439 46.6308ZM51.9433 48.7788C51.9433 49.0108 51.8793 49.1628 51.7513 49.2348C51.6233 49.3068 51.4313 49.3428 51.1753 49.3428C50.9193 49.3428 50.7273 49.3068 50.5993 49.2348C50.4793 49.1628 50.4193 49.0108 50.4193 48.7788V42.6348C50.4193 41.2428 51.5513 40.5468 53.8153 40.5468H56.6953C58.9593 40.5468 60.0913 41.2428 60.0913 42.6348V45.2388C60.0913 46.6308 58.9593 47.3268 56.6953 47.3268H51.9433V48.7788ZM56.6473 46.1148C57.3193 46.1148 57.8073 46.0308 58.1113 45.8628C58.4153 45.6948 58.5673 45.4868 58.5673 45.2388V42.6348C58.5673 42.3948 58.4153 42.1908 58.1113 42.0228C57.8073 41.8468 57.3193 41.7588 56.6473 41.7588H53.8633C53.1913 41.7588 52.7033 41.8468 52.3993 42.0228C52.0953 42.1908 51.9433 42.3948 51.9433 42.6348V46.1148H56.6473ZM65.1039 40.5468C65.2879 40.5468 65.4039 40.5988 65.4519 40.7028C65.5079 40.8068 65.5359 40.9588 65.5359 41.1588C65.5359 41.3588 65.5079 41.5108 65.4519 41.6148C65.4039 41.7108 65.2879 41.7588 65.1039 41.7588H64.1679C63.5759 41.7588 63.1639 41.8348 62.9319 41.9868C62.6999 42.1388 62.5839 42.3508 62.5839 42.6228V46.8108C62.5839 47.0428 62.5199 47.1948 62.3919 47.2668C62.2639 47.3388 62.0719 47.3748 61.8159 47.3748C61.5599 47.3748 61.3679 47.3388 61.2399 47.2668C61.1199 47.1948 61.0599 47.0428 61.0599 46.8108V42.6228C61.0599 41.9268 61.3239 41.4068 61.8519 41.0628C62.3879 40.7188 63.1599 40.5468 64.1679 40.5468H65.1039ZM66.0624 42.6348C66.0624 41.2428 67.1944 40.5468 69.4584 40.5468H72.0744C74.3384 40.5468 75.4704 41.2428 75.4704 42.6348V45.2388C75.4704 46.6308 74.3384 47.3268 72.0744 47.3268H69.4584C67.1944 47.3268 66.0624 46.6308 66.0624 45.2388V42.6348ZM73.9464 42.6348C73.9464 42.3868 73.7944 42.1788 73.4904 42.0108C73.1864 41.8428 72.6984 41.7588 72.0264 41.7588H69.5064C68.8344 41.7588 68.3464 41.8428 68.0424 42.0108C67.7384 42.1788 67.5864 42.3868 67.5864 42.6348V45.2388C67.5864 45.4788 67.7384 45.6868 68.0424 45.8628C68.3464 46.0308 68.8344 46.1148 69.5064 46.1148H72.0264C72.6984 46.1148 73.1864 46.0308 73.4904 45.8628C73.7944 45.6868 73.9464 45.4788 73.9464 45.2388V42.6348ZM86.2103 38.5908C86.4423 38.5908 86.6303 38.6268 86.7743 38.6988C86.9263 38.7708 87.0503 38.8748 87.1463 39.0108L92.3783 46.4748C92.4343 46.5628 92.4623 46.6548 92.4623 46.7508C92.4623 46.8388 92.4343 46.9228 92.3783 47.0028C92.3303 47.0828 92.2623 47.1508 92.1743 47.2068C92.0943 47.2628 92.0023 47.3068 91.8983 47.3388C91.7943 47.3708 91.6903 47.3868 91.5863 47.3868C91.4743 47.3868 91.3743 47.3668 91.2863 47.3268C91.1983 47.2948 91.1223 47.2348 91.0583 47.1468L89.6423 45.0828H82.9703L81.6383 47.1468C81.5823 47.2348 81.5063 47.2948 81.4103 47.3268C81.3223 47.3668 81.2263 47.3868 81.1223 47.3868C81.0263 47.3868 80.9263 47.3708 80.8223 47.3388C80.7183 47.3068 80.6223 47.2628 80.5343 47.2068C80.4543 47.1428 80.3863 47.0748 80.3303 47.0028C80.2823 46.9228 80.2583 46.8348 80.2583 46.7388C80.2583 46.6588 80.2863 46.5708 80.3423 46.4748L85.2623 39.0108C85.3503 38.8748 85.4703 38.7708 85.6223 38.6988C85.7743 38.6268 85.9703 38.5908 86.2103 38.5908ZM83.7983 43.7868H88.7543L86.2103 40.0548L83.7983 43.7868ZM95.9069 39.9228V46.8108C95.9069 47.0428 95.8389 47.1948 95.7029 47.2668C95.5669 47.3388 95.3669 47.3748 95.1029 47.3748C94.8469 47.3748 94.6509 47.3388 94.5149 47.2668C94.3789 47.1948 94.3109 47.0428 94.3109 46.8108V39.9228H90.6989C90.5069 39.9228 90.3789 39.8708 90.3149 39.7668C90.2589 39.6548 90.2309 39.4908 90.2309 39.2748C90.2309 39.0588 90.2589 38.8988 90.3149 38.7948C90.3789 38.6828 90.5069 38.6268 90.6989 38.6268H99.5309C99.7229 38.6268 99.8469 38.6828 99.9029 38.7948C99.9669 38.8988 99.9989 39.0588 99.9989 39.2748C99.9989 39.4908 99.9669 39.6548 99.9029 39.7668C99.8469 39.8708 99.7229 39.9228 99.5309 39.9228H95.9069ZM113.618 39.0708C113.746 38.9188 113.886 38.8108 114.038 38.7468C114.198 38.6828 114.374 38.6508 114.566 38.6508C115.158 38.6508 115.454 38.9228 115.454 39.4668V46.8108C115.454 47.0428 115.386 47.1948 115.25 47.2668C115.114 47.3388 114.914 47.3748 114.65 47.3748C114.386 47.3748 114.186 47.3388 114.05 47.2668C113.914 47.1948 113.846 47.0428 113.846 46.8108V41.1228L109.058 46.9188C108.922 47.0788 108.782 47.1948 108.638 47.2668C108.494 47.3388 108.318 47.3748 108.11 47.3748C107.878 47.3748 107.682 47.3388 107.522 47.2668C107.37 47.1948 107.23 47.0788 107.102 46.9188L102.302 41.1228V46.8108C102.302 47.0428 102.234 47.1948 102.098 47.2668C101.962 47.3388 101.762 47.3748 101.498 47.3748C101.242 47.3748 101.046 47.3388 100.91 47.2668C100.774 47.1948 100.706 47.0428 100.706 46.8108V39.4668C100.706 38.9228 100.998 38.6508 101.582 38.6508C101.974 38.6508 102.29 38.7908 102.53 39.0708L108.05 45.7308L113.618 39.0708Z" fill="#131313"/>
<path fill-rule="evenodd" clip-rule="evenodd" d="M40.034 13.4071C39.5996 13.4361 39.1856 13.669 38.9423 14.0694C34.3326 21.6554 30.1579 25.8505 26.5143 27.792C22.9612 29.6853 19.8526 29.4734 17.075 28.0455C14.2105 26.573 11.6129 23.7556 9.36928 20.2966C7.35156 17.1858 5.68308 13.6541 4.4034 10.3588C4.3893 9.82845 4.17209 9.33642 3.81791 8.97092C3.61488 8.70241 3.32179 8.5201 2.99928 8.45189C2.87862 8.41083 2.75244 8.38035 2.62166 8.36168C1.48687 8.19966 0.43559 8.98825 0.273572 10.123C-1.68632 23.8504 7.1767 36.0408 17.5076 39.4075C22.7742 41.1237 28.5152 40.564 33.2874 36.6481C37.9908 32.7887 41.4521 25.9171 42.8606 15.616C43.0159 14.4803 42.2211 13.4337 41.0854 13.2784C40.7163 13.2279 40.3567 13.2778 40.034 13.4071ZM37.5698 21.088C35.9517 27.2397 33.4282 31.1628 30.6542 33.4391C27.1314 36.3297 22.9152 36.8037 18.7938 35.4606C11.9334 33.225 5.60694 26.0079 4.36968 17.1068C5.1787 18.7117 6.07201 20.2986 7.0475 21.8025C9.40791 25.4416 12.3276 28.7167 15.8098 30.5068C19.379 32.3416 23.4468 32.5624 27.8157 30.2344C30.9503 28.5641 34.2 25.6053 37.5698 21.088Z" fill="#131313"/>
<path d="M30.6542 33.4391C33.4282 31.1628 35.9517 27.2397 37.5698 21.088C34.2 25.6053 30.9503 28.5641 27.8157 30.2344C23.4468 32.5624 19.379 32.3416 15.8098 30.5068C12.3276 28.7167 9.40791 25.4416 7.0475 21.8025C6.07201 20.2986 5.1787 18.7117 4.36968 17.1068C5.60694 26.0079 11.9334 33.225 18.7938 35.4606C22.9152 36.8037 27.1314 36.3297 30.6542 33.4391Z" fill="#131313"/>
<path fill-rule="evenodd" clip-rule="evenodd" d="M15.4262 0.424793C15.0198 0.190187 14.5002 0.329413 14.2656 0.735764L8.42473 10.8525C8.19012 11.2589 8.32935 11.7785 8.7357 12.0131L26.8539 22.4736C27.2602 22.7082 27.7798 22.569 28.0144 22.1626L33.8553 12.0459C34.09 11.6395 33.9507 11.1199 33.5444 10.8853L15.4262 0.424793ZM21.827 9.51592L22.4642 8.41228L23.108 8.78397L22.4708 9.88762L21.827 9.51592ZM22.1248 7.7258C22.1834 7.62421 22.3133 7.58941 22.4149 7.64806L23.7945 8.44455C23.8961 8.5032 23.9309 8.6331 23.8722 8.73469L22.8102 10.5741C22.7516 10.6757 22.6217 10.7105 22.5201 10.6518L21.1406 9.85535C21.039 9.7967 21.0042 9.6668 21.0628 9.56521L22.1248 7.7258ZM20.4256 10.6689C20.4843 10.5673 20.6142 10.5325 20.7158 10.5911L22.0953 11.3876C22.1969 11.4462 22.2317 11.5761 22.1731 11.6777L21.3766 13.0573C21.3179 13.1589 21.188 13.1937 21.0864 13.135L19.7069 12.3385C19.6053 12.2799 19.5705 12.15 19.6291 12.0484L20.4256 10.6689ZM13.9536 2.76293C13.8521 2.70427 13.7222 2.73908 13.6635 2.84067C13.6048 2.94226 13.6397 3.07216 13.7412 3.13081L20.731 7.16635C20.8326 7.225 20.9625 7.19019 21.0211 7.0886C21.0798 6.98702 21.045 6.85712 20.9434 6.79846L13.9536 2.76293ZM24.9759 9.37187C25.0345 9.27028 25.1644 9.23548 25.266 9.29413L32.2558 13.3297C32.3574 13.3883 32.3922 13.5182 32.3335 13.6198C32.2749 13.7214 32.145 13.7562 32.0434 13.6975L25.0536 9.66201C24.952 9.60336 24.9172 9.47346 24.9759 9.37187ZM12.0952 5.9819C11.9936 5.92325 11.8637 5.95805 11.805 6.05964C11.7464 6.16123 11.7812 6.29113 11.8828 6.34978L18.8725 10.3853C18.9741 10.444 19.104 10.4092 19.1627 10.3076C19.2213 10.206 19.1865 10.0761 19.0849 10.0174L12.0952 5.9819ZM23.1174 12.5908C23.1761 12.4892 23.306 12.4544 23.4076 12.5131L30.3973 16.5486C30.4989 16.6073 30.5337 16.7372 30.4751 16.8388C30.4164 16.9404 30.2865 16.9752 30.1849 16.9165L23.1952 12.881C23.0936 12.8223 23.0588 12.6924 23.1174 12.5908ZM10.2367 9.20086C10.1351 9.14221 10.0052 9.17702 9.94655 9.2786C9.88789 9.38019 9.9227 9.51009 10.0243 9.56874L17.014 13.6043C17.1156 13.6629 17.2455 13.6281 17.3042 13.5265C17.3628 13.425 17.328 13.2951 17.2264 13.2364L10.2367 9.20086ZM21.2589 15.8098C21.3176 15.7082 21.4475 15.6734 21.5491 15.7321L28.5388 19.7676C28.6404 19.8263 28.6752 19.9562 28.6166 20.0577C28.5579 20.1593 28.428 20.1941 28.3264 20.1355L21.3367 16.1C21.2351 16.0413 21.2003 15.9114 21.2589 15.8098ZM15.8812 4.73419C15.7796 4.67554 15.6497 4.71034 15.5911 4.81193L14.476 6.74331C14.4173 6.8449 14.4521 6.9748 14.5537 7.03345C14.6553 7.0921 14.7852 7.0573 14.8439 6.95571L15.9589 5.02433C16.0176 4.92274 15.9828 4.79284 15.8812 4.73419ZM26.9034 11.3431C26.9621 11.2416 27.092 11.2067 27.1936 11.2654C27.2952 11.324 27.33 11.4539 27.2713 11.5555L26.1562 13.4869C26.0976 13.5885 25.9677 13.6233 25.8661 13.5647C25.7645 13.506 25.7297 13.3761 25.7884 13.2745L26.9034 11.3431ZM14.0227 7.95317C13.9211 7.89451 13.7912 7.92932 13.7326 8.03091L12.6175 9.96229C12.5588 10.0639 12.5937 10.1938 12.6952 10.2524C12.7968 10.3111 12.9267 10.2763 12.9854 10.1747L14.1005 8.24331C14.1591 8.14172 14.1243 8.01182 14.0227 7.95317ZM25.045 14.5621C25.1036 14.4605 25.2335 14.4257 25.3351 14.4844C25.4367 14.543 25.4715 14.6729 25.4129 14.7745L24.2978 16.7059C24.2391 16.8075 24.1092 16.8423 24.0076 16.7836C23.906 16.725 23.8712 16.5951 23.9299 16.4935L25.045 14.5621ZM18.2724 6.11477C18.1709 6.05612 18.041 6.09093 17.9823 6.19251L16.8672 8.12389C16.8086 8.22548 16.8434 8.35538 16.945 8.41403C17.0466 8.47268 17.1765 8.43788 17.2351 8.33629L18.3502 6.40491C18.4088 6.30332 18.374 6.17342 18.2724 6.11477ZM29.2947 12.7237C29.3533 12.6221 29.4832 12.5873 29.5848 12.646C29.6864 12.7046 29.7212 12.8345 29.6625 12.9361L28.5475 14.8675C28.4888 14.9691 28.3589 15.0039 28.2573 14.9452C28.1557 14.8866 28.1209 14.7567 28.1796 14.6551L29.2947 12.7237ZM16.414 9.33374C16.3124 9.27508 16.1825 9.30989 16.1238 9.41148L15.0087 11.3429C14.9501 11.4444 14.9849 11.5743 15.0865 11.633C15.1881 11.6916 15.318 11.6568 15.3766 11.5553L16.4917 9.62387C16.5504 9.52229 16.5156 9.39239 16.414 9.33374ZM27.4362 15.9427C27.4949 15.8411 27.6248 15.8063 27.7264 15.8649C27.828 15.9236 27.8628 16.0535 27.8041 16.1551L26.689 18.0865C26.6304 18.1881 26.5005 18.2229 26.3989 18.1642C26.2973 18.1056 26.2625 17.9757 26.3211 17.8741L27.4362 15.9427ZM22.8862 5.34498C22.7846 5.28633 22.6547 5.32114 22.5961 5.42272L16.649 15.7234C16.5903 15.825 16.6251 15.9549 16.7267 16.0136C16.8283 16.0722 16.9582 16.0374 17.0169 15.9358L22.964 5.63512C23.0226 5.53353 22.9878 5.40363 22.8862 5.34498ZM25.2632 6.9626C25.3219 6.86101 25.4518 6.8262 25.5534 6.88485C25.6549 6.94351 25.6897 7.07341 25.6311 7.17499L19.684 17.4757C19.6253 17.5773 19.4954 17.6121 19.3938 17.5534C19.2923 17.4948 19.2575 17.3649 19.3161 17.2633L25.2632 6.9626ZM14.8563 1.19943C14.7547 1.14078 14.6248 1.17558 14.5662 1.27717L14.3538 1.64505C14.2951 1.74664 14.3299 1.87654 14.4315 1.93519L21.4213 5.97073C21.5229 6.02938 21.6528 5.99458 21.7114 5.89299L21.9238 5.52511C21.9825 5.42352 21.9477 5.29362 21.8461 5.23497L14.8563 1.19943Z" fill="url(#paint0_linear)"/>
<defs>
<linearGradient id="paint0_linear" x1="11.3452" y1="5.79414" x2="30.9349" y2="17.1043" gradientUnits="userSpaceOnUse">
<stop stop-color="#F09819"/>
<stop offset="1" stop-color="#F7DD01"/>
</linearGradient>
</defs>
</svg>
