<svg width="601" height="661" viewBox="0 0 601 661" fill="none" xmlns="http://www.w3.org/2000/svg">
<path opacity="0.1" fill-rule="evenodd" clip-rule="evenodd" d="M335.03 9.86596C407.85 -2.46421 488.98 -10.3257 550.133 31.0883C611.877 72.9022 637.35 151.092 651.638 224.28C664.677 291.068 648.41 357.432 626.415 421.829C604.747 485.271 578.402 548.252 526.495 590.681C472.623 634.715 404.518 656.449 335.03 660.005C262.69 663.708 186.894 654.271 128.775 611.038C70.9798 568.046 43.9311 497.445 23.5982 428.342C3.77747 360.98 -13.2142 287.511 14.6102 223.041C41.4832 160.776 110.592 133.517 167.054 95.9528C220.752 60.2281 271.44 20.6333 335.03 9.86596Z" fill="url(#paint0_linear)"/>
<defs>
<linearGradient id="paint0_linear" x1="0" y1="330.369" x2="656.292" y2="330.369" gradientUnits="userSpaceOnUse">
<stop stop-color="#F09819"/>
<stop offset="1" stop-color="#F7DD01"/>
</linearGradient>
</defs>
</svg>
