<svg width="802" height="882" viewBox="0 0 802 882" fill="none" xmlns="http://www.w3.org/2000/svg">
<path opacity="0.1" fill-rule="evenodd" clip-rule="evenodd" d="M447.374 13.488C544.467 -2.95224 652.641 -13.4342 734.177 41.7845C816.502 97.5363 850.467 201.789 869.518 299.373C886.903 388.425 865.213 476.909 835.887 562.772C806.996 647.362 771.869 731.336 702.66 787.908C630.831 846.62 540.024 875.598 447.374 880.341C350.919 885.278 249.859 872.694 172.367 815.051C95.3063 757.728 59.2414 663.593 32.1308 571.457C5.70313 481.64 -16.9525 383.681 20.1468 297.721C55.9774 214.702 148.123 178.356 223.406 128.27C295.002 80.6375 362.587 27.8444 447.374 13.488Z" fill="url(#paint0_linear)"/>
<defs>
<linearGradient id="paint0_linear" x1="0.666504" y1="440.825" x2="875.722" y2="440.825" gradientUnits="userSpaceOnUse">
<stop stop-color="#F09819"/>
<stop offset="1" stop-color="#F7DD01"/>
</linearGradient>
</defs>
</svg>
