<svg width="364" height="588" viewBox="0 0 364 588" fill="none" xmlns="http://www.w3.org/2000/svg">
<path opacity="0.1" fill-rule="evenodd" clip-rule="evenodd" d="M363.248 323.409C357.446 386.77 298.31 428.719 253.304 473.693C215.426 511.544 174.37 543.926 124.104 562.384C72.1068 581.477 15.3909 598.246 -37.0115 580.296C-89.0716 562.463 -113.603 506.966 -152.197 467.74C-199.98 419.175 -294.718 391.359 -289.762 323.409C-284.688 253.84 -177.538 246.619 -132.203 193.606C-92.8077 147.538 -96.9417 71.5296 -46.1175 38.4973C9.95596 2.05336 84.5161 -10.1102 147.751 11.6548C210.608 33.2896 244.989 97.0206 282.788 151.704C319.631 205.003 369.157 258.886 363.248 323.409Z" fill="url(#paint0_linear)"/>
<defs>
<linearGradient id="paint0_linear" x1="36.891" y1="0.840806" x2="36.891" y2="587.952" gradientUnits="userSpaceOnUse">
<stop stop-color="#F09819"/>
<stop offset="1" stop-color="#F7DD01"/>
</linearGradient>
</defs>
</svg>
