<svg width="200" height="50" viewBox="0 0 200 50" fill="none" xmlns="http://www.w3.org/2000/svg">
<path d="M48.0079 19.0307C48.0079 18.2947 48.3839 17.9267 49.1359 17.9267H62.7439C63.8319 17.9267 64.8079 18.0227 65.6719 18.2147C66.5519 18.3907 67.2959 18.6467 67.9039 18.9827C68.5119 19.3187 68.9759 19.7267 69.2959 20.2067C69.6319 20.6867 69.7999 21.2227 69.7999 21.8147V25.2947C69.7999 25.8867 69.6319 26.4227 69.2959 26.9027C68.9759 27.3827 68.5119 27.7907 67.9039 28.1267C67.2959 28.4627 66.5519 28.7267 65.6719 28.9187C64.8079 29.0947 63.8319 29.1827 62.7439 29.1827H51.1999V34.2947C51.1999 34.7587 51.0639 35.0627 50.7919 35.2067C50.5199 35.3507 50.1199 35.4227 49.5919 35.4227C49.0799 35.4227 48.6879 35.3507 48.4159 35.2067C48.1439 35.0627 48.0079 34.7587 48.0079 34.2947V19.0307ZM51.1999 20.5187V26.5907H62.4559C63.2719 26.5907 63.9439 26.5507 64.4719 26.4707C65.0159 26.3907 65.4479 26.2867 65.7679 26.1587C66.0879 26.0147 66.3119 25.8547 66.4399 25.6787C66.5679 25.4867 66.6319 25.2787 66.6319 25.0547V22.0547C66.6319 21.8467 66.5679 21.6467 66.4399 21.4547C66.3119 21.2627 66.0879 21.1027 65.7679 20.9747C65.4479 20.8307 65.0159 20.7187 64.4719 20.6387C63.9439 20.5587 63.2719 20.5187 62.4559 20.5187H51.1999ZM71.4169 25.9427C71.4169 23.1587 73.6809 21.7667 78.2089 21.7667H83.4409C87.9689 21.7667 90.2329 23.1587 90.2329 25.9427V31.1507C90.2329 33.9347 87.9689 35.3267 83.4409 35.3267H78.2089C73.6809 35.3267 71.4169 33.9347 71.4169 31.1507V25.9427ZM87.1849 25.9427C87.1849 25.4467 86.8809 25.0307 86.2729 24.6947C85.6649 24.3587 84.6889 24.1907 83.3449 24.1907H78.3049C76.9609 24.1907 75.9849 24.3587 75.3769 24.6947C74.7689 25.0307 74.4649 25.4467 74.4649 25.9427V31.1507C74.4649 31.6307 74.7689 32.0467 75.3769 32.3987C75.9849 32.7347 76.9609 32.9027 78.3049 32.9027H83.3449C84.6889 32.9027 85.6649 32.7347 86.2729 32.3987C86.8809 32.0467 87.1849 31.6307 87.1849 31.1507V25.9427ZM91.9693 25.3667C91.9693 24.2467 92.4493 23.3667 93.4093 22.7267C94.3693 22.0867 95.7933 21.7667 97.6813 21.7667H100.969C101.337 21.7667 101.577 21.8707 101.689 22.0787C101.801 22.2707 101.857 22.5747 101.857 22.9907C101.857 23.3907 101.801 23.6947 101.689 23.9027C101.577 24.0947 101.337 24.1907 100.969 24.1907H97.6573C96.7453 24.1907 96.0733 24.3027 95.6413 24.5267C95.2093 24.7347 94.9933 25.0227 94.9933 25.3907V26.0147C94.9933 26.3827 95.2173 26.6787 95.6653 26.9027C96.1133 27.1267 96.8173 27.2387 97.7773 27.2387H103.081C105.321 27.2387 106.937 27.5587 107.929 28.1987C108.921 28.8387 109.417 29.7347 109.417 30.8867V31.6547C109.417 32.2307 109.289 32.7507 109.033 33.2147C108.777 33.6627 108.377 34.0467 107.833 34.3667C107.289 34.6707 106.585 34.9107 105.721 35.0867C104.857 35.2467 103.825 35.3267 102.625 35.3267H92.9053C92.5373 35.3267 92.2973 35.2307 92.1853 35.0387C92.0733 34.8307 92.0173 34.5187 92.0173 34.1027C92.0173 33.7027 92.0733 33.4067 92.1853 33.2147C92.2973 33.0067 92.5373 32.9027 92.9053 32.9027H103.081C103.721 32.9027 104.249 32.8787 104.665 32.8307C105.097 32.7667 105.433 32.6867 105.673 32.5907C105.929 32.4787 106.105 32.3507 106.201 32.2067C106.297 32.0627 106.345 31.8947 106.345 31.7027V30.8387C106.345 30.6467 106.297 30.4787 106.201 30.3347C106.105 30.1907 105.937 30.0627 105.697 29.9507C105.457 29.8387 105.129 29.7587 104.713 29.7107C104.313 29.6467 103.801 29.6147 103.177 29.6147H97.8013C95.8653 29.6147 94.4093 29.3027 93.4333 28.6787C92.4573 28.0387 91.9693 27.1667 91.9693 26.0627V25.3667ZM111.416 21.7667V18.9587C111.416 18.4947 111.536 18.1907 111.776 18.0467C112.032 17.9027 112.416 17.8307 112.928 17.8307C113.44 17.8307 113.824 17.9027 114.08 18.0467C114.336 18.1907 114.464 18.4947 114.464 18.9587V21.7667H119.528C119.896 21.7667 120.128 21.8707 120.224 22.0787C120.336 22.2867 120.392 22.5907 120.392 22.9907C120.392 23.3907 120.336 23.6947 120.224 23.9027C120.128 24.0947 119.896 24.1907 119.528 24.1907H114.464V34.2947C114.464 34.7587 114.336 35.0627 114.08 35.2067C113.824 35.3507 113.44 35.4227 112.928 35.4227C112.416 35.4227 112.032 35.3507 111.776 35.2067C111.536 35.0627 111.416 34.7587 111.416 34.2947V24.1907H110.048C109.68 24.1907 109.44 24.0947 109.328 23.9027C109.232 23.6947 109.184 23.3907 109.184 22.9907C109.184 22.5907 109.232 22.2867 109.328 22.0787C109.44 21.8707 109.68 21.7667 110.048 21.7667H111.416ZM123.674 35.3267C119.146 35.3267 116.882 33.9347 116.882 31.1507V29.8787C116.882 27.0947 119.146 25.7027 123.674 25.7027H133.946V25.6787C133.946 25.2147 133.642 24.8547 133.034 24.5987C132.442 24.3267 131.466 24.1907 130.106 24.1907H127.85C127.482 24.1907 127.242 24.0947 127.13 23.9027C127.018 23.6947 126.962 23.3907 126.962 22.9907C126.962 22.5747 127.018 22.2707 127.13 22.0787C127.242 21.8707 127.482 21.7667 127.85 21.7667H130.202C134.73 21.7667 136.994 23.1587 136.994 25.9427V31.1507C136.994 33.9347 134.73 35.3267 130.202 35.3267H123.674ZM130.106 32.9027C131.45 32.9027 132.426 32.7347 133.034 32.3987C133.642 32.0467 133.946 31.6307 133.946 31.1507V28.0307H123.77C122.426 28.0307 121.45 28.1987 120.842 28.5347C120.234 28.8707 119.93 29.2867 119.93 29.7827V31.1507C119.93 31.6307 120.234 32.0467 120.842 32.3987C121.45 32.7347 122.426 32.9027 123.77 32.9027H130.106ZM163.519 35.4227C163.007 35.4227 162.623 35.3507 162.367 35.2067C162.111 35.0627 161.983 34.7587 161.983 34.2947V25.9427C161.983 25.4467 161.711 25.0307 161.167 24.6947C160.623 24.3587 159.679 24.1907 158.335 24.1907H156.991C156.319 24.1907 155.759 24.2387 155.311 24.3347C154.879 24.4147 154.527 24.5347 154.255 24.6947C153.983 24.8547 153.791 25.0467 153.679 25.2707C153.567 25.4787 153.511 25.7027 153.511 25.9427V34.2947C153.511 34.7587 153.383 35.0627 153.127 35.2067C152.871 35.3507 152.487 35.4227 151.975 35.4227C151.431 35.4227 151.039 35.3427 150.799 35.1827C150.575 35.0227 150.463 34.7267 150.463 34.2947V25.9427C150.463 25.7027 150.407 25.4787 150.295 25.2707C150.183 25.0467 149.991 24.8547 149.719 24.6947C149.447 24.5347 149.087 24.4147 148.639 24.3347C148.207 24.2387 147.655 24.1907 146.983 24.1907H145.639C144.295 24.1907 143.351 24.3587 142.807 24.6947C142.263 25.0307 141.991 25.4467 141.991 25.9427V34.2947C141.991 34.7587 141.863 35.0627 141.607 35.2067C141.351 35.3507 140.967 35.4227 140.455 35.4227C139.943 35.4227 139.559 35.3507 139.303 35.2067C139.063 35.0627 138.943 34.7587 138.943 34.2947V25.9427C138.943 24.5347 139.479 23.4867 140.551 22.7987C141.639 22.1107 143.159 21.7667 145.111 21.7667H147.487C149.503 21.7667 150.999 22.1667 151.975 22.9667C152.967 22.1667 154.471 21.7667 156.487 21.7667H158.863C160.815 21.7667 162.327 22.1107 163.399 22.7987C164.487 23.4867 165.031 24.5347 165.031 25.9427V34.2947C165.031 34.7587 164.903 35.0627 164.647 35.2067C164.407 35.3507 164.031 35.4227 163.519 35.4227ZM173.62 35.3267C169.092 35.3267 166.828 33.9347 166.828 31.1507V29.8787C166.828 27.0947 169.092 25.7027 173.62 25.7027H183.892V25.6787C183.892 25.2147 183.588 24.8547 182.98 24.5987C182.388 24.3267 181.412 24.1907 180.052 24.1907H177.796C177.428 24.1907 177.188 24.0947 177.076 23.9027C176.964 23.6947 176.908 23.3907 176.908 22.9907C176.908 22.5747 176.964 22.2707 177.076 22.0787C177.188 21.8707 177.428 21.7667 177.796 21.7667H180.148C184.676 21.7667 186.94 23.1587 186.94 25.9427V31.1507C186.94 33.9347 184.676 35.3267 180.148 35.3267H173.62ZM180.052 32.9027C181.396 32.9027 182.372 32.7347 182.98 32.3987C183.588 32.0467 183.892 31.6307 183.892 31.1507V28.0307H173.716C172.372 28.0307 171.396 28.1987 170.788 28.5347C170.18 28.8707 169.876 29.2867 169.876 29.7827V31.1507C169.876 31.6307 170.18 32.0467 170.788 32.3987C171.396 32.7347 172.372 32.9027 173.716 32.9027H180.052ZM189.978 21.7667V18.9587C189.978 18.4947 190.098 18.1907 190.338 18.0467C190.594 17.9027 190.978 17.8307 191.49 17.8307C192.002 17.8307 192.386 17.9027 192.642 18.0467C192.898 18.1907 193.026 18.4947 193.026 18.9587V21.7667H198.09C198.458 21.7667 198.69 21.8707 198.786 22.0787C198.898 22.2867 198.954 22.5907 198.954 22.9907C198.954 23.3907 198.898 23.6947 198.786 23.9027C198.69 24.0947 198.458 24.1907 198.09 24.1907H193.026V34.2947C193.026 34.7587 192.898 35.0627 192.642 35.2067C192.386 35.3507 192.002 35.4227 191.49 35.4227C190.978 35.4227 190.594 35.3507 190.338 35.2067C190.098 35.0627 189.978 34.7587 189.978 34.2947V24.1907H188.61C188.242 24.1907 188.002 24.0947 187.89 23.9027C187.794 23.6947 187.746 23.3907 187.746 22.9907C187.746 22.5907 187.794 22.2867 187.89 22.0787C188.002 21.8707 188.242 21.7667 188.61 21.7667H189.978Z" fill="white"/>
<path d="M47.4439 46.6307C47.4439 46.3747 47.5159 46.1867 47.6599 46.0667C47.8119 45.9467 48.0559 45.8867 48.3919 45.8867C48.7279 45.8867 48.9679 45.9467 49.1119 46.0667C49.2639 46.1867 49.3399 46.3747 49.3399 46.6307C49.3399 46.8867 49.2639 47.0747 49.1119 47.1947C48.9679 47.3147 48.7279 47.3747 48.3919 47.3747C48.0559 47.3747 47.8119 47.3147 47.6599 47.1947C47.5159 47.0747 47.4439 46.8867 47.4439 46.6307ZM51.9433 48.7787C51.9433 49.0107 51.8793 49.1627 51.7513 49.2347C51.6233 49.3067 51.4313 49.3427 51.1753 49.3427C50.9193 49.3427 50.7273 49.3067 50.5993 49.2347C50.4793 49.1627 50.4193 49.0107 50.4193 48.7787V42.6347C50.4193 41.2427 51.5513 40.5467 53.8153 40.5467H56.6953C58.9593 40.5467 60.0913 41.2427 60.0913 42.6347V45.2387C60.0913 46.6307 58.9593 47.3267 56.6953 47.3267H51.9433V48.7787ZM56.6473 46.1147C57.3193 46.1147 57.8073 46.0307 58.1113 45.8627C58.4153 45.6947 58.5673 45.4867 58.5673 45.2387V42.6347C58.5673 42.3947 58.4153 42.1907 58.1113 42.0227C57.8073 41.8467 57.3193 41.7587 56.6473 41.7587H53.8633C53.1913 41.7587 52.7033 41.8467 52.3993 42.0227C52.0953 42.1907 51.9433 42.3947 51.9433 42.6347V46.1147H56.6473ZM65.1039 40.5467C65.2879 40.5467 65.4039 40.5987 65.4519 40.7027C65.5079 40.8067 65.5359 40.9587 65.5359 41.1587C65.5359 41.3587 65.5079 41.5107 65.4519 41.6147C65.4039 41.7107 65.2879 41.7587 65.1039 41.7587H64.1679C63.5759 41.7587 63.1639 41.8347 62.9319 41.9867C62.6999 42.1387 62.5839 42.3507 62.5839 42.6227V46.8107C62.5839 47.0427 62.5199 47.1947 62.3919 47.2667C62.2639 47.3387 62.0719 47.3747 61.8159 47.3747C61.5599 47.3747 61.3679 47.3387 61.2399 47.2667C61.1199 47.1947 61.0599 47.0427 61.0599 46.8107V42.6227C61.0599 41.9267 61.3239 41.4067 61.8519 41.0627C62.3879 40.7187 63.1599 40.5467 64.1679 40.5467H65.1039ZM66.0624 42.6347C66.0624 41.2427 67.1944 40.5467 69.4584 40.5467H72.0744C74.3384 40.5467 75.4704 41.2427 75.4704 42.6347V45.2387C75.4704 46.6307 74.3384 47.3267 72.0744 47.3267H69.4584C67.1944 47.3267 66.0624 46.6307 66.0624 45.2387V42.6347ZM73.9464 42.6347C73.9464 42.3867 73.7944 42.1787 73.4904 42.0107C73.1864 41.8427 72.6984 41.7587 72.0264 41.7587H69.5064C68.8344 41.7587 68.3464 41.8427 68.0424 42.0107C67.7384 42.1787 67.5864 42.3867 67.5864 42.6347V45.2387C67.5864 45.4787 67.7384 45.6867 68.0424 45.8627C68.3464 46.0307 68.8344 46.1147 69.5064 46.1147H72.0264C72.6984 46.1147 73.1864 46.0307 73.4904 45.8627C73.7944 45.6867 73.9464 45.4787 73.9464 45.2387V42.6347ZM86.2103 38.5907C86.4423 38.5907 86.6303 38.6267 86.7743 38.6987C86.9263 38.7707 87.0503 38.8747 87.1463 39.0107L92.3783 46.4747C92.4343 46.5627 92.4623 46.6547 92.4623 46.7507C92.4623 46.8387 92.4343 46.9227 92.3783 47.0027C92.3303 47.0827 92.2623 47.1507 92.1743 47.2067C92.0943 47.2627 92.0023 47.3067 91.8983 47.3387C91.7943 47.3707 91.6903 47.3867 91.5863 47.3867C91.4743 47.3867 91.3743 47.3667 91.2863 47.3267C91.1983 47.2947 91.1223 47.2347 91.0583 47.1467L89.6423 45.0827H82.9703L81.6383 47.1467C81.5823 47.2347 81.5063 47.2947 81.4103 47.3267C81.3223 47.3667 81.2263 47.3867 81.1223 47.3867C81.0263 47.3867 80.9263 47.3707 80.8223 47.3387C80.7183 47.3067 80.6223 47.2627 80.5343 47.2067C80.4543 47.1427 80.3863 47.0747 80.3303 47.0027C80.2823 46.9227 80.2583 46.8347 80.2583 46.7387C80.2583 46.6587 80.2863 46.5707 80.3423 46.4747L85.2623 39.0107C85.3503 38.8747 85.4703 38.7707 85.6223 38.6987C85.7743 38.6267 85.9703 38.5907 86.2103 38.5907ZM83.7983 43.7867H88.7543L86.2103 40.0547L83.7983 43.7867ZM95.9069 39.9227V46.8107C95.9069 47.0427 95.8389 47.1947 95.7029 47.2667C95.5669 47.3387 95.3669 47.3747 95.1029 47.3747C94.8469 47.3747 94.6509 47.3387 94.5149 47.2667C94.3789 47.1947 94.3109 47.0427 94.3109 46.8107V39.9227H90.6989C90.5069 39.9227 90.3789 39.8707 90.3149 39.7667C90.2589 39.6547 90.2309 39.4907 90.2309 39.2747C90.2309 39.0587 90.2589 38.8987 90.3149 38.7947C90.3789 38.6827 90.5069 38.6267 90.6989 38.6267H99.5309C99.7229 38.6267 99.8469 38.6827 99.9029 38.7947C99.9669 38.8987 99.9989 39.0587 99.9989 39.2747C99.9989 39.4907 99.9669 39.6547 99.9029 39.7667C99.8469 39.8707 99.7229 39.9227 99.5309 39.9227H95.9069ZM113.618 39.0707C113.746 38.9187 113.886 38.8107 114.038 38.7467C114.198 38.6827 114.374 38.6507 114.566 38.6507C115.158 38.6507 115.454 38.9227 115.454 39.4667V46.8107C115.454 47.0427 115.386 47.1947 115.25 47.2667C115.114 47.3387 114.914 47.3747 114.65 47.3747C114.386 47.3747 114.186 47.3387 114.05 47.2667C113.914 47.1947 113.846 47.0427 113.846 46.8107V41.1227L109.058 46.9187C108.922 47.0787 108.782 47.1947 108.638 47.2667C108.494 47.3387 108.318 47.3747 108.11 47.3747C107.878 47.3747 107.682 47.3387 107.522 47.2667C107.37 47.1947 107.23 47.0787 107.102 46.9187L102.302 41.1227V46.8107C102.302 47.0427 102.234 47.1947 102.098 47.2667C101.962 47.3387 101.762 47.3747 101.498 47.3747C101.242 47.3747 101.046 47.3387 100.91 47.2667C100.774 47.1947 100.706 47.0427 100.706 46.8107V39.4667C100.706 38.9227 100.998 38.6507 101.582 38.6507C101.974 38.6507 102.29 38.7907 102.53 39.0707L108.05 45.7307L113.618 39.0707Z" fill="white"/>
<path d="M47.4439 46.6307C47.4439 46.3747 47.5159 46.1867 47.6599 46.0667C47.8119 45.9467 48.0559 45.8867 48.3919 45.8867C48.7279 45.8867 48.9679 45.9467 49.1119 46.0667C49.2639 46.1867 49.3399 46.3747 49.3399 46.6307C49.3399 46.8867 49.2639 47.0747 49.1119 47.1947C48.9679 47.3147 48.7279 47.3747 48.3919 47.3747C48.0559 47.3747 47.8119 47.3147 47.6599 47.1947C47.5159 47.0747 47.4439 46.8867 47.4439 46.6307ZM51.9433 48.7787C51.9433 49.0107 51.8793 49.1627 51.7513 49.2347C51.6233 49.3067 51.4313 49.3427 51.1753 49.3427C50.9193 49.3427 50.7273 49.3067 50.5993 49.2347C50.4793 49.1627 50.4193 49.0107 50.4193 48.7787V42.6347C50.4193 41.2427 51.5513 40.5467 53.8153 40.5467H56.6953C58.9593 40.5467 60.0913 41.2427 60.0913 42.6347V45.2387C60.0913 46.6307 58.9593 47.3267 56.6953 47.3267H51.9433V48.7787ZM56.6473 46.1147C57.3193 46.1147 57.8073 46.0307 58.1113 45.8627C58.4153 45.6947 58.5673 45.4867 58.5673 45.2387V42.6347C58.5673 42.3947 58.4153 42.1907 58.1113 42.0227C57.8073 41.8467 57.3193 41.7587 56.6473 41.7587H53.8633C53.1913 41.7587 52.7033 41.8467 52.3993 42.0227C52.0953 42.1907 51.9433 42.3947 51.9433 42.6347V46.1147H56.6473ZM65.1039 40.5467C65.2879 40.5467 65.4039 40.5987 65.4519 40.7027C65.5079 40.8067 65.5359 40.9587 65.5359 41.1587C65.5359 41.3587 65.5079 41.5107 65.4519 41.6147C65.4039 41.7107 65.2879 41.7587 65.1039 41.7587H64.1679C63.5759 41.7587 63.1639 41.8347 62.9319 41.9867C62.6999 42.1387 62.5839 42.3507 62.5839 42.6227V46.8107C62.5839 47.0427 62.5199 47.1947 62.3919 47.2667C62.2639 47.3387 62.0719 47.3747 61.8159 47.3747C61.5599 47.3747 61.3679 47.3387 61.2399 47.2667C61.1199 47.1947 61.0599 47.0427 61.0599 46.8107V42.6227C61.0599 41.9267 61.3239 41.4067 61.8519 41.0627C62.3879 40.7187 63.1599 40.5467 64.1679 40.5467H65.1039ZM66.0624 42.6347C66.0624 41.2427 67.1944 40.5467 69.4584 40.5467H72.0744C74.3384 40.5467 75.4704 41.2427 75.4704 42.6347V45.2387C75.4704 46.6307 74.3384 47.3267 72.0744 47.3267H69.4584C67.1944 47.3267 66.0624 46.6307 66.0624 45.2387V42.6347ZM73.9464 42.6347C73.9464 42.3867 73.7944 42.1787 73.4904 42.0107C73.1864 41.8427 72.6984 41.7587 72.0264 41.7587H69.5064C68.8344 41.7587 68.3464 41.8427 68.0424 42.0107C67.7384 42.1787 67.5864 42.3867 67.5864 42.6347V45.2387C67.5864 45.4787 67.7384 45.6867 68.0424 45.8627C68.3464 46.0307 68.8344 46.1147 69.5064 46.1147H72.0264C72.6984 46.1147 73.1864 46.0307 73.4904 45.8627C73.7944 45.6867 73.9464 45.4787 73.9464 45.2387V42.6347ZM86.2103 38.5907C86.4423 38.5907 86.6303 38.6267 86.7743 38.6987C86.9263 38.7707 87.0503 38.8747 87.1463 39.0107L92.3783 46.4747C92.4343 46.5627 92.4623 46.6547 92.4623 46.7507C92.4623 46.8387 92.4343 46.9227 92.3783 47.0027C92.3303 47.0827 92.2623 47.1507 92.1743 47.2067C92.0943 47.2627 92.0023 47.3067 91.8983 47.3387C91.7943 47.3707 91.6903 47.3867 91.5863 47.3867C91.4743 47.3867 91.3743 47.3667 91.2863 47.3267C91.1983 47.2947 91.1223 47.2347 91.0583 47.1467L89.6423 45.0827H82.9703L81.6383 47.1467C81.5823 47.2347 81.5063 47.2947 81.4103 47.3267C81.3223 47.3667 81.2263 47.3867 81.1223 47.3867C81.0263 47.3867 80.9263 47.3707 80.8223 47.3387C80.7183 47.3067 80.6223 47.2627 80.5343 47.2067C80.4543 47.1427 80.3863 47.0747 80.3303 47.0027C80.2823 46.9227 80.2583 46.8347 80.2583 46.7387C80.2583 46.6587 80.2863 46.5707 80.3423 46.4747L85.2623 39.0107C85.3503 38.8747 85.4703 38.7707 85.6223 38.6987C85.7743 38.6267 85.9703 38.5907 86.2103 38.5907ZM83.7983 43.7867H88.7543L86.2103 40.0547L83.7983 43.7867ZM95.9069 39.9227V46.8107C95.9069 47.0427 95.8389 47.1947 95.7029 47.2667C95.5669 47.3387 95.3669 47.3747 95.1029 47.3747C94.8469 47.3747 94.6509 47.3387 94.5149 47.2667C94.3789 47.1947 94.3109 47.0427 94.3109 46.8107V39.9227H90.6989C90.5069 39.9227 90.3789 39.8707 90.3149 39.7667C90.2589 39.6547 90.2309 39.4907 90.2309 39.2747C90.2309 39.0587 90.2589 38.8987 90.3149 38.7947C90.3789 38.6827 90.5069 38.6267 90.6989 38.6267H99.5309C99.7229 38.6267 99.8469 38.6827 99.9029 38.7947C99.9669 38.8987 99.9989 39.0587 99.9989 39.2747C99.9989 39.4907 99.9669 39.6547 99.9029 39.7667C99.8469 39.8707 99.7229 39.9227 99.5309 39.9227H95.9069ZM113.618 39.0707C113.746 38.9187 113.886 38.8107 114.038 38.7467C114.198 38.6827 114.374 38.6507 114.566 38.6507C115.158 38.6507 115.454 38.9227 115.454 39.4667V46.8107C115.454 47.0427 115.386 47.1947 115.25 47.2667C115.114 47.3387 114.914 47.3747 114.65 47.3747C114.386 47.3747 114.186 47.3387 114.05 47.2667C113.914 47.1947 113.846 47.0427 113.846 46.8107V41.1227L109.058 46.9187C108.922 47.0787 108.782 47.1947 108.638 47.2667C108.494 47.3387 108.318 47.3747 108.11 47.3747C107.878 47.3747 107.682 47.3387 107.522 47.2667C107.37 47.1947 107.23 47.0787 107.102 46.9187L102.302 41.1227V46.8107C102.302 47.0427 102.234 47.1947 102.098 47.2667C101.962 47.3387 101.762 47.3747 101.498 47.3747C101.242 47.3747 101.046 47.3387 100.91 47.2667C100.774 47.1947 100.706 47.0427 100.706 46.8107V39.4667C100.706 38.9227 100.998 38.6507 101.582 38.6507C101.974 38.6507 102.29 38.7907 102.53 39.0707L108.05 45.7307L113.618 39.0707Z" fill="url(#paint0_linear)"/>
<path fill-rule="evenodd" clip-rule="evenodd" d="M40.034 13.4073C39.5996 13.4363 39.1856 13.6693 38.9423 14.0696C34.3326 21.6557 30.1579 25.8508 26.5143 27.7923C22.9612 29.6856 19.8526 29.4736 17.075 28.0458C14.2105 26.5732 11.6129 23.7558 9.36928 20.2968C7.35156 17.186 5.68308 13.6544 4.4034 10.359C4.3893 9.82869 4.17209 9.33667 3.81791 8.97116C3.61488 8.70265 3.32179 8.52034 2.99928 8.45214C2.87862 8.41108 2.75244 8.38059 2.62166 8.36192C1.48687 8.1999 0.43559 8.98849 0.273572 10.1233C-1.68632 23.8506 7.1767 36.0411 17.5076 39.4077C22.7742 41.124 28.5152 40.5642 33.2874 36.6484C37.9908 32.789 41.4521 25.9173 42.8606 15.6163C43.0159 14.4805 42.2211 13.4339 41.0854 13.2786C40.7163 13.2282 40.3567 13.278 40.034 13.4073ZM37.5698 21.0883C35.9517 27.2399 33.4282 31.1631 30.6542 33.4393C27.1314 36.33 22.9152 36.8039 18.7938 35.4609C11.9334 33.2252 5.60694 26.0082 4.36968 17.107C5.1787 18.7119 6.07201 20.2988 7.0475 21.8028C9.40791 25.4419 12.3276 28.717 15.8098 30.507C19.379 32.3418 23.4468 32.5626 27.8157 30.2346C30.9503 28.5643 34.2 25.6056 37.5698 21.0883Z" fill="white"/>
<path d="M30.6542 33.4393C33.4282 31.1631 35.9517 27.2399 37.5698 21.0883C34.2 25.6056 30.9503 28.5643 27.8157 30.2346C23.4468 32.5626 19.379 32.3418 15.8098 30.507C12.3276 28.717 9.40791 25.4419 7.0475 21.8028C6.07201 20.2988 5.1787 18.7119 4.36968 17.107C5.60694 26.0082 11.9334 33.2252 18.7938 35.4609C22.9152 36.8039 27.1314 36.33 30.6542 33.4393Z" fill="white"/>
<path fill-rule="evenodd" clip-rule="evenodd" d="M15.4262 0.424793C15.0198 0.190187 14.5002 0.329413 14.2656 0.735764L8.42473 10.8525C8.19012 11.2589 8.32935 11.7785 8.7357 12.0131L26.8539 22.4736C27.2602 22.7082 27.7798 22.569 28.0144 22.1626L33.8553 12.0459C34.09 11.6395 33.9507 11.1199 33.5444 10.8853L15.4262 0.424793ZM21.827 9.51592L22.4642 8.41228L23.108 8.78397L22.4708 9.88762L21.827 9.51592ZM22.1248 7.7258C22.1834 7.62421 22.3133 7.58941 22.4149 7.64806L23.7945 8.44455C23.8961 8.5032 23.9309 8.6331 23.8722 8.73469L22.8102 10.5741C22.7516 10.6757 22.6217 10.7105 22.5201 10.6518L21.1406 9.85535C21.039 9.7967 21.0042 9.6668 21.0628 9.56521L22.1248 7.7258ZM20.4256 10.6689C20.4843 10.5673 20.6142 10.5325 20.7158 10.5911L22.0953 11.3876C22.1969 11.4462 22.2317 11.5761 22.1731 11.6777L21.3766 13.0573C21.3179 13.1589 21.188 13.1937 21.0864 13.135L19.7069 12.3385C19.6053 12.2799 19.5705 12.15 19.6291 12.0484L20.4256 10.6689ZM13.9536 2.76293C13.8521 2.70427 13.7222 2.73908 13.6635 2.84067C13.6048 2.94226 13.6397 3.07216 13.7412 3.13081L20.731 7.16635C20.8326 7.225 20.9625 7.19019 21.0211 7.0886C21.0798 6.98702 21.045 6.85712 20.9434 6.79846L13.9536 2.76293ZM24.9759 9.37187C25.0345 9.27028 25.1644 9.23548 25.266 9.29413L32.2558 13.3297C32.3574 13.3883 32.3922 13.5182 32.3335 13.6198C32.2749 13.7214 32.145 13.7562 32.0434 13.6975L25.0536 9.66201C24.952 9.60336 24.9172 9.47346 24.9759 9.37187ZM12.0952 5.9819C11.9936 5.92325 11.8637 5.95805 11.805 6.05964C11.7464 6.16123 11.7812 6.29113 11.8828 6.34978L18.8725 10.3853C18.9741 10.444 19.104 10.4092 19.1627 10.3076C19.2213 10.206 19.1865 10.0761 19.0849 10.0174L12.0952 5.9819ZM23.1174 12.5908C23.1761 12.4892 23.306 12.4544 23.4076 12.5131L30.3973 16.5486C30.4989 16.6073 30.5337 16.7372 30.4751 16.8388C30.4164 16.9404 30.2865 16.9752 30.1849 16.9165L23.1952 12.881C23.0936 12.8223 23.0588 12.6924 23.1174 12.5908ZM10.2367 9.20086C10.1351 9.14221 10.0052 9.17702 9.94655 9.2786C9.88789 9.38019 9.9227 9.51009 10.0243 9.56874L17.014 13.6043C17.1156 13.6629 17.2455 13.6281 17.3042 13.5265C17.3628 13.425 17.328 13.2951 17.2264 13.2364L10.2367 9.20086ZM21.2589 15.8098C21.3176 15.7082 21.4475 15.6734 21.5491 15.7321L28.5388 19.7676C28.6404 19.8263 28.6752 19.9562 28.6166 20.0577C28.5579 20.1593 28.428 20.1941 28.3264 20.1355L21.3367 16.1C21.2351 16.0413 21.2003 15.9114 21.2589 15.8098ZM15.8812 4.73419C15.7796 4.67554 15.6497 4.71034 15.5911 4.81193L14.476 6.74331C14.4173 6.8449 14.4521 6.9748 14.5537 7.03345C14.6553 7.0921 14.7852 7.0573 14.8439 6.95571L15.9589 5.02433C16.0176 4.92274 15.9828 4.79284 15.8812 4.73419ZM26.9034 11.3431C26.9621 11.2416 27.092 11.2067 27.1936 11.2654C27.2952 11.324 27.33 11.4539 27.2713 11.5555L26.1562 13.4869C26.0976 13.5885 25.9677 13.6233 25.8661 13.5647C25.7645 13.506 25.7297 13.3761 25.7884 13.2745L26.9034 11.3431ZM14.0227 7.95317C13.9211 7.89451 13.7912 7.92932 13.7326 8.03091L12.6175 9.96229C12.5588 10.0639 12.5937 10.1938 12.6952 10.2524C12.7968 10.3111 12.9267 10.2763 12.9854 10.1747L14.1005 8.24331C14.1591 8.14172 14.1243 8.01182 14.0227 7.95317ZM25.045 14.5621C25.1036 14.4605 25.2335 14.4257 25.3351 14.4844C25.4367 14.543 25.4715 14.6729 25.4129 14.7745L24.2978 16.7059C24.2391 16.8075 24.1092 16.8423 24.0076 16.7836C23.906 16.725 23.8712 16.5951 23.9299 16.4935L25.045 14.5621ZM18.2724 6.11477C18.1709 6.05612 18.041 6.09093 17.9823 6.19251L16.8672 8.12389C16.8086 8.22548 16.8434 8.35538 16.945 8.41403C17.0466 8.47268 17.1765 8.43788 17.2351 8.33629L18.3502 6.40491C18.4088 6.30332 18.374 6.17342 18.2724 6.11477ZM29.2947 12.7237C29.3533 12.6221 29.4832 12.5873 29.5848 12.646C29.6864 12.7046 29.7212 12.8345 29.6625 12.9361L28.5475 14.8675C28.4888 14.9691 28.3589 15.0039 28.2573 14.9452C28.1557 14.8866 28.1209 14.7567 28.1796 14.6551L29.2947 12.7237ZM16.414 9.33374C16.3124 9.27508 16.1825 9.30989 16.1238 9.41148L15.0087 11.3429C14.9501 11.4444 14.9849 11.5743 15.0865 11.633C15.1881 11.6916 15.318 11.6568 15.3766 11.5553L16.4917 9.62387C16.5504 9.52229 16.5156 9.39239 16.414 9.33374ZM27.4362 15.9427C27.4949 15.8411 27.6248 15.8063 27.7264 15.8649C27.828 15.9236 27.8628 16.0535 27.8041 16.1551L26.689 18.0865C26.6304 18.1881 26.5005 18.2229 26.3989 18.1642C26.2973 18.1056 26.2625 17.9757 26.3211 17.8741L27.4362 15.9427ZM22.8862 5.34498C22.7846 5.28633 22.6547 5.32114 22.5961 5.42272L16.649 15.7234C16.5903 15.825 16.6251 15.9549 16.7267 16.0136C16.8283 16.0722 16.9582 16.0374 17.0169 15.9358L22.964 5.63512C23.0226 5.53353 22.9878 5.40363 22.8862 5.34498ZM25.2632 6.9626C25.3219 6.86101 25.4518 6.8262 25.5534 6.88485C25.6549 6.94351 25.6897 7.07341 25.6311 7.17499L19.684 17.4757C19.6253 17.5773 19.4954 17.6121 19.3938 17.5534C19.2923 17.4948 19.2575 17.3649 19.3161 17.2633L25.2632 6.9626ZM14.8563 1.19943C14.7547 1.14078 14.6248 1.17558 14.5662 1.27717L14.3538 1.64505C14.2951 1.74664 14.3299 1.87654 14.4315 1.93519L21.4213 5.97073C21.5229 6.02938 21.6528 5.99458 21.7114 5.89299L21.9238 5.52511C21.9825 5.42352 21.9477 5.29362 21.8461 5.23497L14.8563 1.19943Z" fill="url(#paint1_linear)"/>
<defs>
<linearGradient id="paint0_linear" x1="46.8799" y1="42.3267" x2="116.88" y2="42.3267" gradientUnits="userSpaceOnUse">
<stop stop-color="#F09819"/>
<stop offset="1" stop-color="#F7DD01"/>
</linearGradient>
<linearGradient id="paint1_linear" x1="11.3452" y1="5.79414" x2="30.9349" y2="17.1043" gradientUnits="userSpaceOnUse">
<stop stop-color="#F09819"/>
<stop offset="1" stop-color="#F7DD01"/>
</linearGradient>
</defs>
</svg>
