<svg width="214" height="418" viewBox="0 0 214 418" fill="none" xmlns="http://www.w3.org/2000/svg">
<path fill-rule="evenodd" clip-rule="evenodd" d="M95.8461 315.366C112.089 315.61 124.041 323.817 138.861 327.952C159.12 333.604 187.937 331.873 198.496 344.005C208.89 355.95 196.921 371.029 186.831 383.074C177.893 393.745 163.183 402.215 145.556 407.203C130.079 411.582 112.72 407.488 95.8461 408.818C75.212 410.445 55.1861 420.874 36.0328 415.838C16.4271 410.683 4.18154 396.931 0.943124 383.864C-2.10536 371.564 9.93789 360.244 19.5483 349.322C27.4776 340.311 37.8561 332.623 51.2971 326.641C64.6579 320.695 79.413 315.12 95.8461 315.366Z" fill="url(#paint0_linear)"/>
<ellipse cx="116.265" cy="367.922" rx="25.4604" ry="5.74911" fill="url(#paint1_radial)"/>
<ellipse cx="65.6924" cy="362.371" rx="11.2207" ry="14.3728" transform="rotate(-13.7237 65.6924 362.371)" fill="url(#paint2_radial)"/>
<path d="M65.8811 107.338L55.0844 79.3019C55.0844 79.3019 27.9669 97.3515 23.3131 120.52C28.3997 120.944 37.6514 122.356 46.675 127.022C48.7715 116.081 65.8811 107.338 65.8811 107.338Z" fill="url(#paint3_linear)"/>
<path d="M65.8811 107.338L55.0844 79.3019C55.0844 79.3019 27.9669 97.3515 23.3131 120.52C28.3997 120.944 37.6514 122.356 46.675 127.022C48.7715 116.081 65.8811 107.338 65.8811 107.338Z" fill="url(#paint4_linear)"/>
<path d="M98.746 345.181C98.746 345.181 97.4034 352.376 96.7123 359.505C96.4424 362.29 98.5692 364.734 101.364 364.876C110.862 365.362 131.178 366.325 138.475 366.069C139.571 366.03 140.299 364.915 139.904 363.891C139.571 363.033 138.922 362.337 138.091 361.944L104.666 346.193L98.746 345.181Z" fill="url(#paint5_linear)"/>
<path d="M97.7455 340.937L98.6856 349.567C98.6856 349.567 104.54 352.362 108.586 349.316L106.243 339.685L97.7455 340.937Z" fill="url(#paint6_linear)"/>
<path d="M100.059 178.858C99.5955 181.105 96.6148 291.188 107.914 340.639C108.098 341.446 107.681 342.272 106.914 342.577C105.101 343.298 101.552 344.331 97.3105 344.434C95.9958 344.466 94.8277 343.601 94.4694 342.337C91.2141 330.859 75.6403 273.348 74.0603 218.538C72.2942 157.292 74.0812 216.453 74.0812 216.453L75.8194 178.623L100.059 178.858Z" fill="#131313"/>
<path d="M60.0919 348.573C60.0919 348.573 58.0303 352.192 55.9757 361.844C55.6057 363.587 56.8087 365.269 58.5795 365.46C61.7138 365.797 66.5397 366.242 70.4093 366.251C72.1917 366.255 73.5995 364.715 73.4017 362.944C73.0061 359.412 71.7264 353.609 67.645 349.055L60.0919 348.573Z" fill="url(#paint7_linear)"/>
<path d="M58.4187 337.467L60.6851 350.528C60.6851 350.528 63.0306 352.308 67.7193 351.079L66.7117 337.041L58.4187 337.467Z" fill="url(#paint8_linear)"/>
<path d="M53.4464 181.792C43.2663 239.789 54.1654 325.386 57.9559 342.156C58.1886 343.182 59.0077 343.976 60.0431 344.157C61.8046 344.467 64.7039 344.732 67.5753 343.929C68.5642 343.652 69.2646 342.77 69.3158 341.744C69.9743 328.223 69.8137 245.171 79.0956 212.439C79.5657 210.78 80.5965 209.34 82.0112 208.353L99.5373 196.144L101.064 176.154L53.4464 181.792Z" fill="#131313"/>
<path d="M115.83 72.3074C86.9883 71.5558 55.0844 79.302 55.0844 79.302C46.0072 129.39 52.5504 187.328 52.5504 187.328C74.8257 193.396 100.107 184.2 100.107 184.2C104.019 163.265 121.898 104.414 121.898 104.414C136.009 102.799 147.657 98.8431 157.269 93.5588C150.056 85.0354 146.722 74.2456 145.288 67.8723C135.062 70.9438 124.726 72.5401 115.83 72.3074Z" fill="url(#paint9_linear)"/>
<path d="M115.83 72.3074C86.9883 71.5558 55.0844 79.302 55.0844 79.302C46.0072 129.39 52.5504 187.328 52.5504 187.328C74.8257 193.396 100.107 184.2 100.107 184.2C104.019 163.265 121.898 104.414 121.898 104.414C136.009 102.799 147.657 98.8431 157.269 93.5588C150.056 85.0354 146.722 74.2456 145.288 67.8723C135.062 70.9438 124.726 72.5401 115.83 72.3074Z" fill="url(#paint10_linear)"/>
<path d="M201.438 30.6329C198.637 27.1821 195.035 28.769 195.035 28.769C190.618 46.6604 168.222 60.9847 145.288 67.8746C146.722 74.2479 150.056 85.0377 157.27 93.5611C195.423 72.5842 201.438 30.6329 201.438 30.6329Z" fill="url(#paint11_linear)"/>
<path d="M200.743 31.4962C201.031 32.4409 197.583 33.844 195.598 29.9697C195.544 28.1222 194.497 20.1945 195.614 18.7006C201.571 10.7404 213.066 0.799927 213.066 0.799927C214.974 2.7196 213.368 4.57182 213.368 4.57182L207.784 10.2797C208.922 12.3808 210.315 14.1586 210.953 16.6925C211.435 18.6122 211.109 20.6552 210.127 22.3887C209.14 24.1293 207.793 26.3887 206.525 28.1571C204.124 31.5032 200.743 31.4962 200.743 31.4962Z" fill="url(#paint12_linear)"/>
<path d="M205.331 13.9957L200.252 18.219L198.627 22.4563L203.074 27.4847C203.074 27.4847 204.666 19.059 205.806 17.244C206.946 15.4291 206.371 14.5402 205.331 13.9957Z" fill="url(#paint13_linear)"/>
<path d="M89.1757 133.846C89.1757 133.846 58.761 150.653 48.6949 135.959C46.6054 132.909 46.126 129.891 46.6752 127.024C37.6515 122.359 28.3998 120.946 23.3133 120.523C21.9102 127.508 22.5454 134.956 26.5849 142.516C44.1528 175.393 93.1081 141.344 93.1081 141.344L89.1757 133.846Z" fill="url(#paint14_linear)"/>
<path d="M86.8348 48.6104L77.4039 75.0647C77.248 75.5021 77.4226 75.9908 77.8298 76.2211C80.3195 77.6289 89.2943 81.7126 100.221 74.9297C101.359 74.2223 102.141 73.0612 102.325 71.7326L105.515 48.7872L86.8348 48.6104Z" fill="url(#paint15_linear)"/>
<path d="M107.039 24.2223C107.039 24.2223 116.938 43.2911 115.572 50.9419C114.206 58.5927 101.722 57.9249 90.8719 51.5957L83.4445 31.0377L107.039 24.2223Z" fill="url(#paint16_linear)"/>
<path d="M91.4513 41.539C91.8957 41.3459 92.0656 40.806 91.8026 40.3988C91.0068 39.1586 89.5176 36.6269 89.0546 34.4187C89.0546 34.4187 87.2536 33.2413 93.692 31.7661C100.131 30.2908 109.731 27.9942 111.798 22.547C113.81 17.2347 108.782 3.78068 100.452 14.382C100.135 14.7845 99.5209 14.7892 99.2114 14.3796C97.8804 12.6112 94.3668 8.93237 89.4222 11.0964C84.7941 13.1208 84.2426 16.4924 84.2914 18.1934C84.3054 18.6936 83.854 19.0799 83.363 18.9798C81.0385 18.5121 75.4516 18.0794 72.7873 23.7872C70.5931 28.4898 71.9636 31.1774 73.2248 32.4967C73.632 32.9249 73.4458 33.6206 72.8781 33.7881C71.3423 34.2419 69.3529 35.5217 69.5157 39.1097C69.7414 44.0706 75.2911 43.6867 76.871 43.4749C77.1293 43.44 77.3899 43.5308 77.5621 43.7263C78.9024 45.2364 84.9383 51.654 91.5327 52.4847C92.1028 52.5568 92.5519 51.996 92.3704 51.4515L89.5921 43.1213C89.4641 42.735 89.6526 42.3138 90.0249 42.151L91.4513 41.539Z" fill="#131313"/>
<path d="M92.5891 42.7279C92.5891 42.7279 85.4595 37.7368 84.8964 41.8763C84.3333 46.0181 91.3023 47.9425 94.7764 46.43L92.5891 42.7279Z" fill="url(#paint17_linear)"/>
<path d="M82.9605 160.408L99.5279 102.55C99.7163 101.893 100.277 101.414 100.954 101.335C103.956 100.984 112.654 100.002 122.697 99.1524C134.794 98.1286 148.841 97.3002 157.237 98.0053C158.431 98.1053 159.152 99.3688 158.621 100.442C153.849 110.1 134.212 149.385 124.379 162.253C124.053 162.679 123.548 162.928 123.013 162.923L84.573 162.565C83.4538 162.555 82.651 161.483 82.9605 160.408Z" fill="url(#paint18_linear)"/>
<path d="M86.9627 146.43C86.9627 146.43 84.6544 136.941 85.5852 133.574C86.5159 130.207 88.3192 125.879 94.3319 126.84C100.345 127.801 107.437 130.335 107.437 130.335C107.437 130.335 107.079 134.721 102.509 133.307L105.343 135.499C105.343 135.499 104.938 139.01 101.078 137.134L103.714 140.043C103.714 140.043 102.057 142.926 99.216 141.076C96.3772 139.224 95.016 147.573 86.9627 146.43Z" fill="url(#paint19_linear)"/>
<path d="M121.592 116.425C121.592 119.11 123.77 121.288 126.455 121.288C129.14 121.288 131.318 119.11 131.318 116.425C131.318 113.74 129.14 111.562 126.455 111.562C123.77 111.56 121.592 113.738 121.592 116.425Z" fill="#91B3FA"/>
<path d="M101.162 119.56L100.403 119.336L103.777 107.895C104.3 106.122 105.732 104.789 107.512 104.416C118.18 102.189 147.217 101.719 147.508 101.715L147.52 102.506C147.229 102.511 118.266 102.978 107.672 105.189C106.176 105.501 104.973 106.624 104.533 108.118L101.162 119.56Z" fill="#91B3FA"/>
<defs>
<linearGradient id="paint0_linear" x1="0.461426" y1="366.279" x2="202.502" y2="366.279" gradientUnits="userSpaceOnUse">
<stop stop-color="#F09819"/>
<stop offset="1" stop-color="#F7DD01"/>
</linearGradient>
<radialGradient id="paint1_radial" cx="0" cy="0" r="1" gradientUnits="userSpaceOnUse" gradientTransform="translate(116.265 367.922) rotate(90) scale(5.74911 25.4604)">
<stop stop-color="#CF7D07"/>
<stop offset="1" stop-color="#CF7D07" stop-opacity="0"/>
</radialGradient>
<radialGradient id="paint2_radial" cx="0" cy="0" r="1" gradientUnits="userSpaceOnUse" gradientTransform="translate(65.6924 362.371) rotate(90) scale(14.3728 11.2207)">
<stop stop-color="#CF7D07"/>
<stop offset="1" stop-color="#CF7D07" stop-opacity="0"/>
</radialGradient>
<linearGradient id="paint3_linear" x1="-2374.81" y1="-3028.91" x2="-2537.59" y2="-3239.9" gradientUnits="userSpaceOnUse">
<stop stop-color="#FE7062"/>
<stop offset="1" stop-color="#FF928E"/>
</linearGradient>
<linearGradient id="paint4_linear" x1="31.1888" y1="25.9635" x2="57.3865" y2="155.297" gradientUnits="userSpaceOnUse">
<stop stop-color="#FF5E89"/>
<stop offset="0.109" stop-color="#DC55A2"/>
<stop offset="0.2591" stop-color="#B149C1"/>
<stop offset="0.3356" stop-color="#A045CD"/>
<stop offset="0.3799" stop-color="#9743D4"/>
<stop offset="0.5279" stop-color="#7C3CE7"/>
<stop offset="0.6792" stop-color="#6937F4"/>
<stop offset="0.8345" stop-color="#5E34FC"/>
<stop offset="1" stop-color="#5A33FF"/>
</linearGradient>
<linearGradient id="paint5_linear" x1="137.701" y1="335.59" x2="13.4962" y2="468.141" gradientUnits="userSpaceOnUse">
<stop stop-color="#09005D"/>
<stop offset="1" stop-color="#1A0F91"/>
</linearGradient>
<linearGradient id="paint6_linear" x1="97.7044" y1="345.141" x2="108.624" y2="345.245" gradientUnits="userSpaceOnUse">
<stop stop-color="#FEBBBA"/>
<stop offset="1" stop-color="#FF928E"/>
</linearGradient>
<linearGradient id="paint7_linear" x1="110.364" y1="309.97" x2="-13.8464" y2="442.526" gradientUnits="userSpaceOnUse">
<stop stop-color="#09005D"/>
<stop offset="1" stop-color="#1A0F91"/>
</linearGradient>
<linearGradient id="paint8_linear" x1="58.3537" y1="344.206" x2="67.7817" y2="344.295" gradientUnits="userSpaceOnUse">
<stop stop-color="#FEBBBA"/>
<stop offset="1" stop-color="#FF928E"/>
</linearGradient>
<linearGradient id="paint9_linear" x1="-2350.76" y1="-3047.47" x2="-2513.55" y2="-3258.46" gradientUnits="userSpaceOnUse">
<stop stop-color="#FE7062"/>
<stop offset="1" stop-color="#FF928E"/>
</linearGradient>
<linearGradient id="paint10_linear" x1="70.0657" y1="-67.9635" x2="137.59" y2="261.064" gradientUnits="userSpaceOnUse">
<stop stop-color="#FF5E89"/>
<stop offset="0.109" stop-color="#DC55A2"/>
<stop offset="0.2591" stop-color="#B149C1"/>
<stop offset="0.3356" stop-color="#A045CD"/>
<stop offset="0.3799" stop-color="#9743D4"/>
<stop offset="0.5279" stop-color="#7C3CE7"/>
<stop offset="0.6792" stop-color="#6937F4"/>
<stop offset="0.8345" stop-color="#5E34FC"/>
<stop offset="1" stop-color="#5A33FF"/>
</linearGradient>
<linearGradient id="paint11_linear" x1="145.358" y1="60.6789" x2="201.148" y2="61.2089" gradientUnits="userSpaceOnUse">
<stop stop-color="#FEBBBA"/>
<stop offset="1" stop-color="#FF928E"/>
</linearGradient>
<linearGradient id="paint12_linear" x1="188.81" y1="51.7405" x2="150.565" y2="136.56" gradientUnits="userSpaceOnUse">
<stop stop-color="#FEBBBA"/>
<stop offset="1" stop-color="#FF928E"/>
</linearGradient>
<linearGradient id="paint13_linear" x1="201.239" y1="23.4898" x2="217.088" y2="-0.378666" gradientUnits="userSpaceOnUse">
<stop stop-color="#FEBBBA"/>
<stop offset="1" stop-color="#FF928E"/>
</linearGradient>
<linearGradient id="paint14_linear" x1="22.5273" y1="138.537" x2="93.1282" y2="139.208" gradientUnits="userSpaceOnUse">
<stop stop-color="#FEBBBA"/>
<stop offset="1" stop-color="#FF928E"/>
</linearGradient>
<linearGradient id="paint15_linear" x1="77.4584" y1="63.5767" x2="105.373" y2="63.8419" gradientUnits="userSpaceOnUse">
<stop stop-color="#FEBBBA"/>
<stop offset="1" stop-color="#FF928E"/>
</linearGradient>
<linearGradient id="paint16_linear" x1="112.181" y1="46.1473" x2="81.6676" y2="27.1368" gradientUnits="userSpaceOnUse">
<stop stop-color="#FEBBBA"/>
<stop offset="1" stop-color="#FF928E"/>
</linearGradient>
<linearGradient id="paint17_linear" x1="104.053" y1="53.0513" x2="76.5999" y2="35.9473" gradientUnits="userSpaceOnUse">
<stop stop-color="#FEBBBA"/>
<stop offset="1" stop-color="#FF928E"/>
</linearGradient>
<linearGradient id="paint18_linear" x1="112.059" y1="93.6769" x2="151.017" y2="256" gradientUnits="userSpaceOnUse">
<stop stop-color="#09005D"/>
<stop offset="1" stop-color="#1A0F91"/>
</linearGradient>
<linearGradient id="paint19_linear" x1="85.3645" y1="136.62" x2="107.437" y2="136.62" gradientUnits="userSpaceOnUse">
<stop stop-color="#FEBBBA"/>
<stop offset="1" stop-color="#FF928E"/>
</linearGradient>
</defs>
</svg>
