<svg width="1440" height="894" viewBox="0 0 1440 894" fill="none" xmlns="http://www.w3.org/2000/svg">
<g opacity="0.25">
<path opacity="0.0625" d="M291.106 147.317C136.372 224.898 51.154 328.525 51.154 439.099C51.154 552.682 140.313 659.938 302.211 741.11C469.46 824.966 688.565 867.021 906.196 867.021C1114.49 867.021 1321.43 828.498 1480.43 751.229C1483.52 749.727 1486.64 748.283 1489.7 746.749C1492.78 745.203 1495.78 743.576 1498.81 742.015C1647.74 664.969 1729.6 563.274 1729.6 454.897C1729.6 341.314 1640.44 234.057 1478.54 152.886C1311.3 69.0338 1092.22 26.9749 874.604 26.9749C662.24 26.9749 451.282 67.0044 291.106 147.317ZM289.533 144.956C369.408 104.907 462.872 74.0877 567.252 53.3646C617.409 43.405 669.906 35.8807 723.298 30.9985C727.177 30.6434 731.064 30.2999 734.956 29.9682C783.818 25.8353 833.718 23.8723 883.457 24.1181C937.172 24.3913 991.149 27.2481 1043.89 32.6181C1097.15 38.0389 1149.63 46.0666 1199.86 56.475C1304.37 78.1348 1398.41 109.664 1479.37 150.189C1520.54 170.807 1557.59 193.47 1589.47 217.557C1620.8 241.164 1647.53 266.41 1668.93 292.597C1689.98 318.343 1706.07 345.244 1716.76 372.551C1727.36 399.635 1732.74 427.34 1732.74 454.897C1732.74 481.692 1727.65 508.547 1717.64 534.722C1707.52 561.143 1692.28 587.107 1672.34 611.905C1630.91 663.416 1569.96 709.561 1491.22 749.044C1491.21 749.044 1490.48 747.939 1490.47 747.939C1490.47 747.939 1491.2 749.052 1491.2 749.052C1411.7 788.913 1318.74 819.635 1214.91 840.374C1165.01 850.341 1112.79 857.897 1059.67 862.837C1009.62 867.493 958.375 869.862 907.207 869.889C904.596 869.889 901.985 869.885 899.37 869.874C849.038 869.667 798.468 867.185 748.878 862.498C745.503 862.178 742.137 861.85 738.771 861.51C685.334 856.133 632.688 848.132 582.275 837.739C477.401 816.111 383.024 784.554 301.784 743.955C260.458 723.298 223.28 700.585 191.278 676.443C159.947 652.836 133.213 627.589 111.813 601.406C90.7678 575.661 74.6796 548.76 63.9886 521.453C53.383 494.368 48.0083 466.667 48.0083 439.107C48.0083 412.311 53.0909 385.457 63.1078 359.282C73.2236 332.861 88.4624 306.897 108.406 282.099C149.849 230.58 210.787 184.439 289.533 144.956Z" fill="#F09819"/>
<path opacity="0.125" d="M325.368 164.497C179.495 237.636 99.1624 335.32 99.1624 439.552C99.1624 546.621 183.216 647.727 335.838 724.25C493.538 803.318 700.137 842.969 905.337 842.961C1101.75 842.953 1296.87 806.62 1446.77 733.745C1449.66 732.344 1452.62 731.072 1455.47 729.644C1458.35 728.204 1461.1 726.607 1463.92 725.148C1604.38 652.512 1681.58 556.623 1681.58 454.444C1681.58 347.375 1597.52 246.269 1444.9 169.746C1287.23 90.6896 1080.67 51.0347 875.498 51.0347C675.285 51.0347 476.39 88.7773 325.368 164.497ZM323.799 162.135C399.36 124.249 487.836 95.1308 586.616 75.6097C634.081 66.2317 683.761 59.164 734.281 54.6057C737.926 54.2739 741.579 53.9539 745.238 53.6456C791.174 49.7898 838.077 47.9672 884.823 48.2209C935.316 48.498 986.048 51.2025 1035.62 56.2604C1085.68 61.3651 1135 68.9167 1182.22 78.7045C1280.44 99.0608 1368.85 128.674 1444.98 166.725C1483.69 186.078 1518.53 207.348 1548.54 229.952C1578.29 252.24 1603.68 276.089 1624.01 300.832C1644.02 325.177 1659.32 350.622 1669.5 376.461C1679.59 402.102 1684.72 428.335 1684.72 454.44C1684.72 479.714 1679.92 505.038 1670.47 529.722C1660.94 554.641 1646.57 579.13 1627.76 602.515C1588.69 651.091 1531.21 694.617 1456.94 731.856C1456.93 731.86 1456.24 730.826 1456.23 730.83C1456.23 730.834 1456.91 731.872 1456.9 731.872C1382.08 769.384 1294.61 798.311 1196.95 817.855C1150 827.249 1100.86 834.383 1050.88 839.055C1003.79 843.457 955.575 845.712 907.427 845.767C904.969 845.771 902.511 845.767 900.057 845.759C852.705 845.591 805.119 843.289 758.45 838.914C755.277 838.618 752.104 838.309 748.94 837.993C698.528 832.97 648.852 825.477 601.284 815.721C502.351 795.423 413.273 765.759 336.553 727.564C297.546 708.136 262.435 686.769 232.191 664.04C202.45 641.752 177.06 617.907 156.729 593.16C136.718 568.815 121.416 543.37 111.242 517.531C101.149 491.89 96.0256 465.657 96.0256 439.552C96.0256 414.278 100.816 388.954 110.267 364.269C119.803 339.351 134.174 314.862 152.986 291.477C192.056 242.901 249.528 199.375 323.799 162.135Z" fill="#F09819"/>
<path opacity="0.1875" d="M359.634 181.676C222.628 250.367 147.176 342.11 147.176 440C147.176 540.552 226.12 635.516 369.471 707.387C517.622 781.666 711.713 818.913 904.488 818.897C1089.01 818.886 1272.32 784.737 1413.13 716.261C1415.81 714.958 1418.62 713.861 1421.26 712.534C1423.93 711.196 1426.43 709.631 1429.06 708.277C1561.04 640.047 1633.58 549.973 1633.58 453.991C1633.58 353.44 1554.64 258.476 1411.29 186.605C1263.17 112.342 1069.14 75.0946 876.41 75.0946C688.327 75.0946 501.493 110.546 359.634 181.676ZM358.066 179.319C429.316 143.594 512.8 116.174 605.981 97.8627C650.754 89.0622 697.612 82.455 745.269 78.2245C748.685 77.9162 752.1 77.6196 755.529 77.3347C798.54 73.756 842.446 72.0778 886.203 72.3354C933.474 72.6164 980.961 75.1648 1027.37 79.9105C1074.23 84.7029 1120.39 91.7745 1164.6 100.938C1256.53 119.991 1339.29 147.684 1410.61 183.264C1446.86 201.349 1479.44 221.28 1507.62 242.351C1535.75 263.378 1559.85 285.771 1579.11 309.074C1598.09 332.018 1612.61 356.008 1622.26 380.38C1631.84 404.576 1636.71 429.338 1636.71 453.991C1636.71 477.743 1632.21 501.541 1623.33 524.735C1614.37 548.151 1600.87 571.161 1583.19 593.137C1546.49 638.778 1492.48 679.682 1422.68 714.677C1422.67 714.681 1422.02 713.725 1422.02 713.729C1422.01 713.733 1422.64 714.697 1422.63 714.7C1352.49 749.863 1270.52 776.995 1179.01 795.341C1135.01 804.165 1088.97 810.87 1042.13 815.276C998.002 819.424 952.811 821.567 907.684 821.649C905.378 821.653 903.077 821.653 900.776 821.645C856.404 821.516 811.806 819.397 768.049 815.334C765.074 815.057 762.104 814.772 759.133 814.48C711.74 809.812 665.044 802.822 620.316 793.706C527.328 774.743 443.544 746.971 371.35 711.176C334.661 692.978 301.622 672.954 273.126 651.645C244.949 630.672 220.903 608.224 201.642 584.922C182.659 561.978 168.144 537.988 158.491 513.612C148.906 489.416 144.039 464.654 144.039 440C144.039 416.249 148.542 392.451 157.417 369.257C166.378 345.841 179.882 322.831 197.557 300.855C234.263 255.218 288.271 214.314 358.066 179.319Z" fill="#F09819"/>
<path opacity="0.25" d="M393.895 198.852C265.752 263.101 195.179 348.905 195.179 440.453C195.179 534.491 269.019 623.304 403.094 690.531C541.695 760.022 723.281 794.865 903.63 794.845C1076.26 794.826 1247.76 762.867 1379.48 698.785C1381.95 697.583 1384.6 696.658 1387.04 695.433C1389.51 694.196 1391.76 692.666 1394.18 691.413C1517.68 627.593 1585.57 543.331 1585.57 453.543C1585.57 359.504 1511.73 270.692 1377.65 203.465C1239.1 133.997 1057.59 99.1505 877.305 99.1505C701.368 99.1544 526.6 132.319 393.895 198.852ZM392.331 196.498C459.273 162.935 537.768 137.217 625.345 120.112C667.426 111.893 711.462 105.742 756.257 101.836C759.438 101.551 762.625 101.277 765.815 101.012C805.901 97.7104 846.809 96.1728 887.573 96.4343C931.622 96.7231 975.865 99.1154 1019.11 103.549C1062.77 108.025 1105.78 114.625 1146.97 123.164C1232.59 140.913 1309.73 166.69 1376.24 199.792C1410.01 216.609 1440.37 235.166 1466.7 254.741C1493.23 274.469 1516.01 295.446 1534.2 317.309C1552.15 338.851 1565.88 361.385 1575.01 384.294C1584.09 407.046 1588.7 430.341 1588.7 453.543C1588.7 475.776 1584.49 498.041 1576.18 519.743C1567.8 541.661 1555.17 563.192 1538.63 583.755C1504.28 626.461 1453.74 664.746 1388.42 697.497C1388.41 697.501 1387.81 696.619 1387.8 696.627C1387.79 696.631 1388.36 697.525 1388.36 697.533C1322.89 730.346 1246.42 755.682 1161.07 772.834C1120.02 781.088 1077.06 787.364 1033.36 791.505C992.196 795.403 950.038 797.429 907.926 797.538C905.778 797.542 903.63 797.546 901.482 797.538C860.084 797.452 818.475 795.509 777.639 791.758C774.862 791.505 772.089 791.239 769.321 790.966C724.948 786.654 681.231 780.171 639.343 771.691C552.296 754.059 473.806 728.18 406.137 694.789C371.772 677.82 340.795 659.138 314.052 639.25C287.453 619.597 264.749 598.546 246.558 576.683C228.609 555.14 214.881 532.606 205.749 509.698C196.671 486.945 192.061 463.65 192.061 440.449C192.061 418.216 196.271 395.951 204.576 374.249C212.962 352.335 225.594 330.804 242.132 310.237C276.47 267.534 327.013 229.249 392.331 196.498Z" fill="#F09819"/>
<path opacity="0.3125" d="M428.161 216.031C308.884 275.835 243.192 355.699 243.192 440.906C243.192 528.431 311.926 611.097 436.727 673.672C565.778 738.378 734.857 770.813 902.776 770.785C1063.52 770.762 1223.21 740.989 1345.83 681.305C1348.1 680.205 1350.59 679.452 1352.83 678.328C1355.09 677.196 1357.08 675.693 1359.3 674.546C1474.33 615.132 1537.56 536.685 1537.56 453.094C1537.56 365.569 1468.82 282.903 1344.02 220.328C1215.04 155.653 1046.05 123.214 878.208 123.214C714.414 123.21 551.703 154.088 428.161 216.031ZM426.597 213.682C489.229 182.281 562.736 158.264 644.709 142.361C684.098 134.719 725.316 129.025 767.24 125.447C770.188 125.185 773.14 124.935 776.097 124.693C813.257 121.669 851.168 120.276 888.944 120.541C929.771 120.834 970.769 123.07 1010.84 127.195C1051.3 131.359 1091.16 137.479 1129.34 145.393C1208.67 161.835 1280.17 185.7 1341.86 216.328C1373.16 231.88 1401.3 249.055 1425.78 267.136C1450.72 285.565 1472.16 305.125 1489.28 325.547C1506.2 345.689 1519.14 366.767 1527.76 388.208C1536.33 409.517 1540.68 431.34 1540.68 453.09C1540.68 473.801 1536.76 494.54 1529.03 514.748C1521.22 535.163 1509.45 555.215 1494.05 574.369C1462.07 614.141 1415 649.803 1354.15 680.31C1354.14 680.318 1353.59 679.51 1353.57 679.518C1353.56 679.526 1354.09 680.345 1354.07 680.353C1293.29 710.821 1222.31 734.354 1143.12 750.316C1105.02 757.996 1065.16 763.85 1024.6 767.718C986.39 771.363 947.261 773.275 908.169 773.416C906.173 773.424 904.183 773.424 902.187 773.424C863.769 773.377 825.144 771.613 787.224 768.178C784.645 767.944 782.074 767.702 779.504 767.453C738.155 763.499 697.409 757.516 658.366 749.676C577.26 733.378 504.068 709.389 440.919 678.402C408.873 662.662 380.013 645.28 354.978 626.856C329.996 608.47 308.596 588.867 291.47 568.445C274.555 548.303 261.613 527.225 252.998 505.784C244.428 484.475 240.073 462.651 240.073 440.902C240.073 420.191 243.996 399.452 251.726 379.244C259.536 358.829 271.301 338.777 286.702 319.623C318.681 279.851 365.754 244.189 426.597 213.682Z" fill="#F09819"/>
<path opacity="0.375" d="M462.423 233.211C352.008 288.57 291.201 362.494 291.201 441.355C291.201 522.366 354.825 598.881 470.355 656.808C589.857 716.726 746.429 746.757 901.922 746.726C1050.78 746.694 1198.65 719.11 1312.18 663.821C1314.24 662.818 1316.57 662.241 1318.61 661.222C1320.66 660.192 1322.41 658.725 1324.43 657.679C1430.98 602.675 1489.55 530.039 1489.55 452.641C1489.55 371.63 1425.92 295.114 1310.39 237.187C1190.96 177.309 1034.51 147.27 879.107 147.27C727.455 147.27 576.811 175.857 462.423 233.211ZM460.864 230.861C519.185 201.619 587.699 179.303 664.078 164.61C700.775 157.546 739.18 152.394 778.232 149.058C780.946 148.827 783.665 148.593 786.393 148.371C820.628 145.623 855.541 144.371 890.324 144.644C927.929 144.94 965.682 147.024 1002.58 150.837C1039.84 154.685 1076.55 160.332 1111.72 167.623C1184.74 182.761 1250.6 204.709 1307.49 232.859C1336.33 247.143 1362.25 262.941 1384.86 279.527C1408.21 296.652 1428.32 314.799 1444.38 333.782C1460.27 352.522 1472.42 372.149 1480.52 392.119C1488.58 411.983 1492.68 432.34 1492.68 452.637C1492.68 471.827 1489.05 491.035 1481.89 509.756C1474.66 528.669 1463.76 547.241 1449.49 564.987C1419.87 601.824 1376.26 634.868 1319.9 663.131C1319.88 663.138 1319.37 662.409 1319.36 662.417C1319.34 662.424 1319.82 663.174 1319.8 663.181C1263.7 691.3 1198.21 713.038 1125.18 727.805C1090.03 734.916 1053.25 740.341 1015.83 743.943C980.588 747.334 944.493 749.133 908.416 749.301C906.578 749.309 904.736 749.313 902.898 749.313C867.454 749.309 831.817 747.725 796.819 744.599C794.442 744.388 792.064 744.165 789.691 743.939C751.363 740.341 713.596 734.865 677.389 727.665C602.224 712.698 534.33 690.605 475.707 662.018C445.98 647.508 419.196 631.461 395.904 614.465C372.509 597.39 352.444 579.192 336.387 560.21C320.501 541.469 308.349 521.843 300.251 501.873C292.189 482.009 288.091 461.652 288.091 441.355C288.091 422.165 291.722 402.956 298.885 384.235C306.116 365.323 317.014 346.75 331.282 329.005C360.888 292.168 404.496 259.124 460.864 230.861Z" fill="#F09819"/>
<path opacity="0.4375" d="M496.689 250.386C395.14 301.304 339.213 369.284 339.213 441.803C339.213 516.301 397.733 586.67 503.991 639.945C613.944 695.074 758.005 722.701 901.077 722.662C1038.04 722.623 1174.1 697.232 1278.54 646.338C1280.39 645.436 1282.57 645.03 1284.41 644.113C1286.25 643.188 1287.75 641.748 1289.57 640.808C1387.64 590.214 1441.55 523.388 1441.55 452.188C1441.55 377.691 1383.03 307.322 1276.77 254.047C1166.91 198.961 1022.98 171.33 880.014 171.33C740.501 171.33 601.914 197.63 496.689 250.386ZM495.129 248.045C549.142 220.964 612.667 200.35 683.442 186.859C717.452 180.376 753.035 175.693 789.215 172.673C791.7 172.466 794.185 172.255 796.675 172.056C827.984 169.586 859.9 168.477 891.69 168.75C926.072 169.055 960.581 170.979 994.312 174.48C1028.38 178.015 1061.93 183.183 1094.08 189.852C1160.81 203.687 1221.03 223.715 1273.1 249.395C1299.47 262.414 1323.18 276.831 1343.93 291.926C1365.68 307.751 1384.47 324.482 1399.46 342.024C1414.31 359.368 1425.67 377.535 1433.25 396.037C1440.81 414.458 1444.65 433.343 1444.65 452.188C1444.65 469.856 1441.31 487.539 1434.72 504.765C1428.06 522.175 1418.03 539.272 1404.91 555.605C1377.65 589.507 1337.51 619.932 1285.62 645.947C1285.6 645.955 1285.14 645.3 1285.12 645.311C1285.1 645.323 1285.52 645.994 1285.5 646.006C1234.08 671.775 1174.09 691.718 1107.21 705.291C1075.01 711.828 1041.33 716.831 1007.05 720.164C974.768 723.306 941.702 724.988 908.641 725.183C906.955 725.191 905.27 725.199 903.585 725.199C871.121 725.234 838.473 723.829 806.386 721.019C804.207 720.828 802.032 720.629 799.857 720.426C764.548 717.182 729.761 712.211 696.393 705.65C627.169 692.018 564.569 671.814 510.472 645.631C483.063 632.351 458.351 617.638 436.812 602.07C414.999 586.303 396.272 569.514 381.285 551.971C366.433 534.628 355.068 516.461 347.487 497.959C339.932 479.538 336.09 460.653 336.09 441.807C336.09 424.14 339.434 406.457 346.022 389.231C352.677 371.821 362.703 354.724 375.834 338.391C403.094 304.489 443.238 274.064 495.129 248.045Z" fill="#F09819"/>
<path opacity="0.5" d="M530.95 267.566C438.264 314.038 387.217 376.079 387.217 442.256C387.217 510.24 440.627 574.459 537.615 623.086C638.018 673.426 769.572 698.649 900.214 698.602C1025.29 698.559 1149.53 675.354 1244.88 628.854C1246.53 628.054 1248.55 627.823 1250.18 627.004C1251.83 626.18 1253.07 624.772 1254.68 623.94C1344.28 577.752 1393.53 516.742 1393.53 451.736C1393.53 383.752 1340.12 319.533 1243.13 270.906C1142.83 220.613 1011.43 195.39 880.904 195.39C753.542 195.39 627.017 219.399 530.95 267.566ZM529.395 265.228C579.094 240.31 637.631 221.397 702.806 209.112C734.124 203.207 766.885 198.996 800.203 196.288C802.454 196.104 804.706 195.913 806.962 195.741C835.345 193.548 864.263 192.58 893.065 192.861C924.225 193.169 955.49 194.941 986.053 198.13C1016.92 201.349 1047.31 206.044 1076.45 212.086C1136.89 224.617 1191.47 242.729 1238.73 265.934C1262.63 277.685 1284.12 290.72 1303.01 304.325C1323.18 318.846 1340.63 334.164 1354.55 350.267C1368.37 366.209 1378.95 382.92 1386.01 399.955C1393.06 416.932 1396.64 434.349 1396.64 451.74C1396.64 467.889 1393.59 484.038 1387.57 499.777C1381.49 515.689 1372.34 531.303 1360.34 546.227C1335.45 577.194 1298.77 604.997 1251.35 628.772C1251.33 628.784 1250.92 628.202 1250.9 628.214C1250.87 628.225 1251.25 628.826 1251.22 628.838C1204.48 652.258 1149.98 670.405 1089.27 682.785C1060.02 688.752 1029.43 693.326 998.289 696.393C968.962 699.281 938.93 700.85 908.888 701.072C907.355 701.084 905.827 701.092 904.295 701.096C874.81 701.174 845.146 699.944 815.976 697.447C813.994 697.275 812.017 697.099 810.04 696.92C777.756 694.032 745.939 689.567 715.416 683.643C652.133 671.342 594.831 653.031 545.254 629.252C520.169 617.197 497.529 603.826 477.734 589.683C457.502 575.227 440.115 559.843 426.193 543.741C412.374 527.798 401.791 511.087 394.736 494.052C387.689 477.076 384.103 459.658 384.103 442.268C384.103 426.119 387.154 409.97 393.172 394.23C399.252 378.319 408.411 362.705 420.405 347.781C445.301 316.805 481.98 288.999 529.395 265.228Z" fill="#F09819"/>
<path opacity="0.5625" d="M565.216 284.745C481.391 326.773 435.23 382.873 435.23 442.709C435.23 504.18 483.535 562.251 571.247 606.226C662.1 651.778 781.148 674.597 899.365 674.546C1012.56 674.495 1124.98 653.48 1211.23 611.374C1212.68 610.671 1214.54 610.617 1215.97 609.903C1217.41 609.181 1218.4 607.807 1219.81 607.077C1300.93 565.299 1345.52 510.1 1345.52 451.291C1345.52 389.82 1297.22 331.749 1209.51 287.77C1118.76 242.273 999.889 219.45 881.812 219.45C766.584 219.45 652.124 241.168 565.216 284.745ZM563.661 282.408C609.05 259.651 662.599 242.437 722.17 231.357C750.797 226.034 780.739 222.291 811.19 219.895C813.208 219.735 815.226 219.567 817.252 219.415C842.71 217.499 868.631 216.675 894.44 216.96C922.378 217.272 950.398 218.888 977.793 221.768C1005.46 224.676 1032.7 228.89 1058.83 234.311C1112.96 245.539 1161.92 261.735 1204.36 282.462C1225.79 292.949 1245.07 304.598 1262.1 316.716C1280.67 329.938 1296.79 343.843 1309.65 358.501C1322.43 373.043 1332.23 388.298 1338.77 403.87C1345.3 419.402 1348.63 435.349 1348.63 451.291C1348.63 465.918 1345.87 480.537 1340.43 494.786C1334.92 509.195 1326.64 523.334 1315.78 536.845C1293.25 564.878 1260.04 590.061 1217.1 611.592C1217.08 611.604 1216.71 611.101 1216.68 611.112C1216.66 611.124 1216.98 611.655 1216.95 611.667C1174.89 632.737 1125.88 649.085 1071.32 660.27C1045.03 665.664 1017.53 669.816 989.522 672.614C963.156 675.249 936.152 676.708 909.13 676.954C907.755 676.966 906.38 676.977 905.005 676.981C878.495 677.098 851.82 676.052 825.571 673.863C823.787 673.715 822.012 673.559 820.232 673.403C790.968 670.874 762.13 666.909 734.448 661.624C677.106 650.658 625.102 634.239 580.051 612.861C557.285 602.035 536.716 590.003 518.673 577.28C500.023 564.132 483.975 550.153 471.123 535.495C458.333 520.953 448.541 505.698 442.002 490.126C435.464 474.594 432.134 458.647 432.134 442.705C432.134 428.078 434.898 413.459 440.34 399.21C445.845 384.801 454.131 370.662 464.993 357.151C487.508 329.122 520.722 303.938 563.661 282.408Z" fill="#F09819"/>
<path opacity="0.625" d="M599.478 301.925C524.52 339.507 483.239 389.668 483.239 443.162C483.239 498.115 526.439 550.04 604.875 589.371C686.179 630.134 792.72 650.549 898.511 650.49C999.813 650.435 1100.42 631.605 1177.59 593.898C1178.82 593.297 1180.54 593.414 1181.76 592.801C1182.99 592.184 1183.73 590.838 1184.94 590.214C1257.58 552.846 1297.52 503.458 1297.52 450.842C1297.52 395.889 1254.32 343.964 1175.88 304.633C1094.7 263.928 988.349 243.514 882.715 243.514C779.63 243.51 677.227 262.941 599.478 301.925ZM597.928 299.591C639.006 278.993 687.563 263.483 741.535 253.61C767.469 248.864 794.59 245.59 822.173 243.51C823.962 243.377 825.746 243.229 827.535 243.1C850.067 241.461 872.991 240.778 895.806 241.067C920.523 241.387 945.297 242.846 969.52 245.41C993.984 248.002 1018.08 251.744 1041.19 256.537C1089.03 266.461 1132.35 280.741 1169.97 298.994C1188.93 308.212 1206.01 318.48 1221.16 329.107C1238.16 341.021 1252.94 353.518 1264.72 366.736C1276.48 379.876 1285.49 393.68 1291.51 407.78C1297.54 421.869 1300.61 436.344 1300.61 450.834C1300.61 463.939 1298.14 477.033 1293.27 489.791C1288.34 502.697 1280.92 515.357 1271.2 527.459C1251.04 552.557 1221.29 575.118 1182.82 594.405C1182.8 594.417 1182.47 593.987 1182.45 594.003C1182.42 594.015 1182.68 594.475 1182.66 594.487C1145.28 613.212 1101.76 627.761 1053.37 637.752C1030.02 642.576 1005.61 646.299 980.745 648.831C957.341 651.212 933.366 652.559 909.36 652.836C908.137 652.851 906.92 652.859 905.697 652.867C882.167 653.027 858.48 652.157 835.143 650.283C833.561 650.154 831.984 650.022 830.402 649.885C804.166 647.661 778.299 644.25 753.453 639.606C702.056 629.97 655.346 615.444 614.816 596.47C594.368 586.873 575.872 576.18 559.577 564.881C542.509 553.049 527.8 540.47 516.017 527.252C504.261 514.112 495.255 500.308 489.234 486.208C483.203 472.119 480.129 457.644 480.129 443.154C480.129 430.049 482.601 416.955 487.472 404.198C492.402 391.291 499.821 378.631 509.541 366.529C529.715 341.439 559.46 318.878 597.928 299.591Z" fill="#F09819"/>
<path opacity="0.6875" d="M633.744 319.1C567.648 352.238 531.251 396.459 531.251 443.61C531.251 492.05 569.342 537.828 638.507 572.507C710.262 608.482 804.297 626.493 897.657 626.426C987.073 626.364 1075.87 609.723 1143.94 576.41C1144.97 575.91 1146.52 576.199 1147.54 575.688C1148.57 575.173 1149.06 573.861 1150.06 573.339C1214.23 540.377 1249.5 496.804 1249.5 450.385C1249.5 401.946 1211.41 356.168 1142.25 321.489C1070.63 285.58 976.804 267.566 883.609 267.566C792.671 267.57 702.334 284.71 633.744 319.1ZM632.193 316.77C668.963 298.334 712.531 284.527 760.899 275.859C784.141 271.695 808.444 268.881 833.161 267.121C834.716 267.011 836.266 266.887 837.826 266.781C857.432 265.419 877.354 264.881 897.186 265.173C918.68 265.497 940.21 266.801 961.264 269.056C982.534 271.336 1003.47 274.598 1023.56 278.77C1065.1 287.391 1102.79 299.751 1135.6 315.529C1152.09 323.483 1166.96 332.357 1180.24 341.501C1195.65 352.109 1209.1 363.196 1219.82 374.974C1230.54 386.714 1238.76 399.062 1244.26 411.695C1249.78 424.339 1252.6 437.347 1252.6 450.385C1252.6 461.972 1250.42 473.532 1246.12 484.799C1241.77 496.206 1235.22 507.388 1226.63 518.077C1208.83 540.24 1182.55 560.183 1148.56 577.226C1148.53 577.241 1148.25 576.886 1148.22 576.902C1148.19 576.917 1148.4 577.3 1148.38 577.315C1115.68 593.691 1077.66 606.445 1035.42 615.241C1015.02 619.495 993.706 622.789 971.978 625.056C951.535 627.187 930.589 628.417 909.602 628.721C908.537 628.737 907.468 628.748 906.403 628.76C885.847 628.959 865.149 628.268 844.733 626.707C843.349 626.602 841.969 626.489 840.585 626.376C817.369 624.506 794.477 621.603 772.475 617.595C727.019 609.294 685.604 596.657 649.598 580.086C631.47 571.719 615.045 562.368 600.502 552.491C585.012 541.969 571.647 530.796 560.929 519.017C550.202 507.278 541.987 494.93 536.482 482.297C530.964 469.653 528.142 456.645 528.142 443.606C528.142 432.02 530.326 420.46 534.626 409.193C538.976 397.789 545.529 386.604 554.116 375.915C571.921 353.756 598.202 333.813 632.193 316.77Z" fill="#F09819"/>
<path opacity="0.75" d="M668.006 336.28C610.776 364.976 579.255 403.253 579.255 444.059C579.255 485.985 612.241 525.613 672.135 555.644C734.34 586.83 815.868 602.437 896.804 602.366C974.328 602.296 1051.31 587.845 1110.29 558.93C1111.11 558.528 1112.51 558.992 1113.32 558.583C1114.14 558.169 1114.38 556.889 1115.19 556.471C1170.87 527.919 1201.49 490.153 1201.49 449.933C1201.49 408.007 1168.51 368.379 1108.61 338.348C1046.55 307.232 965.255 291.625 884.504 291.625C805.712 291.625 727.437 306.479 668.006 336.28ZM666.46 333.954C698.919 317.68 737.499 305.57 780.263 298.108C800.814 294.521 822.295 292.172 844.144 290.736C845.465 290.65 846.782 290.548 848.108 290.463C864.789 289.378 881.713 288.979 898.552 289.28C916.824 289.608 935.114 290.759 952.995 292.703C971.065 294.666 988.843 297.456 1005.93 301C1041.17 308.317 1073.22 318.761 1101.22 332.065C1115.25 338.75 1127.91 346.231 1139.32 353.9C1153.15 363.2 1165.26 372.879 1174.9 383.217C1184.6 393.555 1192.03 404.447 1197.01 415.613C1202.02 426.813 1204.58 438.35 1204.58 449.937C1204.58 460.002 1202.69 470.035 1198.96 479.811C1195.19 489.716 1189.5 499.418 1182.05 508.699C1166.62 527.927 1143.8 545.251 1114.29 560.046C1114.25 560.062 1114.03 559.785 1113.99 559.8C1113.96 559.816 1114.12 560.128 1114.09 560.144C1086.07 574.17 1053.54 585.128 1017.47 592.731C1000.02 596.411 981.792 599.283 963.206 601.281C945.724 603.159 927.812 604.275 909.841 604.607C908.928 604.622 908.016 604.638 907.104 604.649C889.528 604.891 871.813 604.38 854.314 603.131C853.127 603.045 851.95 602.956 850.764 602.866C830.568 601.352 810.656 598.952 791.494 595.588C751.979 588.617 715.861 577.877 684.381 563.707C668.576 556.569 654.214 548.564 641.424 540.103C627.506 530.897 615.49 521.125 605.841 510.787C596.148 500.449 588.72 489.556 583.736 478.391C578.725 467.19 576.164 455.654 576.164 444.067C576.164 434.002 578.06 423.968 581.785 414.192C585.56 404.287 591.245 394.585 598.692 385.305C614.128 366.072 636.944 348.753 666.46 333.954Z" fill="#F09819"/>
<path opacity="0.8125" d="M702.267 353.459C653.899 377.71 627.264 410.048 627.264 444.512C627.264 479.925 655.139 513.405 705.763 538.784C758.418 565.186 827.44 578.385 895.95 578.307C961.588 578.232 1026.75 565.97 1076.64 541.446C1077.26 541.146 1078.49 541.782 1079.1 541.477C1079.72 541.169 1079.71 539.916 1080.31 539.604C1127.52 515.462 1153.48 483.507 1153.48 449.484C1153.48 414.071 1125.61 380.59 1074.98 355.211C1022.48 328.892 953.714 315.689 885.407 315.689C818.758 315.685 752.545 328.252 702.267 353.459ZM700.726 351.133C728.871 337.021 762.463 326.613 799.627 320.357C817.486 317.352 836.145 315.455 855.132 314.347C856.219 314.284 857.302 314.206 858.394 314.144C872.15 313.336 886.077 313.082 899.927 313.383C914.977 313.718 930.023 314.71 944.736 316.345C959.606 317.996 974.234 320.306 988.304 323.229C1017.24 329.243 1043.66 337.77 1066.84 348.6C1078.4 354.017 1088.88 360.098 1098.4 366.295C1110.66 374.276 1121.41 382.557 1129.99 391.451C1138.65 400.389 1145.3 409.825 1149.76 419.523C1154.26 429.28 1156.57 439.349 1156.57 449.48C1156.57 458.023 1154.97 466.527 1151.81 474.812C1148.61 483.215 1143.8 491.441 1137.48 499.309C1124.41 515.603 1105.06 530.304 1080.02 542.859C1079.98 542.878 1079.8 542.671 1079.77 542.691C1079.74 542.71 1079.84 542.949 1079.81 542.964C1056.47 554.641 1029.44 563.8 999.516 570.212C985.019 573.323 969.884 575.766 954.438 577.499C939.914 579.122 925.034 580.125 910.079 580.484C909.319 580.504 908.564 580.519 907.805 580.535C893.209 580.816 878.482 580.484 863.899 579.548C862.911 579.485 861.931 579.415 860.947 579.349C843.771 578.19 826.838 576.297 810.516 573.569C776.942 567.933 746.123 559.082 719.164 547.316C705.678 541.407 693.378 534.749 682.346 527.705C670.001 519.818 659.332 511.442 650.753 502.548C642.094 493.611 635.447 484.175 630.985 474.477C626.482 464.72 624.176 454.651 624.176 444.52C624.176 435.977 625.781 427.473 628.935 419.188C632.135 410.785 636.948 402.562 643.262 394.691C656.339 378.393 675.686 363.688 700.726 351.133Z" fill="#F09819"/>
<path opacity="0.875" d="M736.533 370.635C697.032 390.441 675.277 416.838 675.277 444.961C675.277 473.86 698.047 501.19 739.396 521.921C782.501 543.534 839.016 554.329 895.096 554.243C948.843 554.161 1002.19 544.088 1042.99 523.962C1043.4 523.763 1044.49 524.571 1044.89 524.368C1045.3 524.161 1045.04 522.944 1045.44 522.733C1084.17 502.997 1105.48 476.857 1105.48 449.027C1105.48 420.128 1082.71 392.798 1041.36 372.067C998.424 350.54 942.179 339.741 886.315 339.741C831.799 339.745 777.648 350.021 736.533 370.635ZM734.992 368.317C758.827 356.367 787.431 347.66 818.996 342.606C834.163 340.178 849.995 338.73 866.124 337.958C866.978 337.915 867.831 337.864 868.69 337.821C879.52 337.29 890.449 337.177 901.307 337.486C913.134 337.825 924.935 338.664 936.48 339.983C948.151 341.318 959.624 343.152 970.679 345.455C993.324 350.165 1014.1 356.776 1032.47 365.128C1041.57 369.28 1049.86 373.944 1057.49 378.682C1068.19 385.332 1077.58 392.228 1085.09 399.682C1092.72 407.222 1098.58 415.203 1102.53 423.434C1106.52 431.746 1108.57 440.344 1108.57 449.027C1108.57 456.048 1107.25 463.026 1104.67 469.817C1102.05 476.717 1098.11 483.464 1092.93 489.923C1082.22 503.282 1066.33 515.365 1045.77 525.675C1045.73 525.695 1045.59 525.566 1045.56 525.586C1045.52 525.605 1045.58 525.773 1045.54 525.792C1026.88 535.124 1005.34 542.484 981.581 547.702C970.036 550.239 957.993 552.26 945.684 553.724C934.121 555.097 922.271 555.983 910.335 556.374C909.733 556.393 909.13 556.413 908.524 556.428C896.902 556.752 885.164 556.6 873.498 555.972C872.712 555.929 871.93 555.882 871.139 555.839C856.988 555.043 843.03 553.646 829.548 551.558C801.915 547.253 776.394 540.295 753.956 530.932C742.788 526.253 732.547 520.949 723.28 515.314C712.5 508.754 703.188 501.768 695.674 494.314C688.044 486.774 682.188 478.793 678.243 470.562C674.247 462.249 672.198 453.652 672.198 444.969C672.198 437.948 673.515 430.97 676.094 424.179C678.719 417.279 682.66 410.532 687.841 404.073C698.546 390.71 714.427 378.627 734.992 368.317Z" fill="#F09819"/>
<path opacity="0.9375" d="M770.795 387.814C740.155 403.175 723.28 423.633 723.28 445.413C723.28 467.799 740.946 488.983 773.019 505.066C806.575 521.89 850.579 530.281 894.238 530.191C936.098 530.105 977.635 522.218 1009.34 506.486C1009.54 506.385 1010.47 507.368 1010.67 507.267C1010.88 507.165 1010.36 505.975 1010.56 505.869C1040.81 490.544 1057.46 470.215 1057.46 448.582C1057.46 426.197 1039.8 405.013 1007.72 388.93C974.35 372.196 930.629 363.805 887.209 363.805C844.841 363.805 802.751 371.794 770.795 387.814ZM769.258 385.496C788.784 375.704 812.395 368.699 838.36 364.855C850.835 363.009 863.845 361.986 877.107 361.569C877.732 361.549 878.347 361.522 878.972 361.503C886.877 361.249 894.808 361.28 902.673 361.592C911.279 361.936 919.835 362.619 928.207 363.629C936.678 364.652 944.996 366.01 953.04 367.684C969.389 371.091 984.534 375.782 998.087 381.664C1004.71 384.548 1010.84 387.779 1016.56 391.081C1025.72 396.373 1033.73 401.911 1040.17 407.925C1046.77 414.063 1051.84 420.589 1055.27 427.352C1058.75 434.221 1060.55 441.351 1060.55 448.579C1060.55 454.081 1059.52 459.525 1057.51 464.829C1055.46 470.23 1052.39 475.495 1048.35 480.545C1040 490.969 1027.58 500.429 1011.5 508.496C1011.46 508.515 1011.37 508.465 1011.33 508.484C1011.29 508.504 1011.29 508.597 1011.25 508.621C997.278 515.603 981.226 521.168 963.628 525.188C955.031 527.155 946.079 528.747 936.907 529.941C928.306 531.061 919.484 531.834 910.564 532.251C910.115 532.271 909.665 532.29 909.22 532.31C900.579 532.673 891.824 532.7 883.075 532.388C882.486 532.368 881.902 532.341 881.313 532.318C870.177 531.888 859.199 530.987 848.557 529.535C826.865 526.565 806.638 521.5 788.73 514.537C779.886 511.087 771.689 507.15 764.193 502.907C754.971 497.686 747.017 492.077 740.577 486.063C733.98 479.925 728.911 473.399 725.482 466.636C721.995 459.767 720.202 452.637 720.202 445.41C720.202 439.907 721.227 434.463 723.24 429.159C725.289 423.758 728.363 418.493 732.403 413.443C740.753 403.027 753.169 393.563 769.258 385.496Z" fill="#F09819"/>
<path opacity="0.25" d="M888.113 387.865C857.887 387.865 827.858 393.563 805.061 404.994C783.288 415.913 771.293 430.427 771.293 445.866C771.293 461.738 783.849 476.771 806.651 488.206C853.694 511.794 929.524 512.153 975.69 489.006L976.458 490.161L975.69 489.006C997.463 478.086 1009.46 463.572 1009.46 448.134C1009.46 432.261 996.901 417.228 974.099 405.794C950.286 393.852 919.093 387.865 888.113 387.865ZM892.66 508.812C892.269 508.812 891.887 508.812 891.496 508.808C859.014 508.656 828.339 502.162 805.119 490.516C781.324 478.586 768.22 462.729 768.22 445.862C768.22 429.428 780.758 414.091 803.524 402.675C826.052 391.381 856.048 385.18 888.095 385.18C888.485 385.18 888.868 385.18 889.258 385.184C921.74 385.336 952.416 391.83 975.636 403.476C999.431 415.406 1012.54 431.262 1012.54 448.13C1012.54 464.564 999.997 479.901 977.231 491.316C954.703 502.611 924.706 508.812 892.66 508.812Z" fill="#F09819"/>
</g>
</svg>
