<svg width="64" height="64" viewBox="0 0 64 64" fill="none" xmlns="http://www.w3.org/2000/svg">
<path fill-rule="evenodd" clip-rule="evenodd" d="M42.1595 43.6769C43.852 42.6144 45.8542 42 48 42C54.0751 42 59 46.9249 59 53C59 59.0751 54.0751 64 48 64C42.8085 64 38.4571 60.4037 37.301 55.5664C36.9132 53.9438 36.5795 52.281 35.7767 50.8186L32 43.9394L28.2233 50.8186C27.4205 52.281 27.0868 53.9438 26.699 55.5664C25.5429 60.4037 21.1915 64 16 64C9.92487 64 5 59.0751 5 53C5 46.9249 9.92487 42 16 42C18.1458 42 20.148 42.6144 21.8405 43.6769L26.8702 34.5954L14.4653 12C11.5441 6.6504 13.3579 2.71988 16.6844 0.208455C16.8673 0.0704223 17.0917 0 17.3209 0C17.721 0 18.0896 0.217054 18.2833 0.566767L32 25.3332L45.7167 0.566767C45.9104 0.217054 46.279 0 46.6791 0C46.9083 0 47.1327 0.0704223 47.3156 0.208455C50.6421 2.71988 52.4559 6.6504 49.5347 12L37.1298 34.5954L42.1595 43.6769ZM16 60C19.866 60 23 56.866 23 53C23 49.134 19.866 46 16 46C12.134 46 9 49.134 9 53C9 56.866 12.134 60 16 60ZM48 60C51.866 60 55 56.866 55 53C55 49.134 51.866 46 48 46C44.134 46 41 49.134 41 53C41 56.866 44.134 60 48 60ZM32 37.5C33.3807 37.5 34.5 36.3807 34.5 35C34.5 33.6193 33.3807 32.5 32 32.5C30.6193 32.5 29.5 33.6193 29.5 35C29.5 36.3807 30.6193 37.5 32 37.5Z" fill="#F4C501"/>
</svg>