<svg width="1542" height="916" viewBox="0 0 1542 916" fill="none" xmlns="http://www.w3.org/2000/svg">
<g filter="url(#filter0_di_49_528)">
<path d="M223.171 634.973C240.932 664.087 287.319 656.389 310.808 681.138C338.452 710.454 322.059 770.517 357.753 788.543C368.505 793.472 380.984 792.867 391.736 797.796C421.305 811.35 421.44 858.35 449.221 876.078C477.66 893.775 514.09 869.528 547.111 872.015C572.191 873.524 600.538 889.181 619.54 872.592C634.753 859.592 634.786 830.978 654.245 824.584C686.687 814.156 702.368 884.927 734.154 874.53C747.137 870.494 752.377 855.253 763.894 847.882C787.554 832.429 817.733 859.579 845.104 853.483C879.669 846.358 899.529 790.214 932.947 801.538C946.983 806.307 954.909 821.592 965.845 830.599C993.183 853.118 1034.01 838.876 1061.34 817.114C1073.42 807.672 1088.07 796.744 1101.51 802.905C1108.92 806.633 1113.25 815.279 1118.81 821.822C1141.17 850.713 1192.34 846.871 1211.33 815.294C1220.48 799.182 1222.22 779.341 1234.09 765.141C1250.34 745.959 1279.3 745.918 1303.63 745.42C1328.62 744.89 1357.99 739.379 1368.12 715.725C1373.45 702.523 1371.4 686.272 1378.77 674.334C1390.45 656.055 1419.47 657.373 1433.16 639.679C1445 624.799 1440.05 602.557 1444.45 583.269C1452.72 547.443 1493.99 528.411 1502.91 492.554C1509.07 468.412 1498.68 442.346 1503.49 417.588C1506.2 404.513 1512.9 392.607 1516.3 380.18C1525.97 346.33 1511.18 310.259 1497.9 278.203C1478.06 232.158 1458.91 186.761 1439.07 140.716C1427.35 114.035 1414.18 84.698 1387.36 73.7355C1377.3 69.4546 1366.04 67.9564 1357.17 60.8928C1350.32 55.0932 1346.64 46.4152 1341.71 39.1605C1316.36 2.23934 1260.65 7.66455 1220.7 26.6326C1152.36 58.5576 1096.41 117.132 1067.34 188.029C1043.57 245.044 1037.18 308.028 1010.69 363.131C997.431 390.343 980.108 415.026 961.381 437.734C915.846 493.76 862.064 542.011 801.913 580.351C744.955 616.493 609.069 536.561 564.671 500.563C512.743 458.118 511.263 439.796 468.56 397.584C419.642 348.862 383.334 375.828 328.332 396.888C290.818 411.65 229.511 394.865 200.962 418.73C155.948 457.019 210.367 481.631 224.905 512.264C243.903 554.261 201.103 597.892 223.171 634.973Z" fill="url(#paint0_linear_49_528)"/>
<path d="M311.901 680.106L311.898 680.103C300.696 668.3 284.46 663.697 268.93 659.295C267.701 658.946 266.477 658.599 265.26 658.25C248.445 653.424 232.996 648.186 224.457 634.196C213.801 616.285 218.737 596.756 224.335 575.846L224.622 574.773C230.08 554.406 235.86 532.837 226.272 511.641L226.266 511.629L226.26 511.616C222.522 503.74 216.256 496.313 209.821 489.108C208.819 487.987 207.814 486.871 206.812 485.759C201.319 479.663 195.929 473.683 191.852 467.535C187.045 460.288 184.218 453.03 185.157 445.367C186.095 437.712 190.837 429.31 201.927 419.875C208.794 414.138 217.701 410.785 227.914 408.798C238.13 406.81 249.535 406.211 261.32 405.895C264.284 405.816 267.275 405.754 270.274 405.692C279.155 405.51 288.118 405.325 296.728 404.668C308.253 403.789 319.289 402.055 328.871 398.286C336.843 395.233 344.495 392.027 351.818 388.958C357.089 386.749 362.189 384.612 367.117 382.654C378.992 377.937 390.085 374.167 400.943 372.552C411.774 370.94 422.363 371.474 433.236 375.372C444.122 379.274 455.383 386.581 467.5 398.649L467.504 398.653C485.188 416.134 495.76 429.482 505.846 442.217C507.895 444.803 509.923 447.364 511.986 449.929C524.236 465.155 537.66 480.425 563.72 501.726L563.724 501.73C586.03 519.816 631.22 548.87 677.988 568.889C701.374 578.9 725.223 586.681 746.847 589.68C768.442 592.675 788.038 590.93 802.713 581.617L802.716 581.616C863.005 543.187 916.906 494.829 962.539 438.683C981.314 415.918 998.711 391.134 1012.04 363.785L1012.04 363.777C1025.35 336.082 1033.6 306.431 1041.48 276.676C1042.1 274.348 1042.71 272.02 1043.33 269.692C1050.57 242.219 1057.81 214.776 1068.72 188.602L1068.72 188.594C1097.65 118.046 1153.33 59.7556 1221.33 27.9916L1221.34 27.9876C1241.14 18.5841 1264.82 12.5611 1286.61 13.4371C1308.39 14.3125 1328.14 22.0562 1340.47 40.01C1341.94 42.1729 1343.26 44.3967 1344.61 46.676C1345.52 48.2175 1346.45 49.7843 1347.45 51.3747C1349.87 55.221 1352.6 58.992 1356.19 62.0388L1356.21 62.0537L1356.23 62.068C1360.86 65.7577 1366.09 67.9644 1371.32 69.7757C1373.12 70.3978 1374.9 70.9677 1376.66 71.5314C1380.1 72.6352 1383.48 73.7152 1386.77 75.1164L1386.78 75.1206L1386.79 75.1245C1399.83 80.4553 1409.62 90.277 1417.63 102.173C1425.65 114.083 1431.83 127.963 1437.7 141.321C1447.62 164.338 1457.36 187.194 1467.11 210.052L1467.11 210.069C1476.86 232.92 1486.6 255.774 1496.52 278.791C1503.17 294.833 1510.13 311.754 1514.25 328.874C1518.36 345.985 1519.59 363.184 1514.85 379.772L1514.85 379.781L1514.85 379.79C1513.38 385.18 1511.27 390.474 1509.11 395.904C1508.82 396.631 1508.53 397.361 1508.24 398.093C1505.8 404.259 1503.41 410.612 1502.03 417.289L1502.02 417.298L1502.02 417.307C1499.67 429.401 1500.88 441.774 1502.06 453.833C1502.11 454.374 1502.16 454.913 1502.21 455.452C1503.44 468.112 1504.46 480.409 1501.46 492.188L1501.45 492.196C1497.11 509.638 1484.92 523.055 1472.44 536.788L1472.33 536.916C1459.91 550.579 1447.22 564.577 1442.99 582.936L1442.99 582.94C1441.39 589.945 1441 597.398 1440.62 604.603C1440.47 607.459 1440.32 610.277 1440.1 613.012C1439.31 622.789 1437.61 631.679 1431.99 638.747L1431.98 638.755L1431.97 638.763C1425.57 647.043 1415.62 651.015 1405.33 655.125C1405.11 655.215 1404.88 655.305 1404.66 655.394C1394.32 659.529 1383.65 663.916 1377.5 673.529L1377.5 673.539L1377.49 673.55C1373.63 679.809 1372.27 687.14 1371.2 694.339C1371.06 695.243 1370.93 696.145 1370.8 697.043C1369.88 703.39 1368.99 709.556 1366.73 715.153C1361.88 726.477 1352.4 733.534 1340.92 737.839C1329.42 742.154 1316.02 743.657 1303.6 743.92L311.901 680.106ZM311.901 680.106C319.038 687.675 323.284 697.177 326.227 707.33C328.623 715.6 330.181 724.405 331.704 733.02C332.047 734.959 332.389 736.888 332.737 738.8C336.574 759.832 341.33 778.551 358.408 787.191M311.901 680.106L358.408 787.191M358.408 787.191C363.581 789.557 369.195 790.61 375.024 791.695L375.11 791.711C380.86 792.781 386.821 793.89 392.365 796.432C407.732 803.476 415.353 819.174 422.512 834.741C422.8 835.367 423.087 835.993 423.374 836.618C430.326 851.767 437.118 866.569 450.024 874.808C463.702 883.315 479.384 881.815 496.144 878.282C499.658 877.541 503.265 876.701 506.902 875.853C511.797 874.711 516.747 873.557 521.604 872.616C530.158 870.96 538.773 869.883 547.219 870.518C553.609 870.904 560.176 872.187 566.663 873.609C568.183 873.943 569.698 874.283 571.205 874.622C576.17 875.738 581.059 876.838 585.848 877.609C598.337 879.621 609.583 879.297 618.556 871.463L618.562 871.458L618.568 871.452C622.168 868.376 624.916 864.336 627.32 859.806C629.056 856.534 630.573 853.088 632.107 849.605C632.709 848.238 633.313 846.865 633.935 845.495C638.264 835.945 643.363 826.582 653.781 823.159L653.791 823.156C662.526 820.348 670.095 823.07 676.862 828.259C683.567 833.4 689.68 841.106 695.623 848.611L695.696 848.704C701.679 856.26 707.494 863.603 713.744 868.46C719.958 873.288 726.384 875.495 733.692 873.104L733.703 873.101L733.714 873.097C739.745 871.223 744.056 866.728 748.424 861.497C749.027 860.775 749.632 860.037 750.243 859.292C753.97 854.748 757.925 849.925 763.084 846.622C775.557 838.48 789.671 841.658 803.535 845.734C805.131 846.203 806.724 846.685 808.314 847.166C813.729 848.803 819.117 850.431 824.501 851.537C831.443 852.961 838.228 853.479 844.783 852.019L844.795 852.016L844.806 852.014C853.096 850.305 860.591 845.637 867.75 839.621C873.211 835.031 878.384 829.741 883.536 824.472C885.155 822.817 886.772 821.163 888.395 819.535C895.127 812.778 901.962 806.45 909.283 802.551C916.67 798.616 924.609 797.126 933.433 800.116L933.434 800.117C940.824 802.628 946.527 807.881 951.664 813.461C953.181 815.109 954.642 816.776 956.082 818.419C959.6 822.432 962.995 826.305 966.801 829.44C980.024 840.332 996.563 842.397 1013.3 838.992C1030.06 835.584 1046.88 826.711 1060.41 815.942L1060.42 815.933C1066.44 811.226 1073.26 806.022 1080.29 802.795C1087.35 799.559 1094.86 798.206 1102.14 801.54L1102.16 801.552L1102.19 801.564C1106.19 803.579 1109.29 806.884 1112.03 810.379C1113.17 811.831 1114.28 813.346 1115.36 814.833C1115.58 815.138 1115.8 815.442 1116.02 815.744C1117.32 817.53 1118.61 819.258 1119.96 820.848L1119.98 820.874L1120 820.901C1130.81 834.869 1148.66 841.006 1166.23 839.737C1183.8 838.469 1200.84 829.818 1210.03 814.54C1213.78 807.933 1216.26 800.696 1218.78 793.336C1219.27 791.897 1219.77 790.454 1220.27 789.009C1223.34 780.245 1226.81 771.507 1232.94 764.181L1232.94 764.173C1241.37 754.225 1253.05 749.31 1265.54 746.803C1277.31 744.441 1289.97 744.191 1301.55 743.961C1302.24 743.948 1302.92 743.934 1303.6 743.92L358.408 787.191Z" stroke="#F4CDCD" stroke-width="3"/>
</g>
<g filter="url(#filter1_di_49_528)">
<path d="M325.461 608.206C340.308 632.833 379.045 626.347 398.674 647.285C421.774 672.088 408.112 722.866 437.93 738.126C446.912 742.299 457.334 741.794 466.316 745.967C491.017 757.443 491.151 797.184 514.362 812.188C538.121 827.166 568.534 806.682 596.113 808.802C617.059 810.091 640.741 823.344 656.603 809.326C669.302 798.342 669.316 774.147 685.564 768.751C712.654 759.949 725.783 819.798 752.324 811.023C763.165 807.617 767.534 794.732 777.149 788.506C796.902 775.451 822.119 798.423 844.976 793.283C873.839 787.275 890.399 739.812 918.314 749.404C930.039 753.444 936.665 766.372 945.802 773.994C968.645 793.049 1002.74 781.027 1025.55 762.64C1035.63 754.663 1047.86 745.429 1059.09 750.645C1065.28 753.802 1068.9 761.115 1073.55 766.65C1092.24 791.09 1134.97 787.867 1150.81 761.177C1158.44 747.558 1159.89 730.782 1169.8 718.781C1183.36 702.57 1207.55 702.55 1227.87 702.141C1248.74 701.706 1273.26 697.06 1281.71 677.065C1286.16 665.905 1284.44 652.163 1290.58 642.072C1300.34 626.622 1324.57 627.751 1335.99 612.797C1345.87 600.221 1341.73 581.412 1345.4 565.105C1352.28 534.816 1386.74 518.745 1394.18 488.43C1399.31 468.019 1390.62 445.974 1394.63 425.042C1396.88 413.988 1402.48 403.924 1405.31 393.418C1413.37 364.801 1401 334.293 1389.89 307.182C1373.3 268.238 1357.29 229.843 1340.7 190.9C1330.89 168.333 1319.89 143.52 1297.48 134.238C1289.07 130.613 1279.67 129.34 1272.26 123.363C1266.54 118.456 1263.46 111.116 1259.34 104.979C1238.15 73.7478 1191.63 78.307 1158.27 94.3254C1101.21 121.285 1054.51 170.785 1030.26 230.717C1010.44 278.914 1005.13 332.168 983.037 378.747C971.976 401.749 957.52 422.612 941.891 441.803C903.888 489.153 858.994 529.924 808.777 562.313C761.224 592.844 647.701 525.189 610.605 494.728C567.217 458.812 565.972 443.319 530.289 407.605C489.411 366.383 459.102 389.166 413.176 406.946C381.853 419.409 330.644 405.185 306.812 425.35C269.236 457.702 314.696 478.541 326.852 504.45C342.738 539.971 307.013 576.842 325.461 608.206Z" fill="#E7E7E7"/>
<path d="M399.769 646.257L399.773 646.261C405.772 652.702 409.335 660.776 411.802 669.378C413.81 676.384 415.118 683.844 416.394 691.13C416.681 692.769 416.967 694.399 417.259 696.012C420.476 713.817 424.448 729.523 438.591 736.777C442.878 738.764 447.534 739.652 452.407 740.573L452.492 740.589C457.286 741.495 462.291 742.441 466.952 744.606C479.883 750.614 486.285 763.981 492.263 777.13C492.5 777.65 492.736 778.171 492.972 778.691C498.796 791.527 504.45 803.988 515.172 810.923C526.506 818.064 539.509 816.827 553.498 813.85C556.419 813.228 559.427 812.52 562.465 811.804C566.56 810.84 570.707 809.864 574.763 809.071C581.915 807.672 589.135 806.762 596.222 807.305C601.581 807.636 607.082 808.728 612.501 809.934C613.775 810.218 615.042 810.507 616.303 810.795C620.448 811.741 624.521 812.67 628.512 813.324C638.922 815.028 648.211 814.744 655.612 808.203L655.618 808.198L655.624 808.193C658.596 805.622 660.873 802.236 662.873 798.419C664.317 795.661 665.577 792.76 666.855 789.818C667.358 788.661 667.864 787.498 668.384 786.334C671.991 778.271 676.281 770.255 685.096 767.327L685.106 767.324C692.511 764.918 698.922 767.271 704.614 771.69C710.244 776.062 715.371 782.608 720.332 788.95L720.381 789.012C725.391 795.416 730.237 801.61 735.436 805.702C740.591 809.759 745.869 811.579 751.858 809.599L751.869 809.595L751.88 809.592C756.837 808.034 760.395 804.292 764.041 799.87C764.542 799.263 765.045 798.641 765.554 798.012C768.662 794.174 771.99 790.065 776.332 787.251C786.856 780.299 798.761 783.038 810.332 786.489C811.669 786.887 813.003 787.296 814.333 787.704C818.854 789.09 823.339 790.466 827.824 791.4C833.603 792.605 839.229 793.039 844.652 791.819L844.663 791.816L844.675 791.814C851.536 790.386 857.754 786.474 863.717 781.402C868.265 777.533 872.572 773.074 876.871 768.624C878.223 767.223 879.575 765.823 880.934 764.443C886.553 758.734 892.281 753.362 898.43 750.049C904.647 746.699 911.352 745.424 918.806 747.985L918.807 747.986C925.043 750.135 929.843 754.619 934.14 759.344C935.417 760.749 936.643 762.165 937.849 763.558C940.784 766.947 943.601 770.201 946.765 772.841C957.74 781.996 971.467 783.747 985.39 780.888C999.333 778.025 1013.34 770.553 1024.61 761.473L1024.62 761.465C1029.65 757.489 1035.36 753.074 1041.26 750.334C1047.19 747.585 1053.55 746.416 1059.73 749.284L1059.75 749.296L1059.77 749.308C1063.17 751.039 1065.79 753.87 1068.08 756.833C1069.04 758.065 1069.96 759.351 1070.87 760.609C1071.05 760.867 1071.24 761.123 1071.42 761.378C1072.51 762.889 1073.58 764.345 1074.7 765.683L1074.72 765.709L1074.74 765.736C1083.72 777.477 1098.54 782.65 1113.14 781.591C1127.74 780.533 1141.89 773.264 1149.51 760.431C1152.63 754.866 1154.69 748.772 1156.79 742.552C1157.2 741.334 1157.61 740.111 1158.03 738.887C1160.59 731.477 1163.5 724.055 1168.64 717.828L1168.65 717.82C1175.73 709.355 1185.54 705.185 1196.01 703.065C1205.86 701.069 1216.46 700.863 1226.12 700.675C1226.7 700.664 1227.27 700.653 1227.84 700.641C1238.2 700.425 1249.35 699.163 1258.92 695.535C1268.46 691.918 1276.31 685.996 1280.32 676.5C1282.19 671.795 1282.93 666.611 1283.7 661.242C1283.81 660.483 1283.91 659.72 1284.03 658.954C1284.92 652.869 1286.06 646.63 1289.3 641.295L1289.31 641.284L1289.32 641.274C1294.49 633.073 1303.48 629.344 1312.1 625.858C1312.28 625.786 1312.46 625.714 1312.64 625.642C1321.25 622.163 1329.5 618.832 1334.8 611.888L1334.81 611.88L1334.82 611.872C1339.46 605.955 1340.88 598.497 1341.53 590.237C1341.71 587.937 1341.84 585.563 1341.96 583.152C1342.27 577.054 1342.6 570.722 1343.93 564.78L1343.94 564.777C1347.48 549.189 1358.11 537.316 1368.47 525.777L1368.55 525.689C1378.98 514.068 1389.12 502.768 1392.72 488.077L1392.72 488.069C1395.22 478.152 1394.36 467.79 1393.33 457.081C1393.29 456.622 1393.24 456.162 1393.2 455.702C1392.21 445.513 1391.19 435.022 1393.16 424.765L1393.16 424.756L1393.16 424.747C1394.32 419.082 1396.32 413.696 1398.36 408.483C1398.6 407.863 1398.84 407.246 1399.08 406.632C1400.88 402.04 1402.63 397.578 1403.86 393.033L1403.86 393.024L1403.86 393.016C1407.8 379.04 1406.77 364.537 1403.33 350.088C1399.89 335.63 1394.07 321.334 1388.51 307.765C1380.22 288.295 1372.07 268.963 1363.92 249.634L1363.91 249.628L1363.91 249.618C1355.76 230.288 1347.61 210.961 1339.32 191.497C1334.41 180.196 1329.26 168.476 1322.57 158.422C1315.88 148.38 1307.74 140.112 1296.9 135.624L1296.89 135.62L1296.88 135.616C1294.14 134.434 1291.35 133.525 1288.47 132.593C1287 132.114 1285.51 131.63 1284 131.098C1279.61 129.561 1275.22 127.681 1271.31 124.533L1271.3 124.518L1271.28 124.503C1268.25 121.902 1265.95 118.688 1263.93 115.428C1263.08 114.071 1262.3 112.742 1261.54 111.437C1260.42 109.517 1259.32 107.65 1258.1 105.824C1247.85 90.7149 1231.43 84.1814 1213.3 83.4326C1195.15 82.683 1175.42 87.7503 1158.91 95.6775L1158.9 95.6815C1102.19 122.477 1055.76 171.689 1031.65 231.276L1031.65 231.284C1022.56 253.395 1016.53 276.582 1010.49 299.812C1009.98 301.779 1009.47 303.746 1008.95 305.713C1002.39 330.868 995.507 355.953 984.391 379.386L984.388 379.394C973.261 402.533 958.732 423.494 943.056 442.743C904.956 490.214 859.943 531.095 809.586 563.573L809.584 563.575C797.256 571.49 780.817 572.949 762.753 570.402C744.66 567.851 724.715 561.25 705.169 552.769C666.079 535.809 628.306 511.207 609.651 495.889L609.646 495.885C587.857 477.848 576.628 464.917 566.382 452.027C564.657 449.856 562.961 447.689 561.249 445.501C552.82 434.728 543.993 423.447 529.226 408.668L529.222 408.664C519.115 398.471 509.736 392.311 500.686 389.022C491.651 385.737 482.852 385.281 473.843 386.633C464.807 387.989 455.566 391.162 445.656 395.143C441.553 396.791 437.296 398.595 432.895 400.46C426.773 403.054 420.372 405.766 413.715 408.343C405.68 411.539 396.436 413.001 386.803 413.739C379.604 414.291 372.108 414.443 364.689 414.593C362.185 414.644 359.691 414.694 357.219 414.76C347.378 415.021 337.873 415.521 329.364 417.192C320.858 418.863 313.466 421.682 307.779 426.494C298.552 434.44 294.641 441.492 293.87 447.889C293.099 454.295 295.434 460.382 299.438 466.49C302.836 471.675 307.326 476.72 311.917 481.878C312.755 482.819 313.596 483.764 314.434 484.715C319.811 490.809 325.069 497.114 328.21 503.808L328.216 503.821L328.221 503.833C336.271 521.831 331.436 540.133 326.892 557.332L326.646 558.265C321.975 575.96 317.897 592.378 326.751 607.437C333.836 619.181 346.646 623.597 360.698 627.688C361.718 627.985 362.744 628.28 363.774 628.576C376.733 632.302 390.361 636.221 399.769 646.257Z" stroke="#F4CDCD" stroke-width="3"/>
</g>
<g filter="url(#filter2_di_49_528)">
<path d="M417.533 580.743C429.827 600.999 461.921 595.652 478.177 612.873C497.309 633.272 485.977 675.051 510.676 687.598C518.117 691.028 526.751 690.61 534.191 694.04C554.652 703.475 554.753 736.17 573.978 748.508C593.658 760.823 618.859 743.963 641.708 745.699C659.06 746.753 678.676 757.65 691.821 746.113C702.345 737.072 702.362 717.167 715.825 712.723C738.27 705.475 749.132 754.709 771.123 747.482C780.105 744.677 783.728 734.075 791.695 728.95C808.063 718.205 828.949 737.097 847.886 732.861C871.8 727.911 885.531 688.858 908.655 696.742C918.368 700.062 923.854 710.696 931.422 716.964C950.342 732.634 978.588 722.735 997.491 707.601C1005.85 701.035 1015.98 693.435 1025.28 697.723C1030.41 700.318 1033.41 706.334 1037.26 710.886C1052.73 730.988 1088.14 728.324 1101.27 706.362C1107.6 695.155 1108.8 681.353 1117.01 671.477C1128.25 658.137 1148.29 658.113 1165.12 657.771C1182.41 657.407 1202.73 653.578 1209.74 637.126C1213.42 627.943 1212 616.638 1217.1 608.334C1225.18 595.621 1245.26 596.543 1254.72 584.236C1262.91 573.887 1259.49 558.414 1262.53 544.997C1268.24 520.077 1296.79 506.845 1302.96 481.903C1307.22 465.109 1300.03 446.975 1303.35 429.753C1305.22 420.658 1309.86 412.377 1312.2 403.733C1318.89 380.187 1308.66 355.092 1299.46 332.79C1285.72 300.755 1272.47 269.172 1258.73 237.137C1250.61 218.574 1241.5 198.164 1222.94 190.533C1215.98 187.553 1208.19 186.509 1202.05 181.594C1197.31 177.558 1194.76 171.521 1191.35 166.473C1173.8 140.784 1135.26 144.548 1107.62 157.736C1060.34 179.932 1021.64 220.669 1001.54 269.983C985.1 309.64 980.69 353.454 962.372 391.781C953.202 410.708 941.221 427.876 928.268 443.669C896.771 482.635 859.568 516.19 817.956 542.851C778.552 567.983 684.52 512.354 653.795 487.304C617.858 457.767 616.831 445.021 587.278 415.65C553.423 381.747 528.307 400.499 490.254 415.139C464.301 425.402 421.879 413.715 402.131 430.311C370.992 456.938 408.648 474.069 418.713 495.381C431.864 524.6 402.258 554.944 417.533 580.743Z" fill="url(#paint1_linear_49_528)"/>
<path d="M479.27 611.841L479.273 611.844C484.281 617.184 487.247 623.871 489.294 630.969C490.961 636.748 492.045 642.903 493.101 648.898C493.338 650.244 493.574 651.582 493.814 652.907C496.479 667.57 499.752 680.348 511.334 686.247C514.851 687.863 518.675 688.587 522.715 689.344L522.799 689.36C526.761 690.103 530.934 690.884 534.823 692.678C545.635 697.663 550.97 708.756 555.912 719.557C556.104 719.976 556.295 720.394 556.486 720.812C561.32 731.397 565.971 741.58 574.784 747.24C584.081 753.053 594.764 752.055 606.349 749.603C608.756 749.093 611.246 748.51 613.763 747.921C617.163 747.125 620.612 746.318 623.972 745.664C629.906 744.51 635.913 743.755 641.815 744.202C646.275 744.474 650.848 745.375 655.338 746.366C656.396 746.599 657.448 746.837 658.493 747.074C661.925 747.85 665.289 748.612 668.587 749.147C677.194 750.543 684.79 750.292 690.834 744.987L690.84 744.982L690.846 744.976C693.274 742.891 695.143 740.137 696.792 737.01C697.985 734.75 699.024 732.377 700.082 729.96C700.499 729.006 700.92 728.045 701.354 727.082C704.343 720.45 707.939 713.748 715.36 711.299L715.369 711.296C721.608 709.281 727.004 711.256 731.76 714.923C736.454 718.542 740.72 723.954 744.824 729.163L744.849 729.196C749.009 734.478 753.006 739.552 757.287 742.897C761.517 746.202 765.803 747.653 770.659 746.057L770.67 746.054L770.68 746.05C774.71 744.792 777.617 741.767 780.637 738.13C781.049 737.634 781.465 737.124 781.885 736.608C784.459 733.452 787.245 730.034 790.88 727.693C799.71 721.9 809.681 724.193 819.257 727.026C820.369 727.355 821.477 727.692 822.581 728.027C826.323 729.166 830.024 730.291 833.727 731.056C838.497 732.042 843.118 732.391 847.563 731.397L847.575 731.395L847.587 731.392C853.212 730.228 858.326 727.038 863.253 722.876C867.011 719.7 870.567 716.044 874.128 712.383C875.25 711.229 876.374 710.075 877.504 708.934C882.16 704.236 886.931 699.789 892.064 697.041C897.263 694.258 902.891 693.19 909.144 695.321L909.145 695.322C914.374 697.11 918.386 700.839 921.951 704.732C923.019 705.899 924.04 707.07 925.042 708.219C927.466 710.999 929.778 713.651 932.381 715.807C941.395 723.273 952.681 724.71 964.168 722.364C975.672 720.014 987.246 713.885 996.557 706.431L996.568 706.422C1000.73 703.153 1005.48 699.499 1010.41 697.23C1015.36 694.95 1020.71 693.96 1025.91 696.36L1025.94 696.372L1025.96 696.384C1028.83 697.833 1031.02 700.198 1032.93 702.644C1033.73 703.662 1034.5 704.724 1035.24 705.759C1035.4 705.971 1035.55 706.181 1035.7 706.39C1036.6 707.632 1037.48 708.823 1038.41 709.915L1038.43 709.941L1038.45 709.968C1045.82 719.541 1058 723.772 1070.04 722.902C1082.07 722.032 1093.7 716.081 1099.97 705.611C1102.54 701.057 1104.24 696.072 1105.98 690.956C1106.32 689.952 1106.66 688.943 1107.02 687.932C1109.14 681.832 1111.56 675.685 1115.86 670.52L1115.86 670.513C1121.79 663.484 1129.98 660.032 1138.68 658.279C1146.86 656.63 1155.66 656.457 1163.67 656.3C1164.15 656.29 1164.62 656.281 1165.1 656.271C1173.67 656.091 1182.87 655.051 1190.76 652.078C1198.62 649.115 1205.06 644.281 1208.35 636.557C1209.89 632.719 1210.5 628.49 1211.13 624.071C1211.22 623.446 1211.31 622.817 1211.41 622.185C1212.15 617.18 1213.09 611.995 1215.82 607.553L1215.83 607.543L1215.83 607.532C1220.17 600.701 1227.7 597.605 1234.84 594.741C1234.97 594.686 1235.11 594.631 1235.25 594.576C1242.41 591.7 1249.19 588.981 1253.54 583.324L1253.54 583.316L1253.55 583.308C1257.35 578.505 1258.52 572.439 1259.06 565.653C1259.21 563.778 1259.31 561.834 1259.42 559.857C1259.68 554.831 1259.95 549.584 1261.07 544.671L1261.07 544.667C1264.02 531.761 1272.89 521.94 1281.46 512.454L1281.5 512.409C1290.17 502.825 1298.53 493.568 1301.5 481.547L1301.51 481.539C1303.56 473.433 1302.86 464.955 1302.01 456.138C1301.98 455.757 1301.94 455.375 1301.9 454.992C1301.09 446.62 1300.24 437.953 1301.88 429.474L1301.88 429.465L1301.88 429.456C1302.85 424.769 1304.52 420.319 1306.2 416.029C1306.41 415.518 1306.61 415.01 1306.81 414.505C1308.3 410.725 1309.75 407.068 1310.76 403.345L1310.76 403.336L1310.76 403.328C1314.01 391.89 1313.17 380.01 1310.33 368.149C1307.49 356.28 1302.68 344.54 1298.07 333.375C1291.21 317.36 1284.46 301.458 1277.72 285.559L1277.71 285.554C1270.97 269.651 1264.22 253.751 1257.36 237.738C1253.29 228.44 1249.03 218.821 1243.51 210.574C1237.99 202.341 1231.28 195.585 1222.37 191.921L1222.36 191.917L1222.35 191.913C1220.09 190.945 1217.79 190.205 1215.42 189.441C1214.2 189.047 1212.95 188.647 1211.69 188.206C1208.05 186.94 1204.38 185.383 1201.11 182.766L1201.09 182.752L1201.07 182.737C1198.53 180.572 1196.62 177.902 1194.93 175.212C1194.22 174.082 1193.58 172.984 1192.94 171.911C1192.02 170.339 1191.12 168.819 1190.11 167.321C1181.68 154.983 1168.18 149.634 1153.2 149.025C1138.21 148.415 1121.91 152.577 1108.26 159.09L1108.25 159.094C1061.32 181.127 1022.89 221.579 1002.93 270.545L1002.92 270.553C995.389 288.728 990.393 307.789 985.383 326.905C984.96 328.522 984.536 330.14 984.11 331.758C978.665 352.453 972.952 373.117 963.725 392.424L963.721 392.431C954.485 411.496 942.429 428.764 929.429 444.615C897.834 483.701 860.512 517.364 818.761 544.113L818.759 544.115C808.471 550.677 794.78 551.876 779.79 549.783C764.771 547.685 748.226 542.25 732.024 535.274C699.622 521.322 668.314 501.08 652.845 488.468L652.84 488.464C634.776 473.618 625.464 462.968 616.971 452.355C615.54 450.568 614.135 448.784 612.717 446.984C605.737 438.124 598.437 428.859 586.219 416.716L586.215 416.712C577.864 408.349 570.126 403.308 562.674 400.62C555.234 397.937 547.987 397.565 540.556 398.675C533.099 399.789 525.465 402.393 517.258 405.668C513.87 407.021 510.346 408.505 506.699 410.04C501.622 412.178 496.307 414.416 490.794 416.537C484.102 419.182 476.413 420.39 468.422 421.001C462.45 421.458 456.231 421.585 450.082 421.711C448.009 421.753 445.945 421.795 443.9 421.85C435.749 422.067 427.892 422.482 420.864 423.854C413.841 425.226 407.766 427.534 403.099 431.453C395.478 437.971 392.287 443.719 391.658 448.89C391.028 454.069 392.923 459.009 396.223 464.009C399.025 468.256 402.728 472.388 406.53 476.631C407.225 477.406 407.923 478.185 408.619 478.968C413.071 483.979 417.45 489.191 420.069 494.736L420.075 494.749L420.08 494.761C426.784 509.656 422.751 524.799 418.989 538.925L418.776 539.726C414.897 554.304 411.559 567.693 418.818 579.964C424.624 589.528 435.135 593.139 446.79 596.505C447.638 596.749 448.492 596.993 449.35 597.238C460.069 600.294 471.426 603.532 479.27 611.841Z" stroke="#F4CDCD" stroke-width="3"/>
</g>
<g filter="url(#filter3_di_49_528)">
<path d="M515.152 553.011C524.641 568.909 549.378 564.736 561.92 578.256C576.68 594.27 567.971 627.037 587.018 636.895C592.756 639.591 599.411 639.269 605.149 641.965C620.927 649.379 621.025 675.027 635.852 684.718C651.03 694.392 670.447 681.182 688.061 682.559C701.438 683.398 716.566 691.959 726.691 682.917C734.799 675.832 734.8 660.218 745.175 656.74C762.473 651.069 770.876 689.698 787.823 684.044C794.746 681.849 797.532 673.535 803.67 669.52C816.281 661.101 832.393 675.935 846.988 672.625C865.42 668.757 875.981 638.131 893.811 644.331C901.3 646.942 905.536 655.288 911.374 660.209C925.967 672.514 947.735 664.767 962.298 652.908C968.737 647.763 976.544 641.808 983.716 645.178C987.669 647.217 989.987 651.938 992.955 655.512C1004.9 671.291 1032.19 669.225 1042.29 652.005C1047.17 643.218 1048.08 632.392 1054.41 624.65C1063.06 614.192 1078.51 614.187 1091.49 613.93C1104.81 613.655 1120.48 610.665 1125.87 597.764C1128.7 590.563 1127.6 581.693 1131.52 575.183C1137.75 565.215 1153.22 565.952 1160.51 556.304C1166.82 548.191 1164.17 536.051 1166.51 525.528C1170.89 505.983 1192.9 495.622 1197.63 476.06C1200.91 462.889 1195.35 448.659 1197.91 435.151C1199.34 428.018 1202.91 421.525 1204.71 414.745C1209.85 396.279 1201.95 376.586 1194.84 359.086C1184.24 333.947 1174 309.162 1163.39 284.024C1157.12 269.457 1150.08 253.44 1135.77 247.441C1130.4 245.099 1124.4 244.275 1119.66 240.415C1116.01 237.246 1114.04 232.508 1111.41 228.546C1097.86 208.383 1068.16 211.311 1046.86 221.637C1010.42 239.018 980.615 270.949 965.149 309.62C952.503 340.718 949.13 375.085 935.033 405.139C927.976 419.98 918.751 433.44 908.775 445.82C884.519 476.366 855.861 502.664 823.8 523.551C793.441 543.239 720.921 499.539 697.22 479.868C669.5 456.675 668.701 446.675 645.901 423.615C619.783 396.998 600.433 411.691 571.109 423.151C551.109 431.184 518.4 421.988 503.187 434.994C479.199 455.861 508.238 469.324 516.009 486.049C526.165 508.979 503.361 532.763 515.152 553.011Z" fill="#E7E7E7"/>
<path d="M563.021 577.233L563.025 577.236C566.936 581.481 569.244 586.781 570.833 592.373C572.126 596.924 572.969 601.772 573.787 606.476C573.97 607.531 574.152 608.579 574.338 609.614C576.405 621.145 578.925 630.998 587.685 635.549C590.349 636.795 593.251 637.359 596.371 637.956L596.453 637.972C599.497 638.555 602.751 639.178 605.79 640.606C614.26 644.586 618.42 653.417 622.225 661.867C622.367 662.183 622.509 662.498 622.65 662.812C626.4 671.154 629.956 679.065 636.669 683.456C643.71 687.94 651.813 687.197 660.734 685.283C662.568 684.889 664.483 684.435 666.423 683.974C669.055 683.35 671.733 682.714 674.322 682.204C678.908 681.3 683.574 680.705 688.171 681.062C691.639 681.281 695.187 681.996 698.651 682.777C699.472 682.962 700.286 683.15 701.093 683.336C703.737 683.947 706.316 684.543 708.846 684.963C715.452 686.059 721.163 685.846 725.695 681.8L725.701 681.794L725.707 681.789C727.532 680.194 728.948 678.076 730.21 675.641C731.122 673.88 731.914 672.035 732.726 670.144C733.049 669.393 733.374 668.636 733.712 667.873C736.006 662.686 738.822 657.289 744.703 655.318L744.713 655.315C749.677 653.687 753.961 655.307 757.682 658.228C761.341 661.1 764.658 665.384 767.817 669.464L767.817 669.464L767.818 669.465C771.043 673.63 774.107 677.588 777.378 680.19C780.59 682.745 783.77 683.816 787.353 682.621L787.364 682.617L787.375 682.614C790.37 681.664 792.553 679.371 794.88 676.518C795.194 676.134 795.511 675.737 795.834 675.334C797.813 672.863 799.997 670.135 802.847 668.269C809.805 663.628 817.655 665.496 825.023 667.72C825.887 667.981 826.745 668.247 827.599 668.512C830.482 669.407 833.313 670.285 836.15 670.884C839.802 671.655 843.307 671.923 846.661 671.162L846.673 671.159L846.685 671.157C850.935 670.265 854.821 667.81 858.597 664.564C861.479 662.087 864.202 659.238 866.942 656.372C867.809 655.465 868.677 654.557 869.553 653.658C873.139 649.975 876.846 646.455 880.852 644.275C884.927 642.058 889.371 641.197 894.308 642.914L894.309 642.914C898.429 644.35 901.572 647.335 904.328 650.398C905.165 651.328 905.96 652.256 906.737 653.163C908.599 655.336 910.356 657.386 912.343 659.061C919.193 664.837 927.773 665.968 936.549 664.151C945.346 662.33 954.213 657.561 961.354 651.746L961.365 651.737C964.567 649.179 968.261 646.289 972.1 644.491C975.962 642.683 980.208 641.87 984.357 643.82L984.382 643.831L984.407 643.844C986.683 645.018 988.414 646.923 989.895 648.853C990.513 649.657 991.109 650.497 991.686 651.309C991.804 651.474 991.921 651.639 992.037 651.802C992.732 652.777 993.406 653.703 994.11 654.55L994.132 654.576L994.152 654.603C999.759 662.012 1009.03 665.304 1018.21 664.637C1027.38 663.969 1036.23 659.362 1040.99 651.265C1042.95 647.723 1044.25 643.847 1045.59 639.836C1045.85 639.047 1046.12 638.253 1046.39 637.455C1048.02 632.67 1049.9 627.8 1053.25 623.703L1053.25 623.695C1057.88 618.104 1064.28 615.373 1071.03 613.995C1077.38 612.699 1084.19 612.569 1090.35 612.451C1090.72 612.444 1091.1 612.437 1091.46 612.43C1098.05 612.294 1105.1 611.486 1111.12 609.181C1117.12 606.887 1121.99 603.155 1124.48 597.204C1125.64 594.232 1126.11 590.955 1126.59 587.486C1126.66 586.996 1126.73 586.502 1126.8 586.004C1127.37 582.08 1128.11 577.956 1130.24 574.412L1130.25 574.402L1130.25 574.392C1133.66 568.93 1139.58 566.471 1145.06 564.235L1145.33 564.122C1150.89 561.858 1156.03 559.761 1159.32 555.402L1159.33 555.394L1159.33 555.386C1162.2 551.7 1163.09 547.023 1163.5 541.709C1163.62 540.256 1163.69 538.742 1163.77 537.197C1163.97 533.245 1164.18 529.088 1165.04 525.208L1165.04 525.204C1167.34 514.99 1174.22 507.232 1180.82 499.806L1180.82 499.801C1187.51 492.267 1193.91 485.063 1196.18 475.712L1196.18 475.703C1197.74 469.404 1197.21 462.803 1196.55 455.88C1196.52 455.577 1196.49 455.273 1196.46 454.968C1195.83 448.411 1195.17 441.572 1196.43 434.878L1196.43 434.869L1196.44 434.86C1197.18 431.156 1198.47 427.645 1199.77 424.28C1199.93 423.879 1200.08 423.48 1200.24 423.084C1201.39 420.118 1202.49 417.267 1203.26 414.365L1203.27 414.356L1203.27 414.348C1205.75 405.445 1205.1 396.18 1202.91 386.903C1200.72 377.618 1197.02 368.428 1193.46 359.664C1188.15 347.095 1182.94 334.615 1177.73 322.137L1177.73 322.134C1172.52 309.656 1167.31 297.18 1162.01 284.617C1158.87 277.316 1155.59 269.794 1151.34 263.348C1147.11 256.915 1141.97 251.669 1135.19 248.825L1135.18 248.821L1135.17 248.817C1133.44 248.063 1131.7 247.49 1129.88 246.893C1128.93 246.582 1127.97 246.264 1126.97 245.912C1124.15 244.91 1121.28 243.671 1118.71 241.58L1118.69 241.565L1118.68 241.55C1116.68 239.817 1115.18 237.688 1113.87 235.568C1113.32 234.664 1112.82 233.798 1112.33 232.955C1111.62 231.731 1110.94 230.555 1110.16 229.383C1103.73 219.81 1093.43 215.641 1081.97 215.157C1070.49 214.672 1057.98 217.907 1047.51 222.987L1047.5 222.991C1011.42 240.205 981.87 271.845 966.541 310.173L966.538 310.181C960.75 324.413 956.916 339.342 953.065 354.338C952.74 355.605 952.414 356.873 952.087 358.141C947.903 374.371 943.506 390.603 936.39 405.772L936.387 405.779C929.264 420.758 919.966 434.317 909.944 446.756C885.592 477.423 856.815 503.83 824.615 524.807L824.613 524.809C816.581 530.017 805.925 530.941 794.33 529.283C782.706 527.621 769.916 523.334 757.406 517.844C732.391 506.864 708.217 490.948 696.26 481.024L696.256 481.02C682.301 469.344 675.1 460.967 668.536 452.622C667.43 451.217 666.345 449.815 665.25 448.401C659.865 441.448 654.244 434.191 644.833 424.672L644.829 424.668C638.41 418.126 632.484 414.201 626.798 412.11C621.127 410.024 615.603 409.73 609.926 410.588C604.222 411.45 598.37 413.474 592.053 416.036C589.458 417.088 586.746 418.248 583.935 419.45C580.014 421.127 575.903 422.886 571.656 424.546C566.449 426.636 560.481 427.582 554.308 428.057C549.693 428.412 544.884 428.508 540.142 428.603C538.546 428.634 536.958 428.666 535.387 428.707C529.105 428.873 523.075 429.192 517.692 430.258C512.314 431.323 507.698 433.11 504.165 436.128C498.333 441.202 495.937 445.641 495.467 449.594C494.997 453.556 496.42 457.36 498.947 461.255C501.096 464.567 503.935 467.79 506.869 471.121C507.406 471.73 507.946 472.343 508.485 472.961C511.918 476.894 515.326 481.016 517.37 485.413L517.375 485.425L517.381 485.438C522.601 497.225 519.477 509.194 516.592 520.246L516.419 520.91C513.431 532.368 510.914 542.741 516.445 552.246C520.854 559.625 528.826 562.435 537.82 565.086C538.477 565.28 539.14 565.472 539.807 565.666C548.054 568.065 556.903 570.638 563.021 577.233Z" stroke="#F4CDCD" stroke-width="3"/>
</g>
<g filter="url(#filter4_di_49_528)">
<path d="M619.572 520.536C626.116 531.589 643.163 528.695 651.811 538.096C661.988 549.231 655.994 572.002 669.124 578.86C673.079 580.735 677.666 580.513 681.621 582.389C692.497 587.546 692.571 605.373 702.793 612.112C713.256 618.841 726.635 609.665 738.775 610.627C747.995 611.214 758.423 617.168 765.399 610.887C770.985 605.965 770.982 595.112 778.131 592.698C790.051 588.761 795.853 615.612 807.532 611.687C812.302 610.164 814.22 604.386 818.45 601.597C827.139 595.749 838.247 606.064 848.305 603.767C861.007 601.084 868.278 579.801 880.568 584.115C885.73 585.932 888.652 591.734 892.676 595.156C902.738 603.713 917.738 598.334 927.772 590.096C932.208 586.522 937.587 582.385 942.531 584.729C945.256 586.148 946.855 589.429 948.902 591.914C957.136 602.885 975.942 601.456 982.906 589.491C986.261 583.385 986.891 575.861 991.246 570.481C997.21 563.215 1007.86 563.216 1016.8 563.041C1025.98 562.854 1036.78 560.78 1040.49 551.815C1042.44 546.81 1041.68 540.646 1044.38 536.122C1048.67 529.195 1059.34 529.712 1064.36 523.008C1068.7 517.371 1066.87 508.933 1068.48 501.619C1071.5 488.036 1086.66 480.841 1089.92 467.246C1092.17 458.093 1088.34 448.2 1090.1 438.813C1091.08 433.855 1093.54 429.343 1094.78 424.632C1098.32 411.798 1092.87 398.109 1087.97 385.943C1080.65 368.468 1073.59 351.238 1066.27 333.763C1061.94 323.636 1057.09 312.502 1047.22 308.329C1043.52 306.699 1039.38 306.125 1036.12 303.441C1033.6 301.237 1032.24 297.943 1030.43 295.189C1021.09 281.171 1000.61 283.197 985.936 290.369C960.832 302.439 940.295 324.623 929.646 351.497C920.939 373.108 918.623 396.994 908.915 417.878C904.056 428.192 897.701 437.544 890.829 446.146C874.12 467.37 854.376 485.64 832.285 500.148C811.366 513.824 761.374 483.43 745.034 469.751C725.924 453.622 725.37 446.672 709.65 430.638C691.643 412.13 678.31 422.338 658.103 430.294C644.321 435.872 621.776 429.471 611.294 438.506C594.768 453.003 614.784 462.369 620.145 473.996C627.15 489.936 611.44 506.46 619.572 520.536Z" fill="url(#paint2_linear_49_528)"/>
<path d="M652.918 537.084L652.915 537.08C648.604 532.394 642.378 530.567 636.717 528.907C636.251 528.77 635.788 528.634 635.33 528.498C629.115 526.649 623.803 524.732 620.867 519.779C617.161 513.358 618.823 506.338 620.888 498.34C620.932 498.17 620.976 497.999 621.021 497.828C622.997 490.186 625.183 481.731 621.518 473.392L621.513 473.38L621.507 473.368C620.067 470.244 617.676 467.334 615.31 464.602C614.935 464.169 614.561 463.74 614.19 463.315C612.166 460.998 610.235 458.787 608.773 456.515C607.058 453.851 606.135 451.314 606.441 448.707C606.746 446.109 608.312 443.119 612.279 439.638C614.63 437.614 617.724 436.396 621.385 435.667C625.053 434.936 629.174 434.716 633.5 434.603C634.576 434.575 635.666 434.553 636.763 434.532C640.035 434.468 643.369 434.402 646.564 434.155C650.838 433.825 655.006 433.164 658.659 431.687C661.583 430.536 664.437 429.306 667.149 428.137C669.086 427.302 670.951 426.499 672.717 425.777C677.062 424.002 681.053 422.614 684.927 422.025C688.773 421.44 692.497 421.645 696.319 423.064C700.155 424.488 704.184 427.171 708.575 431.684L708.579 431.688C715.047 438.285 718.905 443.308 722.617 448.141C723.373 449.125 724.123 450.102 724.888 451.082C729.43 456.903 734.416 462.753 744.067 470.897L744.071 470.901C752.348 477.83 769.05 488.923 786.335 496.579C794.979 500.408 803.839 503.409 811.91 504.576C819.953 505.739 827.434 505.111 833.106 501.403L833.108 501.402C855.338 486.803 875.2 468.422 892.005 447.077C898.923 438.417 905.349 428.967 910.272 418.518L910.276 418.511C915.196 407.927 918.23 396.608 921.109 385.331C921.334 384.451 921.558 383.572 921.781 382.693C924.433 372.265 927.065 361.918 931.038 352.057L931.041 352.049C941.555 325.516 961.832 303.622 986.586 291.721L986.594 291.716C993.761 288.215 1002.3 285.995 1010.12 286.331C1017.91 286.667 1024.85 289.521 1029.18 296.018C1029.71 296.826 1030.16 297.618 1030.64 298.455C1030.98 299.041 1031.33 299.65 1031.73 300.303C1032.64 301.79 1033.7 303.318 1035.13 304.569L1035.15 304.585L1035.17 304.599C1037 306.105 1039.04 306.989 1041 307.692C1041.71 307.946 1042.39 308.171 1043.04 308.388C1044.28 308.799 1045.45 309.185 1046.62 309.702L1046.63 309.706L1046.64 309.71C1051.2 311.639 1054.67 315.204 1057.57 319.634C1060.47 324.076 1062.72 329.268 1064.89 334.349C1068.54 343.074 1072.13 351.739 1075.72 360.407L1075.73 360.427L1075.74 360.448C1079.33 369.114 1082.92 377.782 1086.58 386.513C1089.03 392.609 1091.57 398.965 1093.08 405.379C1094.58 411.785 1095.01 418.143 1093.34 424.233L1093.33 424.242L1093.33 424.25C1092.81 426.242 1092.06 428.198 1091.26 430.262C1091.16 430.537 1091.05 430.815 1090.94 431.094C1090.05 433.433 1089.15 435.905 1088.62 438.52L1088.62 438.528L1088.62 438.537C1087.74 443.253 1088.2 448.064 1088.64 452.607C1088.66 452.825 1088.68 453.043 1088.7 453.26C1089.16 458.08 1089.52 462.594 1088.46 466.888L1088.46 466.896C1086.93 473.27 1082.61 478.193 1077.98 483.446L1077.95 483.483C1073.43 488.616 1068.62 494.082 1067.01 501.294L1067.01 501.297C1066.41 504.033 1066.27 506.984 1066.13 509.743C1066.08 510.808 1066.02 511.843 1065.95 512.828C1065.67 516.507 1065.06 519.643 1063.17 522.093L1063.16 522.101L1063.16 522.109C1060.96 525.036 1057.53 526.448 1053.65 528.041L1053.52 528.094C1049.77 529.638 1045.54 531.392 1043.11 535.332L1043.1 535.343L1043.09 535.353C1041.57 537.901 1041.06 540.851 1040.67 543.575C1040.62 543.924 1040.57 544.268 1040.52 544.609C1040.19 547.024 1039.88 549.244 1039.1 551.255C1037.44 555.242 1034.2 557.759 1030.16 559.32C1026.08 560.893 1021.28 561.449 1016.77 561.541C1016.51 561.546 1016.25 561.551 1015.99 561.556C1011.76 561.636 1007.02 561.725 1002.6 562.633C997.889 563.602 993.366 565.534 990.087 569.53L990.08 569.537C987.72 572.452 986.405 575.904 985.28 579.233C985.09 579.794 984.906 580.35 984.724 580.901C983.802 583.686 982.927 586.332 981.6 588.752C978.407 594.226 972.461 597.356 966.271 597.808C960.076 598.26 953.854 596.014 950.101 591.014L950.081 590.987L950.059 590.96C949.586 590.385 949.129 589.754 948.65 589.077C948.571 588.965 948.492 588.852 948.411 588.737C948.013 588.172 947.595 587.58 947.164 587.013C946.131 585.657 944.887 584.265 943.223 583.399L943.199 583.386L943.174 583.374C940.132 581.932 937.046 582.55 934.321 583.837C931.617 585.112 929.031 587.155 926.831 588.928L926.82 588.937C921.943 592.941 915.9 596.212 909.929 597.456C903.98 598.695 898.23 597.91 893.648 594.014C892.309 592.875 891.135 591.493 889.863 589.996C889.323 589.36 888.764 588.703 888.168 588.035C886.259 585.895 884.025 583.742 881.066 582.7L881.065 582.7C877.508 581.451 874.305 582.084 871.407 583.673C868.579 585.224 865.982 587.717 863.512 590.275C862.902 590.907 862.299 591.543 861.699 592.176C859.815 594.164 857.961 596.12 855.994 597.824C853.417 600.058 850.811 601.705 847.995 602.3L847.983 602.302L847.971 602.305C845.753 602.811 843.413 602.637 840.932 602.108C839 601.696 837.077 601.093 835.094 600.472C834.502 600.286 833.905 600.099 833.301 599.915C828.24 598.373 822.616 596.988 817.618 600.349C815.588 601.689 814.033 603.649 812.674 605.363C812.454 605.64 812.238 605.912 812.027 606.173C810.423 608.156 808.994 609.645 807.075 610.258L807.064 610.262L807.054 610.265C804.792 611.025 802.768 610.371 800.626 608.652C798.424 606.885 796.346 604.185 794.112 601.275L794.089 601.245C791.927 598.429 789.611 595.414 787.043 593.38C784.404 591.291 781.286 590.077 777.661 591.274L777.651 591.277C773.384 592.718 771.379 596.659 769.805 600.25C769.568 600.79 769.341 601.322 769.118 601.847C768.561 603.155 768.025 604.414 767.405 605.623C766.548 607.292 765.604 608.707 764.407 609.761L764.401 609.767L764.395 609.772C761.437 612.435 757.691 612.61 753.176 611.853C751.449 611.563 749.691 611.153 747.872 610.728C747.313 610.598 746.748 610.466 746.176 610.336C743.787 609.792 741.312 609.286 738.882 609.131C735.651 608.876 732.388 609.298 729.211 609.928C727.427 610.282 725.556 610.729 723.728 611.165C722.39 611.485 721.077 611.798 719.838 612.066C713.702 613.391 708.292 613.86 703.613 610.856C699.102 607.878 696.7 602.495 694.089 596.642C694 596.444 693.911 596.245 693.822 596.045C691.212 590.204 688.284 583.888 682.264 581.033C680.114 580.014 677.82 579.57 675.737 579.167L675.657 579.151C673.501 578.734 671.564 578.351 669.793 577.517C663.992 574.47 662.271 567.87 660.837 559.819C660.71 559.105 660.584 558.38 660.458 557.649C659.893 554.379 659.306 550.98 658.407 547.791C657.301 543.87 655.684 540.109 652.918 537.084Z" stroke="#F4CDCD" stroke-width="3"/>
</g>
<defs>
<filter id="filter0_di_49_528" x="161.478" y="0.852539" width="1379.93" height="914.739" filterUnits="userSpaceOnUse" color-interpolation-filters="sRGB">
<feFlood flood-opacity="0" result="BackgroundImageFix"/>
<feColorMatrix in="SourceAlpha" type="matrix" values="0 0 0 0 0 0 0 0 0 0 0 0 0 0 0 0 0 0 127 0" result="hardAlpha"/>
<feOffset dy="11"/>
<feGaussianBlur stdDeviation="11"/>
<feComposite in2="hardAlpha" operator="out"/>
<feColorMatrix type="matrix" values="0 0 0 0 0 0 0 0 0 0 0 0 0 0 0 0 0 0 0.31 0"/>
<feBlend mode="normal" in2="BackgroundImageFix" result="effect1_dropShadow_49_528"/>
<feBlend mode="normal" in="SourceGraphic" in2="effect1_dropShadow_49_528" result="shape"/>
<feColorMatrix in="SourceAlpha" type="matrix" values="0 0 0 0 0 0 0 0 0 0 0 0 0 0 0 0 0 0 127 0" result="hardAlpha"/>
<feOffset dy="14"/>
<feGaussianBlur stdDeviation="4"/>
<feComposite in2="hardAlpha" operator="arithmetic" k2="-1" k3="1"/>
<feColorMatrix type="matrix" values="0 0 0 0 0 0 0 0 0 0 0 0 0 0 0 0 0 0 0.18 0"/>
<feBlend mode="normal" in2="shape" result="effect2_innerShadow_49_528"/>
</filter>
<filter id="filter1_di_49_528" x="270.224" y="70.8594" width="1159.67" height="779.849" filterUnits="userSpaceOnUse" color-interpolation-filters="sRGB">
<feFlood flood-opacity="0" result="BackgroundImageFix"/>
<feColorMatrix in="SourceAlpha" type="matrix" values="0 0 0 0 0 0 0 0 0 0 0 0 0 0 0 0 0 0 127 0" result="hardAlpha"/>
<feOffset dy="11"/>
<feGaussianBlur stdDeviation="11"/>
<feComposite in2="hardAlpha" operator="out"/>
<feColorMatrix type="matrix" values="0 0 0 0 0 0 0 0 0 0 0 0 0 0 0 0 0 0 0.31 0"/>
<feBlend mode="normal" in2="BackgroundImageFix" result="effect1_dropShadow_49_528"/>
<feBlend mode="normal" in="SourceGraphic" in2="effect1_dropShadow_49_528" result="shape"/>
<feColorMatrix in="SourceAlpha" type="matrix" values="0 0 0 0 0 0 0 0 0 0 0 0 0 0 0 0 0 0 127 0" result="hardAlpha"/>
<feOffset dy="14"/>
<feGaussianBlur stdDeviation="4"/>
<feComposite in2="hardAlpha" operator="arithmetic" k2="-1" k3="1"/>
<feColorMatrix type="matrix" values="0 0 0 0 0 0 0 0 0 0 0 0 0 0 0 0 0 0 0.18 0"/>
<feBlend mode="normal" in2="shape" result="effect2_innerShadow_49_528"/>
</filter>
<filter id="filter2_di_49_528" x="368.038" y="136.466" width="968.313" height="649.577" filterUnits="userSpaceOnUse" color-interpolation-filters="sRGB">
<feFlood flood-opacity="0" result="BackgroundImageFix"/>
<feColorMatrix in="SourceAlpha" type="matrix" values="0 0 0 0 0 0 0 0 0 0 0 0 0 0 0 0 0 0 127 0" result="hardAlpha"/>
<feOffset dy="11"/>
<feGaussianBlur stdDeviation="11"/>
<feComposite in2="hardAlpha" operator="out"/>
<feColorMatrix type="matrix" values="0 0 0 0 0 0 0 0 0 0 0 0 0 0 0 0 0 0 0.31 0"/>
<feBlend mode="normal" in2="BackgroundImageFix" result="effect1_dropShadow_49_528"/>
<feBlend mode="normal" in="SourceGraphic" in2="effect1_dropShadow_49_528" result="shape"/>
<feColorMatrix in="SourceAlpha" type="matrix" values="0 0 0 0 0 0 0 0 0 0 0 0 0 0 0 0 0 0 127 0" result="hardAlpha"/>
<feOffset dy="14"/>
<feGaussianBlur stdDeviation="4"/>
<feComposite in2="hardAlpha" operator="arithmetic" k2="-1" k3="1"/>
<feColorMatrix type="matrix" values="0 0 0 0 0 0 0 0 0 0 0 0 0 0 0 0 0 0 0.18 0"/>
<feBlend mode="normal" in2="shape" result="effect2_innerShadow_49_528"/>
</filter>
<filter id="filter3_di_49_528" x="471.878" y="202.609" width="756.48" height="518.678" filterUnits="userSpaceOnUse" color-interpolation-filters="sRGB">
<feFlood flood-opacity="0" result="BackgroundImageFix"/>
<feColorMatrix in="SourceAlpha" type="matrix" values="0 0 0 0 0 0 0 0 0 0 0 0 0 0 0 0 0 0 127 0" result="hardAlpha"/>
<feOffset dy="11"/>
<feGaussianBlur stdDeviation="11"/>
<feComposite in2="hardAlpha" operator="out"/>
<feColorMatrix type="matrix" values="0 0 0 0 0 0 0 0 0 0 0 0 0 0 0 0 0 0 0.31 0"/>
<feBlend mode="normal" in2="BackgroundImageFix" result="effect1_dropShadow_49_528"/>
<feBlend mode="normal" in="SourceGraphic" in2="effect1_dropShadow_49_528" result="shape"/>
<feColorMatrix in="SourceAlpha" type="matrix" values="0 0 0 0 0 0 0 0 0 0 0 0 0 0 0 0 0 0 127 0" result="hardAlpha"/>
<feOffset dy="14"/>
<feGaussianBlur stdDeviation="4"/>
<feComposite in2="hardAlpha" operator="arithmetic" k2="-1" k3="1"/>
<feColorMatrix type="matrix" values="0 0 0 0 0 0 0 0 0 0 0 0 0 0 0 0 0 0 0.18 0"/>
<feBlend mode="normal" in2="shape" result="effect2_innerShadow_49_528"/>
</filter>
<filter id="filter4_di_49_528" x="582.883" y="273.798" width="535.03" height="373.799" filterUnits="userSpaceOnUse" color-interpolation-filters="sRGB">
<feFlood flood-opacity="0" result="BackgroundImageFix"/>
<feColorMatrix in="SourceAlpha" type="matrix" values="0 0 0 0 0 0 0 0 0 0 0 0 0 0 0 0 0 0 127 0" result="hardAlpha"/>
<feOffset dy="11"/>
<feGaussianBlur stdDeviation="11"/>
<feComposite in2="hardAlpha" operator="out"/>
<feColorMatrix type="matrix" values="0 0 0 0 0 0 0 0 0 0 0 0 0 0 0 0 0 0 0.31 0"/>
<feBlend mode="normal" in2="BackgroundImageFix" result="effect1_dropShadow_49_528"/>
<feBlend mode="normal" in="SourceGraphic" in2="effect1_dropShadow_49_528" result="shape"/>
<feColorMatrix in="SourceAlpha" type="matrix" values="0 0 0 0 0 0 0 0 0 0 0 0 0 0 0 0 0 0 127 0" result="hardAlpha"/>
<feOffset dy="14"/>
<feGaussianBlur stdDeviation="4"/>
<feComposite in2="hardAlpha" operator="arithmetic" k2="-1" k3="1"/>
<feColorMatrix type="matrix" values="0 0 0 0 0 0 0 0 0 0 0 0 0 0 0 0 0 0 0.18 0"/>
<feBlend mode="normal" in2="shape" result="effect2_innerShadow_49_528"/>
</filter>
<linearGradient id="paint0_linear_49_528" x1="1357.55" y1="177.435" x2="414.587" y2="670.041" gradientUnits="userSpaceOnUse">
<stop stop-color="#F3F1F1"/>
<stop offset="1" stop-color="#D2D2D2"/>
</linearGradient>
<linearGradient id="paint1_linear_49_528" x1="1202.33" y1="262.665" x2="548.573" y2="602.465" gradientUnits="userSpaceOnUse">
<stop stop-color="#F3F1F1"/>
<stop offset="1" stop-color="#D2D2D2"/>
</linearGradient>
<linearGradient id="paint2_linear_49_528" x1="1036.32" y1="347.643" x2="685.679" y2="525.52" gradientUnits="userSpaceOnUse">
<stop stop-color="#F3F1F1"/>
<stop offset="1" stop-color="#D2D2D2"/>
</linearGradient>
</defs>
</svg>
